<?xml version="1.0" encoding="utf-8"?>
<!-- Generator: Adobe Illustrator 25.4.1, SVG Export Plug-In . SVG Version: 6.00 Build 0)  -->
<svg version="1.1" id="Calque_1" xmlns="http://www.w3.org/2000/svg" xmlns:xlink="http://www.w3.org/1999/xlink" x="0px" y="0px"
	 viewBox="0 0 100 80" style="enable-background:new 0 0 100 80;" xml:space="preserve">
<style type="text/css">
	.st0{fill:#EFF0F9;}
	.st1{fill:#FFFFFF;}
	.st2{fill:#4F32C3;}
	.st3{fill:#D8D9EC;}
	.st4{fill:#FF7352;}
	.st5{fill:#FF6945;}
</style>
<g>
	<path class="st0" d="M72,69.4C50.5,81.7,16.9,76,9.1,57.8c-8-18.7,12-49.2,38-53.3c18-2.8,42.6,6.5,47.1,25.2
		C98.4,46.7,83.8,62.7,72,69.4z"/>
	<path class="st1" d="M73.3,22.4H9.7v35h63.6V22.4z"/>
	<g>
		<path class="st2" d="M75.6,10.5H7.4c-1.3,0-2.3,1-2.3,2.3v46.9c0,1.3,1,2.3,2.3,2.3h68.3c1.3,0,2.3-1,2.3-2.3V12.9
			C78,11.6,76.9,10.5,75.6,10.5z M59.2,12c1,0,1.8,0.8,1.8,1.8c0,1-0.8,1.8-1.8,1.8c-1,0-1.8-0.8-1.8-1.8C57.4,12.7,58.2,12,59.2,12
			z M23.7,12c1,0,1.8,0.8,1.8,1.8c0,1-0.8,1.8-1.8,1.8S22,14.7,22,13.7C22,12.7,22.8,12,23.7,12z M73.3,57.5H9.7v-35h63.6V57.5z"/>
	</g>
	<path class="st3" d="M54,23.4h-6.8c-0.2,0-0.4,0.2-0.4,0.4V29c0,0.2,0.2,0.4,0.4,0.4H54c0.2,0,0.4-0.2,0.4-0.4v-5.2
		C54.4,23.6,54.2,23.4,54,23.4z M53.6,28.6h-6v-4.4h6V28.6z"/>
	<path class="st3" d="M63.1,23.4h-6.8c-0.2,0-0.4,0.2-0.4,0.4V29c0,0,0,0.1,0,0.1c0,0.2,0.2,0.3,0.4,0.3h6.8c0.2,0,0.4-0.2,0.4-0.4
		v-5.2C63.4,23.6,63.3,23.4,63.1,23.4z M62.7,28.6h-6v-4.4h6V28.6z"/>
	<path class="st3" d="M72.2,23.4h-6.8c-0.2,0-0.4,0.2-0.4,0.4V29c0,0.2,0.2,0.4,0.4,0.4h6.8c0.2,0,0.4-0.2,0.4-0.4v-5.2
		C72.5,23.6,72.4,23.4,72.2,23.4z M71.8,28.6h-6v-4.4h6V28.6z"/>
	<path class="st3" d="M17.7,30.2h-6.8c-0.2,0-0.4,0.2-0.4,0.4v5.2c0,0.2,0.2,0.4,0.4,0.4h6.8c0.2,0,0.4-0.2,0.4-0.4v-5.2
		C18,30.4,17.9,30.2,17.7,30.2z M17.3,35.4h-6v-4.4h6L17.3,35.4L17.3,35.4z"/>
	<path class="st3" d="M44.9,30.2h-6.8c-0.2,0-0.4,0.2-0.4,0.4v5.2c0,0.2,0.2,0.4,0.4,0.4h6.8c0.2,0,0.4-0.2,0.4-0.4v-5.2
		C45.3,30.4,45.1,30.2,44.9,30.2z M44.5,35.4h-6v-4.4h6V35.4z"/>
	<path class="st3" d="M26.7,37h-6.8c-0.2,0-0.4,0.2-0.4,0.4v5.2c0,0.2,0.2,0.4,0.4,0.4h6.8c0.2,0,0.4-0.2,0.4-0.4v-5.2
		C27.1,37.1,27,37,26.7,37z M26.4,42.2h-6v-4.4h6L26.4,42.2L26.4,42.2z"/>
	<path class="st3" d="M35.8,37H29c-0.2,0-0.4,0.2-0.4,0.4v5.2c0,0.2,0.2,0.4,0.4,0.4h6.8c0.2,0,0.4-0.2,0.4-0.4v-5.2
		C36.2,37.1,36,37,35.8,37z M35.4,42.2h-6v-4.4h6V42.2z"/>
	<path class="st3" d="M17.7,43.7h-6.8c-0.2,0-0.4,0.2-0.4,0.4v5.2c0,0.2,0.2,0.4,0.4,0.4h6.8c0.2,0,0.4-0.2,0.4-0.4v-5.2
		C18,43.9,17.9,43.7,17.7,43.7z M17.3,48.9h-6v-4.4h6L17.3,48.9L17.3,48.9z"/>
	<path class="st3" d="M26.7,43.7h-6.8c-0.2,0-0.4,0.2-0.4,0.4v5.2c0,0.2,0.2,0.4,0.4,0.4h6.8c0.2,0,0.4-0.2,0.4-0.4v-5.2
		C27.1,43.9,27,43.7,26.7,43.7z M26.4,48.9h-6v-4.4h6L26.4,48.9L26.4,48.9z"/>
	<path class="st3" d="M26.7,50.5h-6.8c-0.2,0-0.4,0.2-0.4,0.4v5.2c0,0.2,0.2,0.4,0.4,0.4h6.8c0.2,0,0.4-0.2,0.4-0.4v-5.2
		C27.1,50.7,27,50.5,26.7,50.5z M26.4,55.7h-6v-4.4h6L26.4,55.7L26.4,55.7z"/>
	<path class="st3" d="M44.9,50.5h-6.8c-0.2,0-0.4,0.2-0.4,0.4v5.2c0,0.2,0.2,0.4,0.4,0.4h6.8c0.2,0,0.4-0.2,0.4-0.4v-5.2
		C45.3,50.7,45.1,50.5,44.9,50.5z M44.5,55.7h-6v-4.4h6V55.7z"/>
	<path class="st3" d="M54,50.5h-6.8c-0.2,0-0.4,0.2-0.4,0.4v5.2c0,0.2,0.2,0.4,0.4,0.4H54c0.2,0,0.4-0.2,0.4-0.4v-5.2
		C54.4,50.7,54.2,50.5,54,50.5z M47.6,55.7v-4.4h6v4.4H47.6z"/>
	<path class="st3" d="M36.2,23.8C36.2,23.8,36.2,23.7,36.2,23.8C36.2,23.7,36.2,23.7,36.2,23.8c0-0.1,0-0.1,0-0.1c0,0,0,0,0,0
		c0,0,0,0,0,0c0,0,0,0,0,0c0,0,0,0,0,0l0,0c0,0,0,0,0,0c0,0,0,0,0,0c0,0,0,0,0,0c0,0,0,0,0,0c0,0,0,0,0,0c0,0,0,0,0,0c0,0,0,0,0,0
		c0,0,0,0,0,0c0,0,0,0,0,0H29c-0.2,0-0.4,0.2-0.4,0.4V29v0c0,0,0,0,0,0s0,0,0,0s0,0,0,0c0,0,0,0,0,0c0,0,0,0,0,0c0,0,0,0,0,0
		s0,0,0,0c0,0,0,0,0,0c0,0,0,0,0,0c0,0,0,0,0,0c0,0,0,0,0,0c0,0,0,0,0,0c0,0,0,0,0.1,0h0c0,0,0,0,0.1,0h6.8c0.2,0,0.4-0.2,0.4-0.4
		V23.8C36.2,23.8,36.2,23.8,36.2,23.8z M29.4,24.2h5.3l-5.3,4V24.2z M35.4,28.6h-5.3l5.3-4V28.6z"/>
	<path class="st3" d="M45.3,23.8C45.3,23.8,45.3,23.7,45.3,23.8C45.3,23.7,45.3,23.7,45.3,23.8c0-0.1,0-0.1,0-0.1c0,0,0,0,0,0
		c0,0,0,0,0,0s0,0,0,0s0,0,0,0l0,0c0,0,0,0,0,0c0,0,0,0,0,0c0,0,0,0,0,0c0,0,0,0,0,0c0,0,0,0,0,0c0,0,0,0,0,0c0,0,0,0,0,0
		c0,0,0,0,0,0c0,0,0,0,0,0h-6.8c-0.2,0-0.4,0.2-0.4,0.4V29v0c0,0,0,0,0,0s0,0,0,0s0,0,0,0c0,0,0,0,0,0c0,0,0,0,0,0c0,0,0,0,0,0
		c0,0,0,0,0,0l0,0c0,0,0,0,0,0c0,0,0,0,0,0c0,0,0,0,0,0c0,0,0,0,0,0c0,0,0,0,0.1,0h0c0,0,0,0,0.1,0h6.8c0.2,0,0.4-0.2,0.4-0.4
		L45.3,23.8C45.3,23.8,45.3,23.8,45.3,23.8z M38.5,24.2h5.3l-5.3,4V24.2z M44.5,28.6h-5.3l5.3-4V28.6z"/>
	<path class="st3" d="M27.1,30.5C27.1,30.5,27.1,30.5,27.1,30.5C27.1,30.5,27.1,30.5,27.1,30.5C27.1,30.4,27.1,30.4,27.1,30.5
		c0-0.1,0-0.1,0-0.1s0,0,0,0s0,0,0,0l0,0c0,0,0,0,0,0s0,0,0,0c0,0,0,0,0,0c0,0,0,0,0,0s0,0,0,0s0,0,0,0c0,0,0,0,0,0c0,0,0,0,0,0
		c0,0,0,0,0,0h-6.8c-0.2,0-0.4,0.2-0.4,0.4v5.2v0c0,0,0,0,0,0c0,0,0,0,0,0c0,0,0,0,0,0c0,0,0,0,0,0c0,0,0,0,0,0c0,0,0,0,0,0
		c0,0,0,0,0,0l0,0c0,0,0,0,0,0c0,0,0,0,0,0c0,0,0,0,0,0c0,0,0,0,0,0c0,0,0,0,0.1,0c0,0,0,0,0,0c0,0,0.1,0,0.1,0h6.8
		c0.2,0,0.4-0.2,0.4-0.4V30.5C27.1,30.5,27.1,30.5,27.1,30.5z M20.3,31h5.3l-5.3,4V31z M26.4,35.4h-5.3l5.3-4V35.4z"/>
	<path class="st3" d="M36.2,30.6C36.2,30.5,36.2,30.5,36.2,30.6C36.2,30.5,36.2,30.5,36.2,30.6c0-0.1,0-0.1,0-0.1c0,0,0,0,0,0
		c0,0,0,0,0,0c0,0,0,0,0,0c0,0,0,0,0,0l0,0c0,0,0,0,0,0c0,0,0,0,0,0c0,0,0,0,0,0c0,0,0,0,0,0c0,0,0,0,0,0c0,0,0,0,0,0c0,0,0,0,0,0
		c0,0,0,0,0,0c0,0,0,0,0,0H29c-0.2,0-0.4,0.2-0.4,0.4v5.2v0c0,0,0,0,0,0c0,0,0,0,0,0c0,0,0,0,0,0c0,0,0,0,0,0s0,0,0,0c0,0,0,0,0,0
		s0,0,0,0c0,0,0,0,0,0c0,0,0,0,0,0c0,0,0,0,0,0c0,0,0,0,0,0c0,0,0,0,0,0c0,0,0,0,0.1,0h0c0,0,0,0,0.1,0h6.8c0.2,0,0.4-0.2,0.4-0.4
		V30.6C36.2,30.6,36.2,30.6,36.2,30.6z M29.4,31h5.3l-5.3,4V31z M35.4,35.4h-5.3l5.3-4V35.4z"/>
	<path class="st3" d="M54.4,30.6C54.4,30.5,54.4,30.5,54.4,30.6C54.4,30.5,54.4,30.5,54.4,30.6c0-0.1,0-0.1,0-0.1c0,0,0,0,0,0
		c0,0,0,0,0,0c0,0,0,0,0,0c0,0,0,0,0,0l0,0c0,0,0,0,0,0c0,0,0,0,0,0c0,0,0,0,0,0c0,0,0,0,0,0c0,0,0,0,0,0c0,0,0,0,0,0c0,0,0,0,0,0
		c0,0,0,0,0,0c0,0,0,0,0,0h-6.8c-0.2,0-0.4,0.2-0.4,0.4v5.2c0,0,0,0,0,0s0,0,0,0c0,0,0,0,0,0c0,0,0,0,0,0s0,0,0,0c0,0,0,0,0,0
		s0,0,0,0l0,0c0,0,0,0,0,0c0,0,0,0,0,0c0,0,0,0,0,0c0,0,0,0,0,0c0,0,0,0,0.1,0h0c0,0,0,0,0.1,0H54c0.2,0,0.4-0.2,0.4-0.4V30.6
		C54.4,30.6,54.4,30.6,54.4,30.6z M47.6,31h5.3l-5.3,4V31z M53.6,35.4h-5.3l3.6-2.8l1.6-1.3V35.4z"/>
	<path class="st3" d="M45.3,37.3C45.3,37.3,45.3,37.3,45.3,37.3C45.3,37.3,45.3,37.3,45.3,37.3c0-0.1,0-0.1,0-0.1c0,0,0,0,0,0
		c0,0,0,0,0,0c0,0,0,0,0,0s0,0,0,0l0,0c0,0,0,0,0,0c0,0,0,0,0,0c0,0,0,0,0,0c0,0,0,0,0,0c0,0,0,0,0,0c0,0,0,0,0,0c0,0,0,0,0,0
		c0,0,0,0,0,0c0,0,0,0,0,0h-6.8c-0.2,0-0.4,0.2-0.4,0.4v5.2v0c0,0,0,0,0,0c0,0,0,0,0,0c0,0,0,0,0,0c0,0,0,0,0,0c0,0,0,0,0,0
		c0,0,0,0,0,0c0,0,0,0,0,0l0,0c0,0,0,0,0,0c0,0,0,0,0,0c0,0,0,0,0,0c0,0,0,0,0,0c0,0,0,0,0.1,0h0c0,0,0,0,0.1,0h6.8
		c0.2,0,0.4-0.2,0.4-0.4L45.3,37.3z M38.5,37.7h5.3l-5.3,4V37.7z M44.5,42.2h-5.3l5.3-4V42.2z"/>
	<path class="st3" d="M18,37.3C18,37.3,18,37.3,18,37.3C18,37.3,18,37.3,18,37.3c0-0.1,0-0.1,0-0.1c0,0,0,0,0,0c0,0,0,0,0,0
		c0,0,0,0,0,0c0,0,0,0,0,0l0,0c0,0,0,0,0,0c0,0,0,0,0,0c0,0,0,0,0,0s0,0,0,0c0,0,0,0,0,0s0,0,0,0s0,0,0,0c0,0,0,0,0,0s0,0,0,0h-6.8
		c-0.2,0-0.4,0.2-0.4,0.4v5.2v0c0,0,0,0,0,0c0,0,0,0,0,0c0,0,0,0,0,0c0,0,0,0,0,0c0,0,0,0,0,0c0,0,0,0,0,0s0,0,0,0l0,0c0,0,0,0,0,0
		c0,0,0,0,0,0c0,0,0,0,0,0c0,0,0,0,0,0c0,0,0,0,0.1,0h0c0,0,0.1,0,0.1,0h6.8c0.2,0,0.4-0.2,0.4-0.4L18,37.3z M11.2,37.7h5.3l-5.3,4
		V37.7z M17.3,42.2H12l5.3-4L17.3,42.2L17.3,42.2z"/>
	<path class="st3" d="M54.4,37.3C54.4,37.3,54.4,37.3,54.4,37.3C54.4,37.3,54.4,37.3,54.4,37.3c0-0.1,0-0.1,0-0.1c0,0,0,0,0,0
		c0,0,0,0,0,0c0,0,0,0,0,0l0,0c0,0,0,0,0,0c0,0,0,0,0,0c0,0,0,0,0,0c0,0,0,0,0,0c0,0,0,0,0,0c0,0,0,0,0,0c0,0,0,0,0,0c0,0,0,0,0,0
		c0,0,0,0,0,0h-6.8c-0.2,0-0.4,0.2-0.4,0.4v5.2c0,0,0,0,0,0c0,0,0,0,0,0c0,0,0,0,0,0c0,0,0,0,0,0c0,0,0,0,0,0c0,0,0,0,0,0
		c0,0,0,0,0,0s0,0,0,0l0,0c0,0,0,0,0,0c0,0,0,0,0,0c0,0,0,0,0,0c0,0,0,0,0,0c0,0,0,0,0.1,0h0c0,0,0,0,0.1,0H54
		c0.2,0,0.4-0.2,0.4-0.4L54.4,37.3z M47.6,37.7h5.3l-5.3,4V37.7z M53.6,42.2h-5.3l5.3-4V42.2z"/>
	<path class="st3" d="M36.2,44.1C36.2,44.1,36.2,44.1,36.2,44.1C36.2,44.1,36.2,44.1,36.2,44.1c0-0.1,0-0.1,0-0.1c0,0,0,0,0,0
		c0,0,0,0,0,0c0,0,0,0,0,0c0,0,0,0,0,0l0,0c0,0,0,0,0,0l0,0c0,0,0,0,0,0c0,0,0,0,0,0c0,0,0,0,0,0c0,0,0,0,0,0c0,0,0,0,0,0
		c0,0,0,0,0,0c0,0,0,0,0,0H29c-0.2,0-0.4,0.2-0.4,0.4v5.2c0,0,0,0,0,0c0,0,0,0,0,0c0,0,0,0,0,0c0,0,0,0,0,0c0,0,0,0,0,0c0,0,0,0,0,0
		c0,0,0,0,0,0s0,0,0,0c0,0,0,0,0,0c0,0,0,0,0,0c0,0,0,0,0,0c0,0,0,0,0,0c0,0,0,0,0,0c0,0,0,0,0.1,0h0c0,0,0,0,0.1,0h6.8
		c0.2,0,0.4-0.2,0.4-0.4V44.1z M29.4,44.5h5.3l-5.3,4V44.5z M35.4,48.9h-5.3l5.3-4V48.9z"/>
	<path class="st3" d="M45.3,44.1C45.3,44.1,45.3,44.1,45.3,44.1C45.3,44.1,45.3,44.1,45.3,44.1c0-0.1,0-0.1,0-0.1c0,0,0,0,0,0
		c0,0,0,0,0,0c0,0,0,0,0,0s0,0,0,0l0,0c0,0,0,0,0,0c0,0,0,0,0,0c0,0,0,0,0,0c0,0,0,0,0,0c0,0,0,0,0,0c0,0,0,0,0,0c0,0,0,0,0,0
		c0,0,0,0,0,0c0,0,0,0,0,0h-6.8c-0.2,0-0.4,0.2-0.4,0.4v5.2c0,0,0,0,0,0c0,0,0,0,0,0c0,0,0,0,0,0c0,0,0,0,0,0c0,0,0,0,0,0
		c0,0,0,0,0,0c0,0,0,0,0,0c0,0,0,0,0,0l0,0c0,0,0,0,0,0c0,0,0,0,0,0c0,0,0,0,0,0c0,0,0,0,0,0c0,0,0,0,0.1,0h0c0,0,0,0,0.1,0h6.8
		c0.2,0,0.4-0.2,0.4-0.4L45.3,44.1z M38.5,44.5h5.3l-5.3,4V44.5z M44.5,48.9h-5.3l5.3-4V48.9z"/>
	<path class="st3" d="M18,50.9C18,50.9,18,50.9,18,50.9C18,50.8,18,50.8,18,50.9c0-0.1,0-0.1,0-0.1c0,0,0,0,0,0c0,0,0,0,0,0
		c0,0,0,0,0,0c0,0,0,0,0,0l0,0c0,0,0,0,0,0c0,0,0,0,0,0c0,0,0,0,0,0s0,0,0,0c0,0,0,0,0,0s0,0,0,0c0,0,0,0,0,0c0,0,0,0,0,0s0,0,0,0
		h-6.8c-0.2,0-0.4,0.2-0.4,0.4v5.2c0,0,0,0,0,0c0,0,0,0,0,0c0,0,0,0,0,0c0,0,0,0,0,0c0,0,0,0,0,0c0,0,0,0,0,0c0,0,0,0,0,0s0,0,0,0
		l0,0c0,0,0,0,0,0c0,0,0,0,0,0c0,0,0,0,0,0c0,0,0,0,0,0c0,0,0,0,0.1,0h0c0,0,0.1,0,0.1,0h6.8c0.2,0,0.4-0.2,0.4-0.4L18,50.9
		C18,50.9,18,50.9,18,50.9z M11.2,51.3h5.3l-5.3,4V51.3z M17.3,55.7H12l5.3-4L17.3,55.7L17.3,55.7z"/>
	<path class="st3" d="M36.2,50.9C36.2,50.9,36.2,50.9,36.2,50.9C36.2,50.8,36.2,50.8,36.2,50.9c0-0.1,0-0.1,0-0.1c0,0,0,0,0,0
		c0,0,0,0,0,0c0,0,0,0,0,0c0,0,0,0,0,0l0,0c0,0,0,0,0,0c0,0,0,0,0,0c0,0,0,0,0,0c0,0,0,0,0,0c0,0,0,0,0,0c0,0,0,0,0,0c0,0,0,0,0,0
		c0,0,0,0,0,0c0,0,0,0,0,0H29c-0.2,0-0.4,0.2-0.4,0.4v5.2c0,0,0,0,0,0c0,0,0,0,0,0c0,0,0,0,0,0c0,0,0,0,0,0c0,0,0,0,0,0c0,0,0,0,0,0
		c0,0,0,0,0,0s0,0,0,0c0,0,0,0,0,0c0,0,0,0,0,0c0,0,0,0,0,0c0,0,0,0,0,0c0,0,0,0,0,0c0,0,0,0,0.1,0h0c0,0,0,0,0.1,0h6.8
		c0.2,0,0.4-0.2,0.4-0.4V50.9C36.2,50.9,36.2,50.9,36.2,50.9z M29.4,51.3h5.3l-5.3,4V51.3z M35.4,55.7h-5.3l5.3-4V55.7z"/>
	<path class="st1" d="M80.6,59.4c6.8-6.8,6.8-17.7,0-24.5c-6.8-6.8-17.7-6.8-24.5,0c-6.8,6.8-6.8,17.7,0,24.5
		C62.9,66.2,73.9,66.2,80.6,59.4z"/>
	<g>
		<path class="st4" d="M78,27.4c-1.5-0.7-3-1.3-4.7-1.7c-0.3-0.1-0.5-0.1-0.8-0.2c-0.3,0-0.5-0.1-0.8-0.1c-1.1-0.2-2.2-0.3-3.4-0.3
			c-0.9,0-1.8,0-2.6,0.2c-0.3,0-0.5,0.1-0.8,0.1c-0.5,0.1-1,0.2-1.5,0.3c-0.3,0.1-0.5,0.1-0.8,0.2c-2.1,0.6-4.2,1.5-6,2.6
			c-0.3,0.2-0.5,0.3-0.8,0.5c-0.6,0.4-1.1,0.8-1.6,1.2c-0.8,0.7-1.6,1.5-2.3,2.3c-0.8,0.9-1.5,1.8-2.1,2.8c-0.2,0.2-0.3,0.5-0.5,0.8
			c-0.2,0.3-0.3,0.5-0.5,0.8c-0.1,0.2-0.3,0.5-0.4,0.8c-0.4,0.8-0.7,1.6-1,2.4c-0.3,0.9-0.5,1.7-0.7,2.6c-0.3,1.4-0.5,2.9-0.5,4.4
			c0,1.4,0.1,2.8,0.4,4.1c0.2,1,0.5,2,0.8,2.9c0.2,0.5,0.4,1,0.6,1.4c0.1,0.3,0.2,0.5,0.3,0.8c0.2,0.3,0.3,0.7,0.5,1
			c0.9,1.7,2,3.3,3.3,4.7c4,4.3,9.7,7,16.1,7c12.1,0,22-9.9,22-22C90.3,38.5,85.3,31,78,27.4z M68.4,64.5c-0.2,0-0.3,0-0.4,0
			s-0.3,0-0.5,0c-0.1,0-0.3,0-0.4,0c-0.1,0-0.3,0-0.4,0c-0.1,0-0.3,0-0.4,0s-0.3,0-0.4-0.1c-0.1,0-0.3,0-0.4-0.1c0,0,0,0-0.1,0
			c-0.1,0-0.3,0-0.4-0.1c-0.1,0-0.2,0-0.4-0.1c0,0-0.1,0-0.1,0c-0.2-0.1-0.5-0.1-0.7-0.2c0,0,0,0,0,0c-0.1,0-0.2,0-0.3-0.1
			c-0.1,0-0.2,0-0.2-0.1c-0.1,0-0.2-0.1-0.3-0.1c0,0,0,0,0,0c-0.1,0-0.2-0.1-0.3-0.1c-0.1,0-0.3-0.1-0.4-0.2c-0.1,0-0.1,0-0.2-0.1
			c-0.1,0-0.2-0.1-0.4-0.2c-0.1,0-0.2-0.1-0.3-0.1c-0.2-0.1-0.5-0.2-0.7-0.3c-0.1,0-0.2-0.1-0.2-0.1c-0.2-0.1-0.3-0.2-0.5-0.3
			c-0.1,0-0.2-0.1-0.2-0.1c-0.1-0.1-0.2-0.2-0.4-0.2c-0.1-0.1-0.2-0.2-0.4-0.2c-0.1-0.1-0.2-0.2-0.4-0.2c-0.1-0.1-0.2-0.2-0.4-0.2
			C58.1,61.1,58,61,57.9,61c0,0,0,0-0.1,0c-0.1-0.1-0.2-0.1-0.3-0.2c0,0,0,0-0.1,0c-0.1-0.1-0.2-0.2-0.3-0.2c0,0,0,0-0.1,0
			c-0.1-0.1-0.2-0.2-0.3-0.3v0c-0.1-0.1-0.2-0.2-0.3-0.3c0,0,0,0,0,0c-0.1-0.1-0.2-0.2-0.3-0.3c-0.1-0.1-0.2-0.2-0.3-0.3
			c-0.3-0.3-0.6-0.6-0.8-0.9c-0.1-0.1-0.1-0.2-0.2-0.2c-0.1-0.1-0.1-0.1-0.2-0.2c-0.1-0.1-0.1-0.2-0.2-0.2c0,0,0,0,0,0
			c-0.1-0.2-0.3-0.4-0.4-0.5c0-0.1-0.1-0.1-0.1-0.2c-0.1-0.1-0.1-0.2-0.2-0.3c0-0.1-0.1-0.2-0.2-0.2c0,0-0.1-0.1-0.1-0.2
			c0,0,0,0,0,0c0-0.1-0.1-0.1-0.1-0.2c0,0,0-0.1-0.1-0.1c0-0.1-0.1-0.2-0.1-0.3L53,55.3c0-0.1-0.1-0.2-0.1-0.2
			c0-0.1-0.1-0.2-0.2-0.3c0-0.1-0.1-0.2-0.1-0.3c0,0,0-0.1-0.1-0.2c0-0.1-0.1-0.1-0.1-0.2c0-0.1,0-0.1-0.1-0.2
			c-0.1-0.2-0.2-0.5-0.3-0.8c0-0.1,0-0.2-0.1-0.2c0,0,0-0.1,0-0.1c0-0.1-0.1-0.2-0.1-0.3c0-0.1-0.1-0.2-0.1-0.3
			c-0.1-0.3-0.2-0.6-0.2-0.9c0-0.1,0-0.2-0.1-0.3c0-0.1,0-0.2,0-0.2c0,0,0,0,0,0c0-0.1,0-0.1,0-0.2c0-0.1,0-0.2-0.1-0.4
			c0,0,0,0,0-0.1c0-0.1,0-0.2,0-0.3c0,0,0-0.1,0-0.1c0-0.1,0-0.2,0-0.3c0-0.1,0-0.2,0-0.2c0-0.3-0.1-0.7-0.1-1c0-0.3,0-0.6,0-0.9
			c0-0.1,0-0.3,0-0.4v-0.1c0-0.3,0-0.6,0-0.9c0-0.1,0-0.3,0-0.4c0-0.1,0-0.3,0-0.4c0-0.1,0-0.3,0.1-0.4c0-0.2,0.1-0.5,0.1-0.7
			c0-0.1,0-0.2,0.1-0.4c0,0,0-0.1,0-0.2c0-0.1,0-0.1,0-0.2c0-0.1,0-0.2,0.1-0.3c0,0,0,0,0,0c0-0.1,0.1-0.2,0.1-0.3c0,0,0,0,0,0
			c0-0.1,0.1-0.2,0.1-0.4c0-0.1,0-0.2,0.1-0.3c0,0,0,0,0,0c0-0.1,0.1-0.2,0.1-0.2c0,0,0-0.1,0-0.1c0-0.1,0.1-0.2,0.1-0.2
			c0,0,0-0.1,0-0.1c0-0.1,0.1-0.2,0.1-0.3c0,0,0-0.1,0-0.1c0-0.1,0.1-0.2,0.1-0.3c0.2-0.5,0.4-1,0.7-1.4c0-0.1,0.1-0.1,0.1-0.2
			c0.1-0.2,0.3-0.5,0.4-0.7c0.1-0.1,0.2-0.3,0.2-0.4c0-0.1,0.1-0.2,0.2-0.2c0.1-0.1,0.1-0.2,0.2-0.3c0-0.1,0.1-0.1,0.1-0.2
			c0.1-0.1,0.2-0.2,0.2-0.3c0.1-0.1,0.1-0.2,0.2-0.3c0.2-0.2,0.4-0.4,0.5-0.7c0.1-0.1,0.2-0.2,0.3-0.3c0.1-0.1,0.2-0.2,0.3-0.3
			c0.1-0.1,0.2-0.2,0.2-0.2c0,0,0,0,0.1-0.1c0.1-0.1,0.2-0.2,0.3-0.3c0.1-0.1,0.2-0.2,0.2-0.2c0,0,0.1-0.1,0.1-0.1c0,0,0,0,0,0
			c0.1-0.1,0.2-0.1,0.2-0.2c0.1-0.1,0.2-0.2,0.3-0.3c0,0,0,0,0,0c0.1-0.1,0.2-0.1,0.3-0.2c0,0,0,0,0.1,0c0.1-0.1,0.2-0.1,0.3-0.2
			c0,0,0,0,0,0c0.1-0.1,0.2-0.2,0.3-0.2c0,0,0,0,0.1,0c0.1-0.1,0.2-0.1,0.3-0.2c0.2-0.1,0.4-0.2,0.6-0.4c0.1,0,0.1-0.1,0.2-0.1
			c0.1,0,0.2-0.1,0.2-0.1c0.1,0,0.1-0.1,0.2-0.1c0.1,0,0.2-0.1,0.3-0.2c0.1-0.1,0.2-0.1,0.4-0.2c0.1,0,0.2-0.1,0.3-0.2
			c0.1,0,0.1-0.1,0.2-0.1c0,0,0,0,0,0c0.1,0,0.2-0.1,0.3-0.1c0.1,0,0.2-0.1,0.3-0.1c0,0,0.1,0,0.1,0c0.1,0,0.2-0.1,0.3-0.1
			c0.1,0,0.3-0.1,0.4-0.2c0.1,0,0.3-0.1,0.4-0.1c0.1,0,0.2-0.1,0.4-0.1c0,0,0.1,0,0.1,0c0.1,0,0.2-0.1,0.3-0.1c0,0,0.1,0,0.1,0
			c0.1,0,0.2-0.1,0.4-0.1c0.1,0,0.3-0.1,0.5-0.1c0.1,0,0.2,0,0.3-0.1c0,0,0.1,0,0.1,0c0.1,0,0.2,0,0.3-0.1c0,0,0.1,0,0.2,0
			c0.1,0,0.3,0,0.4-0.1c0.1,0,0.2,0,0.3,0c0,0,0.1,0,0.1,0c0.1,0,0.2,0,0.4,0c0,0,0,0,0,0c0.3,0,0.6,0,0.9-0.1c0.2,0,0.3,0,0.4,0
			c0.2,0,0.3,0,0.5,0s0.3,0,0.4,0c0.2,0,0.3,0,0.5,0c0.1,0,0.3,0,0.4,0c0.1,0,0.3,0,0.4,0h0c0.1,0,0.3,0,0.4,0c0.1,0,0.3,0,0.4,0.1
			c0,0,0,0,0,0c0.1,0,0.2,0,0.3,0c0.1,0,0.1,0,0.2,0c0.2,0,0.4,0.1,0.6,0.1c0.1,0,0.2,0,0.3,0.1c0.2,0,0.4,0.1,0.6,0.2
			c0.1,0,0.2,0,0.2,0.1c0,0,0,0,0,0c0,0,0,0,0,0c0.1,0,0.2,0.1,0.3,0.1c0,0,0,0,0.1,0c0.1,0,0.2,0.1,0.2,0.1
			c0.2,0.1,0.4,0.1,0.6,0.2c0.1,0,0.1,0.1,0.2,0.1c0.1,0,0.2,0.1,0.3,0.1c0.1,0,0.1,0,0.2,0.1c0.2,0.1,0.3,0.2,0.5,0.2
			c0.1,0,0.2,0.1,0.3,0.1c0.1,0,0.2,0.1,0.2,0.1c0.1,0,0.1,0.1,0.2,0.1c0,0,0.1,0,0.1,0.1c0.1,0,0.2,0.1,0.3,0.2
			c0.1,0,0.2,0.1,0.3,0.2c0.1,0,0.2,0.1,0.3,0.2c0.2,0.1,0.4,0.2,0.5,0.3c0.1,0,0.2,0.1,0.2,0.2c0.1,0,0.1,0.1,0.2,0.1
			c0.1,0.1,0.2,0.1,0.2,0.2c0.1,0,0.1,0.1,0.2,0.1c0.1,0,0.1,0.1,0.2,0.2c0,0,0.1,0.1,0.1,0.1c0.1,0.1,0.2,0.2,0.3,0.2
			c0.1,0.1,0.2,0.1,0.2,0.2c0.1,0.1,0.1,0.1,0.2,0.2c0.1,0.1,0.1,0.1,0.2,0.2c0.1,0.1,0.1,0.1,0.2,0.2c0.1,0.1,0.2,0.2,0.3,0.3l0,0
			c0.1,0.1,0.2,0.2,0.3,0.3c0.1,0.1,0.2,0.2,0.2,0.3c0,0,0,0,0.1,0.1c0.1,0.1,0.2,0.2,0.2,0.3c0,0,0,0,0,0c0.1,0.1,0.1,0.2,0.2,0.3
			c0,0,0,0,0,0c0.1,0.1,0.2,0.2,0.2,0.3c0.2,0.2,0.3,0.4,0.5,0.6c0,0,0.1,0.1,0.1,0.1c0.1,0.1,0.1,0.2,0.2,0.3c0,0,0,0,0,0
			c0.1,0.1,0.1,0.2,0.2,0.3c0,0,0,0,0,0c0.1,0.1,0.1,0.2,0.2,0.3c0,0,0,0,0,0c0.1,0.1,0.1,0.2,0.2,0.4c0.1,0.1,0.1,0.2,0.2,0.3
			c0,0,0,0,0,0.1c0.1,0.1,0.1,0.2,0.2,0.3c0,0,0,0.1,0,0.1c0,0.1,0.1,0.2,0.2,0.3c0.1,0.1,0.1,0.2,0.2,0.4c0.1,0.1,0.1,0.3,0.2,0.4
			c0,0.1,0.1,0.2,0.2,0.4c0,0,0,0,0,0c0,0.1,0.1,0.3,0.2,0.4c0,0.1,0.1,0.3,0.1,0.4c0,0.1,0.1,0.3,0.1,0.4c0,0.1,0.1,0.2,0.1,0.4
			c0,0,0,0.1,0,0.1c0,0.1,0.1,0.2,0.1,0.3v0c0,0.1,0.1,0.2,0.1,0.4c0,0,0,0,0,0.1c0,0.1,0,0.2,0.1,0.3c0,0,0,0.1,0,0.1
			c0,0.1,0,0.2,0.1,0.4c0,0.1,0,0.3,0.1,0.4c0,0.1,0,0.3,0.1,0.4c0,0,0,0.1,0,0.1c0,0.1,0,0.2,0,0.3c0,0,0,0,0,0c0,0.1,0,0.2,0,0.4
			c0,0,0,0,0,0.1c0,0.1,0,0.3,0,0.4c0,0.2,0,0.3,0,0.5c0,0.2,0,0.3,0,0.5C85.7,56.7,77.9,64.5,68.4,64.5z"/>
	</g>
	<path class="st5" d="M83.2,48c-0.2,0-0.4-0.1-0.5-0.2c0,0-0.1-0.1-0.1-0.1c0,0,0-0.1-0.1-0.1c0,0,0-0.1,0-0.1c0,0,0-0.1,0-0.2
		c0-0.2,0.1-0.4,0.2-0.5c0.2-0.2,0.4-0.3,0.7-0.2c0,0,0.1,0,0.1,0c0,0,0.1,0,0.1,0.1c0,0,0.1,0.1,0.1,0.1c0.1,0.1,0.2,0.3,0.2,0.5
		c0,0.2-0.1,0.4-0.2,0.5C83.6,47.9,83.4,48,83.2,48z"/>
	<path class="st4" d="M68.4,61.2c-0.4,0-0.8,0.3-0.8,0.8c0,0,0,0.1,0,0.1c0,0.2,0.1,0.3,0.2,0.4c0.1,0.1,0.3,0.2,0.5,0.2
		s0.4-0.1,0.5-0.2c0.1-0.1,0.2-0.2,0.2-0.4c0,0,0-0.1,0-0.1C69.1,61.6,68.8,61.2,68.4,61.2z M61.4,59.3c-0.1-0.1-0.2-0.1-0.4-0.1
		c-0.3,0-0.5,0.1-0.7,0.4c-0.2,0.4-0.1,0.9,0.3,1.1c0.1,0.1,0.2,0.1,0.4,0.1c0.1,0,0.3,0,0.4-0.1c0.1-0.1,0.2-0.2,0.3-0.3
		c0.1-0.1,0.1-0.2,0.1-0.4C61.8,59.7,61.6,59.5,61.4,59.3z M76.4,59.6c-0.1-0.2-0.4-0.4-0.7-0.4c-0.1,0-0.3,0-0.4,0.1
		c-0.4,0.2-0.5,0.7-0.3,1.1c0.1,0.1,0.2,0.2,0.3,0.3c0.1,0.1,0.2,0.1,0.4,0.1c0.1,0,0.3,0,0.4-0.1c0.2-0.1,0.4-0.4,0.4-0.7
		C76.5,59.9,76.5,59.7,76.4,59.6z M56.2,54.2c-0.1-0.2-0.4-0.4-0.7-0.4c-0.1,0-0.3,0-0.4,0.1c-0.4,0.2-0.5,0.7-0.3,1.1
		c0.1,0.1,0.2,0.2,0.3,0.3c0.1,0.1,0.2,0.1,0.4,0.1c0.1,0,0.3,0,0.4-0.1c0.2-0.1,0.4-0.4,0.4-0.7C56.3,54.5,56.3,54.3,56.2,54.2z
		 M81.6,53.9c-0.1-0.1-0.2-0.1-0.4-0.1c-0.3,0-0.5,0.1-0.7,0.4c-0.2,0.4-0.1,0.8,0.3,1.1c0.1,0.1,0.3,0.1,0.4,0.1
		c0.1,0,0.3,0,0.4-0.1c0.1-0.1,0.2-0.2,0.3-0.3c0.1-0.1,0.1-0.3,0.1-0.4C81.9,54.3,81.8,54.1,81.6,53.9z M54.1,46.7
		c-0.1-0.1-0.3-0.2-0.5-0.2c-0.4,0-0.8,0.3-0.8,0.8c0,0.2,0.1,0.4,0.2,0.5c0.1,0.1,0.3,0.2,0.5,0.2c0.4,0,0.8-0.3,0.8-0.8
		C54.4,47,54.3,46.8,54.1,46.7z M55.9,39.1c-0.1-0.1-0.2-0.1-0.4-0.1c-0.3,0-0.5,0.1-0.7,0.4c-0.2,0.4-0.1,0.8,0.3,1.1
		c0.1,0.1,0.3,0.1,0.4,0.1c0.1,0,0.3,0,0.4-0.1c0.1-0.1,0.2-0.2,0.3-0.3c0.1-0.1,0.1-0.3,0.1-0.4C56.3,39.5,56.2,39.3,55.9,39.1z
		 M61.6,34c-0.1-0.2-0.4-0.4-0.7-0.4c-0.1,0-0.3,0-0.4,0.1c-0.4,0.2-0.5,0.7-0.3,1.1c0.1,0.1,0.2,0.2,0.3,0.3
		c0.1,0.1,0.2,0.1,0.4,0.1c0.1,0,0.3,0,0.4-0.1c0.2-0.1,0.4-0.4,0.4-0.7C61.7,34.3,61.7,34.1,61.6,34z"/>
	<path class="st5" d="M68.4,33.2c0,0-0.1,0-0.2,0c0,0-0.1,0-0.1,0c0,0-0.1,0-0.1-0.1s-0.1-0.1-0.1-0.1s-0.1-0.1-0.1-0.1
		c0,0,0-0.1-0.1-0.1c0,0,0-0.1,0-0.1c0,0,0-0.1,0-0.2c0-0.1,0-0.1,0-0.2c0,0,0-0.1,0-0.1c0,0,0-0.1,0.1-0.1c0,0,0.1-0.1,0.1-0.1
		c0,0,0.1-0.1,0.1-0.1s0.1,0,0.1-0.1c0,0,0.1,0,0.1,0c0.1,0,0.2,0,0.3,0c0,0,0.1,0,0.1,0c0,0,0.1,0,0.1,0.1s0.1,0.1,0.1,0.1
		c0,0,0.1,0.1,0.1,0.1c0,0,0,0.1,0.1,0.1c0,0,0,0.1,0,0.1c0,0,0,0.1,0,0.2c0,0.1,0,0.1,0,0.2c0,0,0,0.1,0,0.1c0,0,0,0.1-0.1,0.1
		c0,0-0.1,0.1-0.1,0.1C68.8,33.1,68.6,33.2,68.4,33.2z"/>
	<path class="st2" d="M83.2,48c-0.4,0-0.8-0.3-0.8-0.8c0-7.7-6.3-14-14-14c-0.4,0-0.8-0.3-0.8-0.8s0.3-0.8,0.8-0.8
		c8.6,0,15.6,7,15.6,15.6C83.9,47.6,83.6,48,83.2,48z"/>
	<path class="st3" d="M78.4,53.1L69.5,47c0-0.2-0.2-0.4-0.3-0.6v-6.6c0-0.4-0.3-0.8-0.8-0.8c-0.4,0-0.8,0.3-0.8,0.8v6.6
		c-0.2,0.2-0.3,0.5-0.3,0.8c0,0.6,0.5,1.1,1.1,1.1c0.1,0,0.1,0,0.2,0l8.9,6.1c0.1,0.1,0.3,0.1,0.4,0.1c0.2,0,0.5-0.1,0.6-0.3
		C78.8,53.8,78.7,53.3,78.4,53.1z"/>
</g>
</svg>
