<svg width="100" height="80" viewBox="0 0 100 80" fill="none" xmlns="http://www.w3.org/2000/svg">
<rect opacity="0.3" width="100" height="80" rx="20" fill="#DDDDDD"/>
<path d="M87.9732 50.9875L86.5564 40.0157C86.4814 39.4367 86.2925 38.8783 86.0007 38.3727C85.7089 37.8671 85.3199 37.4244 84.8562 37.0701L77.9425 31.7883L74.1936 43.7049L82.7922 53.3121L87.9732 50.9875Z" fill="#EFA87F"/>
<path d="M75.3732 10H17.5359C16.1475 10 15.022 11.1266 15.022 12.5163V49.8567C15.022 51.2464 16.1475 52.373 17.5359 52.373H75.3732C76.7616 52.373 77.8871 51.2464 77.8871 49.8567V12.5163C77.8871 11.1266 76.7616 10 75.3732 10Z" fill="#002838"/>
<path d="M74.8562 12.8938H18.4951V49.3315H74.8562V12.8938Z" fill="#FF7352"/>
<path d="M55.0033 25.3776C57.008 27.9055 60.1346 29.2432 63.1961 30.2531C66.2576 31.2631 69.4588 32.0757 72.1125 33.9078C73.0698 34.569 73.9429 35.3528 74.8562 36.0734V12.8938H53.5521C52.3095 17.1292 52.2501 21.8973 55.0033 25.3776Z" fill="#FF7352"/>
<path d="M74.8562 12.8938H18.4951V16.5255H74.8562V12.8938Z" fill="#DDDDDD"/>
<path d="M64.3696 14.8162C64.3696 14.9801 64.321 15.1403 64.2299 15.2766C64.1389 15.4128 64.0094 15.5189 63.8581 15.5815C63.7067 15.644 63.5402 15.6602 63.3797 15.6279C63.2191 15.5957 63.0718 15.5164 62.9562 15.4003C62.8407 15.2841 62.7622 15.1362 62.7308 14.9754C62.6993 14.8145 62.7162 14.6479 62.7794 14.4967C62.8426 14.3455 62.9492 14.2165 63.0857 14.126C63.2222 14.0354 63.3825 13.9875 63.5463 13.9883C63.765 13.9893 63.9744 14.077 64.1287 14.2321C64.283 14.3873 64.3696 14.5973 64.3696 14.8162Z" fill="#002838"/>
<path d="M67.9692 14.8162C67.9692 14.98 67.9206 15.1402 67.8297 15.2764C67.7387 15.4125 67.6094 15.5187 67.4582 15.5813C67.3069 15.6439 67.1405 15.6602 66.98 15.6281C66.8195 15.596 66.6721 15.5169 66.5565 15.4009C66.4409 15.285 66.3623 15.1373 66.3306 14.9765C66.2989 14.8158 66.3156 14.6493 66.3785 14.498C66.4414 14.3468 66.5477 14.2176 66.6839 14.1269C66.8202 14.0361 66.9803 13.9879 67.144 13.9883C67.2525 13.9883 67.36 14.0097 67.4602 14.0513C67.5605 14.093 67.6515 14.154 67.7282 14.2309C67.8048 14.3078 67.8656 14.3991 67.9069 14.4995C67.9483 14.5999 67.9694 14.7076 67.9692 14.8162Z" fill="#4F32C3"/>
<path d="M71.5705 14.8162C71.5705 14.9799 71.522 15.14 71.4311 15.2762C71.3402 15.4123 71.2111 15.5184 71.0599 15.5811C70.9088 15.6438 70.7425 15.6601 70.582 15.6282C70.4216 15.5963 70.2742 15.5174 70.1585 15.4016C70.0428 15.2858 69.9641 15.1383 69.9322 14.9777C69.9002 14.8171 69.9166 14.6506 69.9792 14.4994C70.0418 14.3481 70.1478 14.2188 70.2839 14.1278C70.4199 14.0368 70.5798 13.9883 70.7434 13.9883C70.8521 13.988 70.9597 14.0093 71.0602 14.0508C71.1607 14.0923 71.252 14.1533 71.3288 14.2302C71.4057 14.3071 71.4666 14.3985 71.5081 14.4991C71.5495 14.5996 71.5708 14.7074 71.5705 14.8162Z" fill="#FF7352"/>
<path d="M42.9106 15.6422H22.1502C21.9313 15.6422 21.7214 15.5552 21.5667 15.4003C21.4119 15.2454 21.325 15.0353 21.325 14.8162C21.3247 14.7076 21.3459 14.5999 21.3872 14.4995C21.4286 14.3991 21.4893 14.3078 21.566 14.2309C21.6426 14.154 21.7337 14.093 21.8339 14.0513C21.9342 14.0097 22.0416 13.9883 22.1502 13.9883H42.9106C43.0192 13.988 43.1269 14.0093 43.2274 14.0508C43.3278 14.0923 43.4191 14.1533 43.496 14.2302C43.5728 14.3071 43.6337 14.3985 43.6752 14.4991C43.7167 14.5996 43.7379 14.7074 43.7377 14.8162C43.7377 14.9248 43.7163 15.0324 43.6747 15.1327C43.6331 15.2331 43.5721 15.3242 43.4953 15.4009C43.4185 15.4777 43.3273 15.5385 43.2269 15.5799C43.1266 15.6213 43.0191 15.6424 42.9106 15.6422Z" fill="white"/>
<path d="M48.4209 48.1032C46.7168 46.1081 44.0172 45.3454 41.4669 44.688L37.2873 43.5976C35.9642 43.2507 34.6259 42.9 33.4159 42.256C30.879 40.9145 29.1462 38.4576 27.672 35.9949C26.1977 33.5323 24.846 30.9259 22.7303 28.9883C21.6045 27.9515 20.0843 27.045 18.4951 26.6943V49.3316H49.2633C49.0264 48.8937 48.744 48.4819 48.4209 48.1032Z" fill="#FF7352"/>
<path d="M66.0048 20.8032H29.7014C28.8491 20.8032 28.1582 21.4948 28.1582 22.3479V42.649C28.1582 43.5021 28.8491 44.1937 29.7014 44.1937H66.0048C66.8571 44.1937 67.548 43.5021 67.548 42.649V22.3479C67.548 21.4948 66.8571 20.8032 66.0048 20.8032Z" fill="white"/>
<path d="M36.2781 33.9195C38.3644 33.9195 40.0556 32.2267 40.0556 30.1384C40.0556 28.0501 38.3644 26.3572 36.2781 26.3572C34.1918 26.3572 32.5005 28.0501 32.5005 30.1384C32.5005 32.2267 34.1918 33.9195 36.2781 33.9195Z" fill="#4F32C3"/>
<path d="M37.7639 29.065C37.7643 29.3428 37.6823 29.6145 37.5284 29.8457C37.3745 30.077 37.1556 30.2573 36.8993 30.364C36.643 30.4707 36.3609 30.4989 36.0885 30.445C35.8162 30.3912 35.566 30.2577 35.3694 30.0616C35.1729 29.8654 35.0389 29.6152 34.9844 29.3428C34.9299 29.0704 34.9573 28.7879 35.0631 28.5311C35.169 28.2742 35.3486 28.0546 35.5792 27.8999C35.8097 27.7452 36.081 27.6625 36.3585 27.6621C36.5428 27.6619 36.7254 27.6979 36.8958 27.7683C37.0661 27.8387 37.221 27.9419 37.3515 28.0722C37.482 28.2025 37.5856 28.3572 37.6563 28.5275C37.7271 28.6979 37.7636 28.8805 37.7639 29.065Z" fill="white"/>
<path d="M34.0093 33.1452C34.0093 32.5353 34.2513 31.9503 34.6822 31.519C35.1131 31.0878 35.6975 30.8455 36.3068 30.8455C36.9162 30.8455 37.5006 31.0878 37.9315 31.519C38.3623 31.9503 38.6044 32.5353 38.6044 33.1452C38.6044 33.1452 37.5494 34.0421 36.2743 34.0651C34.9991 34.0881 34.0093 33.1452 34.0093 33.1452Z" fill="white"/>
<path d="M62.6791 26.4299H42.4567C42.1659 26.4299 41.9302 26.6659 41.9302 26.957V28.8811C41.9302 29.1722 42.1659 29.4081 42.4567 29.4081H62.6791C62.9699 29.4081 63.2056 29.1722 63.2056 28.8811V26.957C63.2056 26.6659 62.9699 26.4299 62.6791 26.4299Z" fill="#DDDDDD"/>
<path d="M62.6791 30.6233H42.4567C42.1659 30.6233 41.9302 30.8592 41.9302 31.1503V33.0744C41.9302 33.3655 42.1659 33.6015 42.4567 33.6015H62.6791C62.9699 33.6015 63.2056 33.3655 63.2056 33.0744V31.1503C63.2056 30.8592 62.9699 30.6233 62.6791 30.6233Z" fill="#DDDDDD"/>
<path d="M41.5338 37.5742H34.9915C34.3021 37.5742 33.7432 38.1337 33.7432 38.8238V39.2665C33.7432 39.9566 34.3021 40.516 34.9915 40.516H41.5338C42.2233 40.516 42.7822 39.9566 42.7822 39.2665V38.8238C42.7822 38.1337 42.2233 37.5742 41.5338 37.5742Z" fill="#4F32C3"/>
<path d="M60.7147 37.5742H54.1724C53.483 37.5742 52.9241 38.1337 52.9241 38.8238V39.2665C52.9241 39.9566 53.483 40.516 54.1724 40.516H60.7147C61.4042 40.516 61.9631 39.9566 61.9631 39.2665V38.8238C61.9631 38.1337 61.4042 37.5742 60.7147 37.5742Z" fill="#FF7352"/>
<g style="mix-blend-mode:multiply" opacity="0.22">
<path d="M67.9156 40.8762C67.9156 40.8762 66.9239 43.3044 68.4115 45.0694C69.8992 46.8345 72.214 47.442 72.214 47.442C72.214 47.442 71.7736 51.2481 73.426 52.2964H77.0638L77.395 44.3048L67.9156 40.8762Z" fill="#2F2D4F"/>
</g>
<path d="M80.2134 58.0075L79.369 55.3245C79.3485 55.2604 79.3142 55.2017 79.2686 55.1523C79.2229 55.103 79.167 55.0643 79.1048 55.0389L75.938 53.7721C73.0316 52.6088 73.1369 48.0496 73.2211 46.8307C73.2269 46.7405 73.2057 46.6507 73.1604 46.5725C73.1151 46.4944 73.0476 46.4315 72.9665 46.3918L69.6446 44.7724C68.5111 44.2205 67.5825 42.7352 67.5825 41.4723C67.5825 40.1518 68.5992 39.437 69.8399 39.8854L78.3102 42.9422C78.408 42.9778 78.4909 43.0453 78.5457 43.1338L82.9877 50.5965C83.0419 50.6842 83.1243 50.7509 83.2213 50.7858C83.3183 50.8206 83.4243 50.8214 83.5219 50.7882L87.2745 49.5444C87.335 49.5244 87.3989 49.5173 87.4623 49.5235C87.5256 49.5298 87.587 49.5492 87.6423 49.5806C87.6977 49.6121 87.7459 49.6547 87.7838 49.7059C87.8217 49.7571 87.8484 49.8157 87.8623 49.8779L89.6142 57.7603C89.6288 57.8268 89.6283 57.8958 89.6128 57.9621C89.5972 58.0284 89.5671 58.0904 89.5245 58.1436C89.4819 58.1967 89.4279 58.2396 89.3666 58.2691C89.3052 58.2986 89.2381 58.314 89.17 58.3142H80.648C80.5525 58.3153 80.4591 58.2863 80.3811 58.2312C80.3031 58.1762 80.2444 58.0979 80.2134 58.0075Z" fill="#EFA87F"/>
<path d="M89.4736 55.8733L79.1322 57.5183C78.561 57.6092 78.1715 58.1464 78.2623 58.7182L78.5045 60.2437C78.5953 60.8155 79.1319 61.2054 79.7032 61.1145L90.0446 59.4695C90.6158 59.3786 91.0053 58.8414 90.9145 58.2696L90.6723 56.7441C90.5815 56.1723 90.0448 55.7824 89.4736 55.8733Z" fill="white"/>
<path d="M94.9999 77.9999L91.7431 58.0745L77.4465 60.3512L80.3453 77.9999H94.9999Z" fill="#4F32C3"/>
<g style="mix-blend-mode:multiply" opacity="0.22">
<path d="M34.9935 37.7888L27.0305 52.3731H32.0813C33.3048 48.6437 35.3879 42.2963 35.9489 40.6635C36.7569 38.3082 34.9935 37.7888 34.9935 37.7888Z" fill="#2F2D4F"/>
</g>
<path d="M18.0909 59.9794L18.4738 57.2561C18.5304 56.8535 18.4495 56.4435 18.2441 56.0928C17.8611 55.4488 17.3116 54.2894 17.3901 53.1817C17.5069 51.5316 19.994 46.1444 19.994 46.1444C19.994 46.1444 20.5837 44.847 21.9967 44.847C22.8947 44.847 24.9778 45.4219 26.3793 45.8339C26.7736 45.9511 27.1961 45.9285 27.5756 45.77C27.9551 45.6115 28.2684 45.3267 28.4625 44.9639L32.2917 37.4897C32.405 37.2779 32.5597 37.0911 32.7467 36.9405C32.9337 36.79 33.1491 36.6787 33.38 36.6134C33.6109 36.5481 33.8527 36.5301 34.0907 36.5605C34.3288 36.5908 34.5583 36.669 34.7655 36.7901C35.1175 36.9905 35.3911 37.3046 35.5414 37.681C35.6917 38.0575 35.7097 38.4738 35.5926 38.8618L31.4972 52.0241C31.4093 52.3085 31.3939 52.6105 31.4524 52.9023C31.511 53.1942 31.6415 53.4668 31.8322 53.6953C32.2611 54.2127 32.7206 55.0176 32.5981 56.0065C32.4239 57.3136 30.1301 58.6896 28.943 59.3105C28.7208 59.4279 28.5259 59.5911 28.3711 59.7892C28.2163 59.9874 28.1052 60.2162 28.0451 60.4604L27.6105 62.2446C27.5544 62.4757 27.4529 62.6933 27.3117 62.8846C27.1706 63.0759 26.9927 63.237 26.7885 63.3586C26.5843 63.4802 26.3579 63.5597 26.1226 63.5925C25.8873 63.6253 25.6478 63.6108 25.4182 63.5497L19.4101 61.9495C18.9874 61.8395 18.6198 61.5783 18.3767 61.2152C18.1335 60.8521 18.0319 60.4124 18.0909 59.9794Z" fill="#EFA87F"/>
<path d="M17.2505 63.7283L27.5919 65.3733C28.1631 65.4642 28.6998 65.0743 28.7906 64.5025L29.0328 62.977C29.1236 62.4052 28.7341 61.868 28.1629 61.7772L17.8215 60.1321C17.2502 60.0413 16.7136 60.4311 16.6228 61.0029L16.3806 62.5284C16.2898 63.1002 16.6793 63.6374 17.2505 63.7283Z" fill="white"/>
<path d="M27.6584 78L29.8564 64.6174L15.5599 62.3425L13 78H27.6584Z" fill="#4F32C3"/>
<path d="M0 0V-1H-1V0H0ZM100 0H101V-1H100V0ZM100 80V81H101V80H100ZM0 80H-1V81H0V80ZM0 1H100V-1H0V1ZM99 0V80H101V0H99ZM100 79H0V81H100V79ZM1 80V0H-1V80H1Z" fill="white"/>
</svg>
