<svg xmlns="http://www.w3.org/2000/svg" xmlns:xlink="http://www.w3.org/1999/xlink" viewBox="0 0 3500 2000"><defs><clipPath id="a"><path d="M785.25,277.13c-142.83,0-258.62,115.79-258.62,258.62S642.42,794.38,785.25,794.38s258.63-115.79,258.63-258.63S928.09,277.13,785.25,277.13Zm0,395.63a137,137,0,1,1,137-137A137,137,0,0,1,785.25,672.76Z" style="fill:none"/></clipPath></defs><rect width="3500" height="2000" style="fill:#fff"/><path d="M404.64,1717.27S54.25,1438.73,247.17,1053s-76-519.3,111.08-598.75,290.55,93.6,808.46-50.16S2725.14,21.52,2962.81,199.31,2520.74,865.48,2841.9,861.79c649.87-7.47,527.37,660.77,213,876.4C2895.54,1847.53,404.64,1717.27,404.64,1717.27Z" style="fill:#e7f3fe"/><path d="M3243.69,1752.52c-479.85-195.16-2763-110-2911.17-52.06s28.85,96.89,410.09,75.46,871.77,2.38,1293.1,13.86S3554.76,1879,3243.69,1752.52Z" style="fill:#9bd6e8"/><path d="M2635.5,635a345.72,345.72,0,0,0,2.15-38.29c0-6.84-.22-13.61-.62-20.35l-63.28-20.47a278,278,0,0,0-22.4-75.82l42-51.63a342.81,342.81,0,0,0-33.24-48.31l-63.28,20.65a281.88,281.88,0,0,0-62.65-48.16l3.6-66.49a339.31,339.31,0,0,0-55.25-19.57l-39.08,53.92a281.26,281.26,0,0,0-79-2.07l-36.18-55.92a337.93,337.93,0,0,0-56.2,16.61l.08,66.59A280.57,280.57,0,0,0,2107,390.52l-62.09-24a342.32,342.32,0,0,0-35.75,46.49l39.18,53.78a278.14,278.14,0,0,0-26.42,74.52l-64.26,17.1a346,346,0,0,0-2.15,38.3c0,6.83.22,13.61.62,20.34l63.28,20.47a277.92,277.92,0,0,0,22.4,75.82l-42,51.63a342.24,342.24,0,0,0,33.24,48.31l63.29-20.65A281,281,0,0,0,2159,840.83l-3.6,66.49a338.4,338.4,0,0,0,55.25,19.58L2249.75,873a281.26,281.26,0,0,0,79,2.07L2364.92,931a337.77,337.77,0,0,0,56.21-16.61l-.08-66.58A280.57,280.57,0,0,0,2486.16,803l62.09,23.95A342.23,342.23,0,0,0,2584,780.45l-39.18-53.79a278.14,278.14,0,0,0,26.42-74.52Zm-338.92,95.48a133.78,133.78,0,1,1,133.78-133.77A133.78,133.78,0,0,1,2296.58,730.52Z" style="fill:#9ec8ff"/><path d="M2479,749.32a5,5,0,0,1-3.85-8.2,226.33,226.33,0,0,0,39.88-218,5,5,0,0,1,9.46-3.25,236.36,236.36,0,0,1-41.65,227.64A5,5,0,0,1,2479,749.32Z" style="fill:#fff"/><path d="M2459.67,433.58a5,5,0,0,1-3.43-1.36,224.49,224.49,0,0,0-77.78-47.93,5,5,0,1,1,3.41-9.4,234.49,234.49,0,0,1,81.23,50.05,5,5,0,0,1-3.43,8.64Z" style="fill:#fff"/><path d="M2244.69,377.82a5,5,0,0,1-1.22-9.85,237,237,0,0,1,57.92-7.16,5,5,0,0,1,0,10,226.86,226.86,0,0,0-55.47,6.86A5.17,5.17,0,0,1,2244.69,377.82Z" style="fill:#fff"/><path d="M3084.59,722.24a237.18,237.18,0,0,0,1.49-26.53q0-7.1-.43-14.09l-43.82-14.18a192.72,192.72,0,0,0-15.52-52.51l29.06-35.77a237.15,237.15,0,0,0-23-33.46L2988.51,560a194.74,194.74,0,0,0-43.39-33.35l2.49-46A234.68,234.68,0,0,0,2909.35,467l-27.07,37.36a194.81,194.81,0,0,0-32.44-2.72,197.63,197.63,0,0,0-22.28,1.28l-25.06-38.73a235,235,0,0,0-38.93,11.5l.06,46.13a194,194,0,0,0-45.1,31l-43-16.6a237.69,237.69,0,0,0-24.77,32.2l27.14,37.26a192.93,192.93,0,0,0-18.3,51.61l-44.51,11.85a239.41,239.41,0,0,0-1.49,26.52c0,4.73.16,9.43.43,14.09L2657.86,724a192.89,192.89,0,0,0,15.52,52.52l-29.06,35.76a236.57,236.57,0,0,0,23,33.46l43.83-14.3a194.72,194.72,0,0,0,43.4,33.35l-2.5,46.06a235.37,235.37,0,0,0,38.27,13.56L2817.4,887a195.12,195.12,0,0,0,54.72,1.43l25.06,38.73a234.42,234.42,0,0,0,38.93-11.5l-.05-46.12a194.87,194.87,0,0,0,45.1-31l43,16.59a237,237,0,0,0,24.76-32.2l-27.13-37.26a192.44,192.44,0,0,0,18.29-51.61Zm-234.75,66.13a92.66,92.66,0,1,1,92.66-92.66A92.67,92.67,0,0,1,2849.84,788.37Z" style="fill:#9ec8ff"/><path d="M2976.22,802.92a5,5,0,0,1-3.84-8.19,155.25,155.25,0,0,0,27.34-149.51,5,5,0,0,1,9.46-3.25,165.26,165.26,0,0,1-29.11,159.15A5,5,0,0,1,2976.22,802.92Z" style="fill:#fff"/><path d="M2962.8,584.23a5,5,0,0,1-3.42-1.36A154.11,154.11,0,0,0,2906,550a5,5,0,0,1,3.41-9.4,164,164,0,0,1,56.79,35,5,5,0,0,1-3.43,8.64Z" style="fill:#fff"/><path d="M2813.9,545.61a5,5,0,0,1-1.22-9.85,165.78,165.78,0,0,1,40.5-5,5,5,0,0,1,0,10,155.7,155.7,0,0,0-38,4.71A5.17,5.17,0,0,1,2813.9,545.61Z" style="fill:#fff"/><g style="clip-path:url(#a)"><path d="M1019,678.69,785.25,535.75,743,806.46C852.78,823.77,961.68,772.32,1019,678.69Z" style="fill:#a2dff2"/><path d="M1019.25,678.37c.63-1,1.45-2.45,1.42-2.4a274,274,0,0,0,6.06-269.71c-82.71,43.34-33.46,17-241.48,129.49C1019.38,678.93,983,656.85,1019.25,678.37Z" style="fill:#9cd499"/><path d="M528.3,441.07l257,94.68,241-130.34C913.54,196.9,610.05,221.91,528.3,441.07Z" style="fill:#9ec8ff"/><path d="M743,806.46l42.28-270.71-257-94.68C467.2,604.88,575.65,780.09,743,806.46Z" style="fill:#f39892"/><path d="M1031.37,675.6a284.17,284.17,0,0,0,7.09-266.43l.15-.08-4.32-8-.27-.48-3.54-6.58-.13.07c-27.28-47.39-66.17-85.18-112.94-109.55C871.6,260.69,819.53,250,766.79,253.67c-109.86,7.63-202.43,74.7-243.69,175.8l-.15-.06-3.16,8.49-3.19,8.55.15.05c-25.83,76.73-17.27,160.41,24,231,41.92,71.76,111.5,121.07,191.9,136.39l0,.16,9,1.41,9,1.42,0-.16a283.28,283.28,0,0,0,271.57-126l.19.11,1.78-2.91,0,0,2.86-4.78c.44-.72,1-1.63,1.28-2.15l.19-.32.14-.24,2.88-4.71ZM1004,428.44l18.88-9.88A266,266,0,0,1,1016,665.88l-1.73-1c-9.55-5.66-13.7-8.12-32.73-19.72L803.47,536.24,951.31,456.3C973,444.62,981.91,440,1004,428.44Zm-463.81,7.31c38.74-94.3,125.26-156.81,227.9-163.94,101.41-7.05,194.76,42.59,245.79,130l-71.19,38.5c-14.69,7.91-35.24,19-69.64,37.63l-85.28,46.14-2.2,1.19-7.16-4.38-.39,2.5L665.41,481.9Zm16.26,232.56c-38.48-65.86-46.56-143.91-22.61-215.52l169.26,62.37,72.06,26.55-39.7,254.2C660.44,781.44,595.56,735.33,556.41,668.31Zm197,130.43,38.75-248.12L893,612.3c40.67,24.87,63.93,39.1,78.57,48l34.82,21.29A263.85,263.85,0,0,1,753.38,798.74Z" style="fill:#e7f3fe"/></g><circle cx="1501.68" cy="962.55" r="742" style="fill:#2e5b9a"/><circle cx="1500.7" cy="970.33" r="599.35" style="fill:#232e4f"/><circle cx="1501.68" cy="952.83" r="569.23" style="fill:#fff"/><path d="M1501.7,972.83a20,20,0,0,1-10-37.35l215.62-123.74a20,20,0,1,1,19.91,34.69L1511.63,970.18A19.91,19.91,0,0,1,1501.7,972.83Z" style="fill:#3e6bab"/><path d="M1501.69,967.83a15,15,0,0,1-13-7.58l-165.45-291a15,15,0,1,1,26.07-14.83l165.46,290.95a15,15,0,0,1-13,22.41Z" style="fill:#f37168"/><path d="M1529.2,952.83a27.53,27.53,0,1,1-27.52-27.52A27.53,27.53,0,0,1,1529.2,952.83Z" style="fill:#212d51"/><path d="M1472.41,567.28h-26v-86h-25V462.92l51-7.86Z" style="fill:#212d51"/><path d="M1587,567.28h-78.48V550.33l36-37.89a75.7,75.7,0,0,0,10.09-14q3.24-6.17,3.24-10.71,0-6.47-3.28-10.32t-9.81-3.85a10.52,10.52,0,0,0-9.21,5q-3.35,5-3.35,12.67h-25.41l-.16-.47a35,35,0,0,1,10.17-26.37q10.55-10.83,28-10.83,18.48,0,28.84,9.09T1584,487.49a32.82,32.82,0,0,1-5.51,18.79q-5.51,8.16-20.29,24.26L1543,546.79l.23.46H1587Z" style="fill:#212d51"/><path d="M1509,1316.82a56.39,56.39,0,0,1,11.79,1.11,73.57,73.57,0,0,1,11.39,3.59l-4.31,18.94c-3.59-1.08-6.74-1.88-9.43-2.42a47.63,47.63,0,0,0-9.28-.81q-9.24,0-14.83,6.51t-5.35,19l.23.39a22.42,22.42,0,0,1,9-6,35.47,35.47,0,0,1,12.79-2.16q15,0,23.37,10.82t8.36,27.69q0,16.63-11.06,27.69t-28.22,11q-18.42,0-29.73-12.09T1462.4,1387v-22.56q0-22.18,13-34.89T1509,1316.82Zm-5.16,58.15a26.52,26.52,0,0,0-9.28,1.45,14.7,14.7,0,0,0-6.12,4.07v6.59q0,12.12,4,18.6t11,6.49q5.85,0,9.55-5.53a23,23,0,0,0,3.69-13.11q0-8.52-3.58-13.54A10.92,10.92,0,0,0,1503.83,1375Z" style="fill:#212d51"/><path d="M1044.32,980.52a16.61,16.61,0,0,0,12.86-5.59q5.08-5.58,5.09-15.44v-4.93a25,25,0,0,1-8.78,7,24.67,24.67,0,0,1-10.63,2.35q-15.33,0-24-10.36t-8.67-28.3q0-16.71,10.94-28.38t28.19-11.67q16.93,0,27.92,12.25t11,33.65v26.65q0,19.41-12.47,31.12t-31.43,11.7a59.33,59.33,0,0,1-12-1.27,66,66,0,0,1-11.83-3.58l2.7-18.56a70,70,0,0,0,10.2,2.58A66.11,66.11,0,0,0,1044.32,980.52Zm4.24-35.35a19.52,19.52,0,0,0,7.89-1.54,16,16,0,0,0,5.82-4.24V927.84q0-11-3.66-16.83t-9.36-5.81q-6,0-9.51,6.08a27.39,27.39,0,0,0-3.5,13.94q0,9.24,3.08,14.59A10,10,0,0,0,1048.56,945.17Z" style="fill:#212d51"/><path d="M1938.62,932h12.24q7,0,10.79-3.78t3.77-10.47a12.56,12.56,0,0,0-3.39-8.93q-3.39-3.63-9.86-3.62a14.35,14.35,0,0,0-8.93,2.92,9.07,9.07,0,0,0-3.85,7.55h-25.26l-.16-.46q-.46-13.41,10.55-21.72t26.73-8.32q18.26,0,29.19,8.36t10.93,23.68a23.2,23.2,0,0,1-4.73,14.06A31.85,31.85,0,0,1,1974,941.32a30.09,30.09,0,0,1,14.09,10,26,26,0,0,1,5.09,16.13q0,15.4-11.79,24.22t-30.11,8.82q-15.8,0-27.61-8.28t-11.44-24l.15-.46h25.42a11.54,11.54,0,0,0,4.2,9.05,15,15,0,0,0,10.2,3.66q6.86,0,10.94-3.85a12.78,12.78,0,0,0,4.08-9.71q0-8.16-4.27-11.9t-12.06-3.73h-12.24Z" style="fill:#212d51"/><path d="M2776,1113.13a83.88,83.88,0,1,1,83.88-83.88A84,84,0,0,1,2776,1113.13Zm0-147.76a63.88,63.88,0,1,0,63.88,63.88A63.95,63.95,0,0,0,2776,965.37Z" style="fill:#9bd6e8"/><path d="M2670.76,1113.13a83.88,83.88,0,1,1,83.88-83.88A84,84,0,0,1,2670.76,1113.13Zm0-147.76a63.88,63.88,0,1,0,63.88,63.88A64,64,0,0,0,2670.76,965.37Z" style="fill:#9bd6e8"/><path d="M2556.65,1113.13a83.88,83.88,0,1,1,83.87-83.88A84,84,0,0,1,2556.65,1113.13Zm0-147.76a63.88,63.88,0,1,0,63.87,63.88A64,64,0,0,0,2556.65,965.37Z" style="fill:#9bd6e8"/><path d="M2451.44,1113.13a83.88,83.88,0,1,1,83.88-83.88A84,84,0,0,1,2451.44,1113.13Zm0-147.76a63.88,63.88,0,1,0,63.88,63.88A64,64,0,0,0,2451.44,965.37Z" style="fill:#9bd6e8"/><path d="M2342.13,1113.13a83.88,83.88,0,1,1,83.87-83.88A84,84,0,0,1,2342.13,1113.13Zm0-147.76a63.88,63.88,0,1,0,63.87,63.88A64,64,0,0,0,2342.13,965.37Z" style="fill:#9bd6e8"/><path d="M2236.92,1113.13a83.88,83.88,0,1,1,83.88-83.88A84,84,0,0,1,2236.92,1113.13Zm0-147.76a63.88,63.88,0,1,0,63.88,63.88A64,64,0,0,0,2236.92,965.37Z" style="fill:#9bd6e8"/><path d="M2119.37,1113.13a83.88,83.88,0,1,1,83.87-83.88A84,84,0,0,1,2119.37,1113.13Zm0-147.76a63.88,63.88,0,1,0,63.87,63.88A64,64,0,0,0,2119.37,965.37Z" style="fill:#9bd6e8"/><path d="M2861,1752.52H1695.23c-13.33,0-22.11-10.81-19.61-24.13l126.67-675c2.5-13.33,15.33-24.13,28.66-24.13H2996.74c13.33,0,22.1,10.8,19.6,24.13l-126.66,675C2887.18,1741.71,2874.35,1752.52,2861,1752.52Z" style="fill:#212d51"/><path d="M2882.83,1752.52H1717c-13.33,0-22.11-10.81-19.6-24.13l126.66-675c2.5-13.33,15.33-24.13,28.66-24.13H3018.55c13.33,0,22.1,10.8,19.6,24.13l-126.66,675C2909,1741.71,2896.16,1752.52,2882.83,1752.52Z" style="fill:#2e5b9a"/><path d="M3118.05,1752.52H1952.25c-13.32,0-26-10.81-28.38-24.13l-119-675c-2.35-13.33,6.55-24.13,19.87-24.13h1165.8c13.32,0,26,10.8,28.38,24.13l119,675C3140.28,1741.71,3131.38,1752.52,3118.05,1752.52Z" style="fill:#212d51"/><path d="M3142.35,1752.52H1976.56c-13.33,0-26-10.81-28.39-24.13l-119-675c-2.35-13.33,6.55-24.13,19.88-24.13H3014.82c13.33,0,26,10.8,28.39,24.13l119,675C3164.58,1741.71,3155.68,1752.52,3142.35,1752.52Z" style="fill:#3e6bab"/><path d="M2831.34,1095.18c4,11.22.51,20.32-7.84,20.32s-18.39-9.1-22.41-20.32-.5-20.32,7.85-20.32S2827.32,1084,2831.34,1095.18Z" style="fill:#212d51"/><path d="M2724.59,1095.18c4,11.22.5,20.32-7.85,20.32s-18.38-9.1-22.4-20.32-.51-20.32,7.84-20.32S2720.57,1084,2724.59,1095.18Z" style="fill:#212d51"/><path d="M2606.06,1095.18c4,11.22.51,20.32-7.85,20.32s-18.38-9.1-22.4-20.32-.51-20.32,7.84-20.32S2602,1084,2606.06,1095.18Z" style="fill:#212d51"/><path d="M2499.3,1095.18c4,11.22.51,20.32-7.84,20.32s-18.39-9.1-22.41-20.32-.51-20.32,7.85-20.32S2495.28,1084,2499.3,1095.18Z" style="fill:#212d51"/><path d="M2396.12,1097.08c4,11.23.5,20.33-7.85,20.33s-18.39-9.1-22.41-20.33-.5-20.32,7.85-20.32S2392.09,1085.86,2396.12,1097.08Z" style="fill:#212d51"/><path d="M2294.92,1097.08c4,11.23.5,20.33-7.85,20.33s-18.39-9.1-22.41-20.33-.5-20.32,7.85-20.32S2290.89,1085.86,2294.92,1097.08Z" style="fill:#212d51"/><path d="M2182.15,1097.08c4,11.23.51,20.33-7.84,20.33s-18.39-9.1-22.41-20.33-.51-20.32,7.85-20.32S2178.13,1085.86,2182.15,1097.08Z" style="fill:#212d51"/><path d="M2811.25,1104.18a10,10,0,0,1-4.79-18.78,63.89,63.89,0,0,0-30.5-120,10,10,0,0,1,0-20A83.89,83.89,0,0,1,2816,1103,9.93,9.93,0,0,1,2811.25,1104.18Z" style="fill:#9bd6e8"/><path d="M2705.6,1104.42a10,10,0,0,1-4.73-18.82,63.89,63.89,0,0,0-27-120.16,10,10,0,1,1,.94-20,83.88,83.88,0,0,1,35.55,157.76A9.89,9.89,0,0,1,2705.6,1104.42Z" style="fill:#9bd6e8"/><path d="M2588.08,1106.13a10,10,0,0,1-4.26-19.05,63.89,63.89,0,0,0-24.18-121.64,10,10,0,0,1,.92-20,83.89,83.89,0,0,1,31.78,159.71A10,10,0,0,1,2588.08,1106.13Z" style="fill:#9bd6e8"/><path d="M2480.75,1107.09a10,10,0,0,1-4-19.18,63.89,63.89,0,0,0-22.35-122.47,10,10,0,0,1,.92-20,83.89,83.89,0,0,1,29.37,160.8A10,10,0,0,1,2480.75,1107.09Z" style="fill:#9bd6e8"/><path d="M2375.48,1105.2a10,10,0,0,1-4.53-18.93,63.89,63.89,0,0,0-25.49-120.81,10,10,0,0,1,1-20,83.89,83.89,0,0,1,33.5,158.63A9.89,9.89,0,0,1,2375.48,1105.2Z" style="fill:#9bd6e8"/><path d="M2273.76,1103.31a10,10,0,0,1-5-18.67,63.89,63.89,0,0,0-25.78-119,10,10,0,0,1,1.87-19.91,83.89,83.89,0,0,1,33.9,156.23A9.91,9.91,0,0,1,2273.76,1103.31Z" style="fill:#9bd6e8"/><path d="M2159.85,1101.06a10,10,0,0,1-5.49-18.36,63.89,63.89,0,0,0-26.73-116.8,10,10,0,0,1,2.56-19.83,83.89,83.89,0,0,1,35.14,153.35A9.94,9.94,0,0,1,2159.85,1101.06Z" style="fill:#9bd6e8"/><path d="M3104.34,1730.35H2006.75c-11.61,0-22.68-9.41-24.73-21l-95.7-542.75c-2-11.61,5.7-21,17.31-21h1097.6c11.61,0,22.68,9.41,24.73,21l95.7,542.75C3123.71,1720.94,3116,1730.35,3104.34,1730.35Z" style="fill:#fff"/><path d="M3079.6,1695H2019l-.15-.82-90.49-513.23H2989l.14.83Zm-1058.9-2H3077.22l-89.94-510H1930.76Z" style="fill:#9ec8ff"/><rect x="2001.8" y="1590.57" width="1058.55" height="2" style="fill:#9ec8ff"/><rect x="1983.74" y="1488.16" width="1058.55" height="2" style="fill:#9ec8ff"/><rect x="1965.68" y="1385.75" width="1058.55" height="2" style="fill:#9ec8ff"/><rect x="1947.63" y="1283.34" width="1058.55" height="2" style="fill:#9ec8ff"/><rect x="2881.04" y="1177.98" width="2" height="519.95" transform="translate(-205.91 522.31) rotate(-10)" style="fill:#9ec8ff"/><rect x="2729.82" y="1177.98" width="2" height="519.95" transform="translate(-208.21 496.05) rotate(-10)" style="fill:#9ec8ff"/><rect x="2578.6" y="1177.98" width="2" height="519.95" transform="translate(-210.51 469.78) rotate(-10)" style="fill:#9ec8ff"/><rect x="2427.38" y="1177.98" width="2" height="519.95" transform="translate(-212.81 443.53) rotate(-10)" style="fill:#9ec8ff"/><rect x="2276.16" y="1177.98" width="2" height="519.95" transform="translate(-215.1 417.27) rotate(-10)" style="fill:#9ec8ff"/><rect x="2124.93" y="1177.98" width="2" height="519.95" transform="translate(-217.4 391.01) rotate(-10)" style="fill:#9ec8ff"/><path d="M2959.92,1246.59h-35.59c-13.58,0-26.64-11.1-29-24.68s6.76-24.68,20.33-24.68h35.59c13.58,0,26.65,11.1,29,24.68S2973.5,1246.59,2959.92,1246.59Z" style="fill:#f39892"/><path d="M3009.28,1453.25h-61.43c-6.47,0-12.7-5.29-13.84-11.76l-4.56-25.84c-1.14-6.47,3.22-11.77,9.7-11.77h61.42c6.47,0,12.7,5.3,13.84,11.77l4.56,25.84C3020.11,1448,3015.75,1453.25,3009.28,1453.25Z" style="fill:#f39892"/><path d="M2229.84,1371.74h-83.53c-9.23,0-18.12-7.56-19.75-16.79l-6.94-39.33c-1.62-9.23,4.6-16.79,13.83-16.79H2217c9.24,0,18.12,7.56,19.75,16.79l6.94,39.33C2245.29,1364.18,2239.07,1371.74,2229.84,1371.74Z" style="fill:#9ec8ff"/><path d="M2216.26,1361.47h-60c-6.63,0-13-5.43-14.18-12.06l-5-28.25c-1.17-6.63,3.3-12.06,9.93-12.06h60c6.63,0,13,5.43,14.18,12.06l5,28.25C2227.37,1356,2222.89,1361.47,2216.26,1361.47Z" style="fill:#fff"/><path d="M2890.09,1678.28h-83.53c-9.23,0-18.12-7.55-19.75-16.79l-6.93-39.32c-1.63-9.24,4.59-16.79,13.82-16.79h83.53c9.24,0,18.12,7.55,19.75,16.79l6.94,39.32C2905.54,1670.73,2899.32,1678.28,2890.09,1678.28Z" style="fill:#9ec8ff"/><path d="M2876.51,1668h-60c-6.63,0-13-5.42-14.18-12.06l-5-28.24c-1.17-6.64,3.3-12.07,9.93-12.07h60c6.63,0,13,5.43,14.18,12.07l5,28.24C2887.62,1662.59,2883.14,1668,2876.51,1668Z" style="fill:#fff"/><path d="M2533.73,1320.07h-65.44a10,10,0,0,1-9.46-8,6.58,6.58,0,0,1,6.62-8h65.44a10,10,0,0,1,9.46,8A6.57,6.57,0,0,1,2533.73,1320.07Z" style="fill:#9ec8ff"/><path d="M2538.18,1345.33h-65.44a10,10,0,0,1-9.45-8,6.57,6.57,0,0,1,6.61-8h65.45a10,10,0,0,1,9.45,8A6.58,6.58,0,0,1,2538.18,1345.33Z" style="fill:#9ec8ff"/><path d="M2442.81,1624.89h-65.44a10,10,0,0,1-9.45-8,6.58,6.58,0,0,1,6.62-8H2440a10,10,0,0,1,9.45,8A6.57,6.57,0,0,1,2442.81,1624.89Z" style="fill:#9ec8ff"/><path d="M2447.27,1650.15h-65.44a10,10,0,0,1-9.46-8,6.58,6.58,0,0,1,6.62-8h65.44a10,10,0,0,1,9.46,8A6.57,6.57,0,0,1,2447.27,1650.15Z" style="fill:#9ec8ff"/><path d="M2069.84,1433.74H2004.4a10,10,0,0,1-9.45-8,6.58,6.58,0,0,1,6.62-8H2067a10,10,0,0,1,9.45,8A6.58,6.58,0,0,1,2069.84,1433.74Z" style="fill:#9ec8ff"/><path d="M2074.3,1459h-65.44a10,10,0,0,1-9.46-8,6.58,6.58,0,0,1,6.62-8h65.44a10,10,0,0,1,9.46,8A6.57,6.57,0,0,1,2074.3,1459Z" style="fill:#9ec8ff"/><path d="M2276.73,1580.11h-96.94c-8.39,0-16.46-6.87-17.94-15.25l-7.68-43.53c-1.47-8.39,4.18-15.25,12.56-15.25h96.95c8.38,0,16.45,6.86,17.93,15.25l7.68,43.53C2290.77,1573.24,2285.12,1580.11,2276.73,1580.11Z" style="fill:#9cd499"/><path d="M2217.91,1562.29a2,2,0,0,1-1.38-.55l-21.76-20.61a2,2,0,1,1,2.75-2.9l20.23,19.15,30.68-36.3a2,2,0,0,1,3.06,2.58l-32,37.92a2,2,0,0,1-1.42.7Z" style="fill:#fff"/><path d="M2674.69,1268.4h-96.94c-8.39,0-16.46-6.87-17.94-15.25l-7.67-43.53c-1.48-8.39,4.17-15.25,12.56-15.25h96.94c8.39,0,16.46,6.86,17.94,15.25l7.67,43.53C2688.73,1261.53,2683.08,1268.4,2674.69,1268.4Z" style="fill:#9cd499"/><path d="M2615.87,1250.58a2,2,0,0,1-1.37-.55l-21.77-20.61a2,2,0,0,1,2.75-2.9l20.23,19.15,30.69-36.3a2,2,0,0,1,3,2.58l-32,37.92a2,2,0,0,1-1.42.7Z" style="fill:#fff"/><path d="M2705.2,1540.51c3.36,19-9.35,34.44-28.37,34.44s-37.16-15.42-40.51-34.44,9.34-34.44,28.37-34.44S2701.85,1521.49,2705.2,1540.51Z" style="fill:#9ec8ff"/><path d="M2277.69,1645.56c3.35,19-9.35,34.44-28.37,34.44s-37.17-15.42-40.52-34.44,9.35-34.44,28.37-34.44S2274.33,1626.54,2277.69,1645.56Z" style="fill:#9ec8ff"/><path d="M562.21,966.4H719.77c0,86.44-71.12,157.57-157.56,157.57S404.64,1052.84,404.64,966.4s71.12-157.57,157.57-157.57Z" style="fill:#9ec8ff"/><path d="M746.16,944.34A157.57,157.57,0,0,0,588.59,786.77V944.34Z" style="fill:#f39892"/><rect x="431.63" y="1501.86" width="97.45" height="205.67" style="fill:#9ec8ff"/><rect x="732.86" y="1286.96" width="97.46" height="420.56" style="fill:#9ec8ff"/><rect x="883.48" y="1491.23" width="97.45" height="216.29" style="fill:#9ec8ff"/><rect x="1034.1" y="1430.01" width="97.45" height="277.52" style="fill:#9ec8ff"/><rect x="582.25" y="1366.07" width="97.45" height="341.46" style="fill:#9ec8ff"/><rect x="1185.22" y="1182.91" width="97.45" height="524.62" style="fill:#9ec8ff"/><rect x="441.38" y="1511.6" width="87.49" height="205.67" style="fill:#5d9ef5"/><rect x="742.61" y="1296.71" width="87.49" height="420.56" style="fill:#5d9ef5"/><rect x="893.23" y="1500.98" width="87.49" height="216.29" style="fill:#5d9ef5"/><rect x="1043.84" y="1439.75" width="87.49" height="277.52" style="fill:#5d9ef5"/><rect x="591.99" y="1375.81" width="87.49" height="341.46" style="fill:#5d9ef5"/><rect x="1194.96" y="1192.65" width="87.49" height="524.62" style="fill:#5d9ef5"/><path d="M404.65,1445.57a15,15,0,0,1-8.57-27.32L777.8,1153.12a15,15,0,0,1,19.78,2.36l140.28,158.2,300.51-287.4A15,15,0,1,1,1259.1,1048L947.34,1346.13a15,15,0,0,1-21.59-.89L784,1185.36,413.19,1442.89A14.94,14.94,0,0,1,404.65,1445.57Z" style="fill:#f37168"/><path d="M1243.61,1116.91a15.72,15.72,0,0,1-3-.3,15,15,0,0,1-11.68-17.71l10.77-52.67L1182.2,1052a15,15,0,1,1-3-29.85l77.77-7.86a15,15,0,0,1,16.2,17.93l-14.86,72.66A15,15,0,0,1,1243.61,1116.91Z" style="fill:#f37168"/><path d="M2853.72,889.14c26.88-53.78,97.2-78.17,117.16-18.26s26.88,63.71,55,88.77c97.51,86.95-50.77,139.08-103,161.92s-73.06-74-77-150.91C2842.76,910.54,2845.85,904.88,2853.72,889.14Z" style="fill:#303c60"/><path d="M2933.05,1700.46c5.26,21.38-5.13,38.33-19,50.69-11.3,10-46.06,14.32-44.38,19.34s42.71,6.62,56.53,4.53,17.58-8.8,34.78-8.79c11.28,0,13.37-9.16,8.34-20.5s-6.78-17.6-2.24-27.75S2933.05,1700.46,2933.05,1700.46Z" style="fill:#4476bd"/><path d="M3138.1,1700.46c-.83,22.2-3.41,38.73,2,49,21,17.58,38.5,37.56,31.83,38.94-31.83,6.57-44-12.5-62-17.93-22.1-6.65,2.09-34.41-6.57-70-4.81-19.8,33.36-15,33.36-15Z" style="fill:#4476bd"/><path d="M2987.92,1194c-14,117.24-39.33,203.91-42.16,259.5s-14.13,274.43-14.13,274.43,31.09-2.17,33.92-6.88,58.41-128.13,55.58-204.44,55.51-192.33,55.51-192.33l-14.06-113.84Z" style="fill:#f37168"/><path d="M3001.33,1245l-21.84,9.13c-5.93,37.18-12.52,70.61-18.3,100.26,34.75,22.46,52.7,97.3,60.39,143,3.91-51.19,28.07-113.06,43.06-147.27Z" style="fill:#d54a41"/><path d="M3102.15,1182.16s47.06,60,45.58,128.12c-2.25,103.66-13.55,133.26,6.12,242,7.68,42.45-17,181.32-17,181.32s-21,1.65-32.35-4c.94-10.2-13.6-176.19-41.93-252.49-13.72-36.95-33-140.43-43.36-199.78s-12.25-71.6-8.48-71.6S3102.15,1182.16,3102.15,1182.16Z" style="fill:#f37168"/><path d="M2683,1319l-65,7.5a10,10,0,0,1-10.31-6.9,6.58,6.58,0,0,1,5.66-8.74l65-7.5a10,10,0,0,1,10.31,6.9A6.57,6.57,0,0,1,2683,1319Z" style="fill:#85baff"/><path d="M2690.36,1343.61l-65,7.5a10,10,0,0,1-10.31-6.9,6.57,6.57,0,0,1,5.66-8.74l65-7.5a10,10,0,0,1,10.31,6.9A6.58,6.58,0,0,1,2690.36,1343.61Z" style="fill:#85baff"/><path d="M2732.5,1282.47c-19.49,6.17-31.23,7.47-45,6.5s-22.88,7.15-31,10.39-11.37,8.36,2.27,6.5S2679,1304,2679,1304s9.84,2.19,14.39,5.44a60.13,60.13,0,0,1,7.17,6.25c4.05,3.9,3.84,11.39.4,15.84-3.72,4.82-6.14,10.14-10,12-7.2,3.56-.41,7.83,6.77,3.56,6.82-4.06,10.71-9.83,15.91-15.6,7.44-8.25,14.3-21.58,21.12-27.52S2732.5,1282.47,2732.5,1282.47Z" style="fill:#f09959"/><path d="M2927.19,1050.18c-31.61,65-61.5,134.51-101.13,167s-102.91,67.16-102.91,67.16,8.7,24.44,12.6,25.09,98.11-32.68,125.39-50.77,85-79.28,85-79.28Z" style="fill:#a2dff2"/><path d="M2924.18,1202.41c26-23.38,51.49-61.89,50.69-66-1.07-5.44-39.38-105.92-39.38-105.92-8.3,19.5-15.46,36.73-21.65,51.76C2917.68,1127.84,2934.73,1172.77,2924.18,1202.41Z" style="fill:#96cfe0"/><path d="M2982.78,963.63s70.32,8.35,102.39,56.48,17.18,127.29,25,163.83-98.63,81.91-112.09,44.63c-12.91-35.74-67.54-101.79-73-121.67-12.76-46.65,33.47-126.13,33.47-126.13Z" style="fill:#a2dff2"/><path d="M2940.77,901.44l54,69.59s-19.69,30.92-48.11,98.45c-10.36-34.37,4.62-81.32,4.62-81.32l-46.21-67.46Z" style="fill:#f09959"/><path d="M2966,933.9l-25.19-32.46-35.68,19.26,46.21,67.46s-.8,3.69-1.87,9.42C2962.76,977.48,2967.86,956.62,2966,933.9Z" style="fill:#e38540"/><path d="M2933.11,924.31c2.16,27.58-19.55,51-40.41,52.66s-32.95-19.16-35.11-46.74,13-51.25,33.84-52.88S2930.94,896.74,2933.11,924.31Z" style="fill:#f09959"/><path d="M2983.1,1162.77c8.81,55.76-23.87,175.07-23.87,175.07s19.48,4.43,77.9-1.23,84.16-63.95,92.95-65.57,13.31,54.25,17.65,58.67,5-70.57-6.34-100c-20.1-52.25-16.16-74.42-8.65-106.08C3146.1,1067.29,2983.1,1162.77,2983.1,1162.77Z" style="fill:#a2dff2"/><path d="M3146.14,1247.85a104.93,104.93,0,0,0-4.75-18.19c-20.1-52.25-16.16-74.42-8.65-106.08.59-2.49-46.66-78.4-46.66-78.4l-61.4-66c-58.93,95.68,12.24,141,6.71,178s-34,65.25-34,65.25l2,13.14a33.39,33.39,0,0,0,37.55,28.06c25.46-3.53,58.85-10.63,73.71-24.42C3125,1225.88,3137.73,1236.21,3146.14,1247.85Z" style="fill:#96cfe0"/><path d="M3001.3,1231.49s-25.62,12-28.55,14.27-3.21,11.41-3.21,11.41-13.14,16-6.45,19.7,19.24,14,32.22,6c8-4.86,9.31-37.37,14.87-38.57S3001.3,1231.49,3001.3,1231.49Z" style="fill:#f09959"/><path d="M3036.35,974.52c28.91-4,63.73,43.41,80.39,86.84s37,105.76,37,105.76-41.36,45.67-86.63,64.6c-39.49,16.52-59.84,23.8-59.84,23.8L2995,1233.46l88.63-74.33s-47.64-62-59.89-112.85S3014.37,977.58,3036.35,974.52Z" style="fill:#a2dff2"/><path d="M2852.46,900.28c19.29,48.68,75.43,24.14,90.09,15.42s18.32,110.78,50.56,106.12c23.67-3.43,11.24-32.7,34.43-44.76,17.08-8.89,30.53,3.42,30.53,3.42a35.52,35.52,0,0,0-16.31-14.18c-11-4.46-54.4-33.7-71.91-64.34s-63.73-37.83-75.39-34.36-34.92,26.56-34.92,26.56Z" style="fill:#303c60"/><path d="M2991.93,1034.81c-21.43,0-30.76-42.09-41.52-90.56-2.14-9.66-4.36-19.65-6.68-29.26a2.43,2.43,0,1,1,4.73-1.14c2.34,9.65,4.56,19.66,6.71,29.34,9.73,43.85,19.79,89.16,38.45,86.63,11.28-1.56,13.46-26.1,11.73-48.54a2.44,2.44,0,0,1,4.86-.38c1.18,15.34,2,51.28-15.93,53.74A17.34,17.34,0,0,1,2991.93,1034.81Z" style="fill:#303c60"/><path d="M2992.8,1047.62a13.52,13.52,0,0,1-6.17-1.55c-27.49-13.85-45.72-125.25-46.49-130a2.44,2.44,0,1,1,4.82-.78c5.08,31.58,22.88,115.84,43.86,126.41a8.29,8.29,0,0,0,8,0c9.23-4.78,10.1-20.44,10.88-34.26s1.51-27.14,10.62-30.06a2.43,2.43,0,0,1,1.49,4.63c-5.92,1.91-6.57,13.47-7.25,25.7-.84,15.12-1.8,32.25-13.5,38.31A13.48,13.48,0,0,1,2992.8,1047.62Z" style="fill:#303c60"/><path d="M2948.1,924.38c-2.17,6.69-7.85,10.84-12.69,9.27s-7-8.26-4.84-14.94,7.85-10.84,12.69-9.27S2950.26,917.7,2948.1,924.38Z" style="fill:#f09959"/><path d="M1355,1674.6s-185.89-129.12-264.52-54.67c-62.79,59.44,48.66,129.28,191.24,110.5,100.35-13.22,111.73,6,129.3,5.57,130.81-10,307.06-49.16,221.29-110.64-116.85-83.76-195.89,5-236.6,27.14Z" style="fill:#232e4f"/><path d="M1595.34,1622.25c-48.86-10.08-235,58.94-235,58.94s-162.09-48.85-200.86-53.51-56.61,10.08-56.61,10.08,18.29-20.61,39.55-22.49,52-7,52-7,310.2-14.73,351.31-5.42S1595.34,1622.25,1595.34,1622.25Z" style="fill:#1b243d"/><path d="M1331.73,1371c-7.37,1.16-122,51.14-123.36,72.08s31.39,190.8,94.83,212.91,134.39,0,134.39,0,74.44-183.79,52.34-218.69-122.14-66.3-122.14-66.3Z" style="fill:#ffd24f"/><path d="M1247.51,1410.56c-109.47,58.66-136.35,164.57-107.4,187.91,20.29,16.36,96.78,52.54,163.09,50.21s128.57,3.92,128.57,3.92,113.74-23.14,136.43-57.23-40.25-144.81-96.68-176.82S1247.51,1410.56,1247.51,1410.56Z" style="fill:#ffd24f"/><path d="M1351.9,1437.3a27.61,27.61,0,0,1-27.54-27.53V1317.1a27.54,27.54,0,0,1,55.07,0v92.67A27.61,27.61,0,0,1,1351.9,1437.3Z" style="fill:#f09959"/><path d="M1351.9,1289.57a27.61,27.61,0,0,0-27.54,27.53v75.78c16.24,13.56,32,6.45,55.07-11.46V1317.1A27.61,27.61,0,0,0,1351.9,1289.57Z" style="fill:#e38540"/><path d="M1412.32,1320.85c-4.52,9.23-11.87,14.36-16.41,11.44s-4.55-12.77,0-22,11.87-14.36,16.41-11.44S1416.85,1311.61,1412.32,1320.85Z" style="fill:#f09959"/><path d="M1305.8,1311c5.23,8.4,6.24,18.56,2.24,22.68s-11.47.65-16.7-7.75-6.24-18.56-2.24-22.68S1300.57,1302.57,1305.8,1311Z" style="fill:#f09959"/><path d="M1400.48,1320.25c0,33.68-21.2,61-47.35,61s-47.35-27.29-47.35-61,21.2-61,47.35-61S1400.48,1286.58,1400.48,1320.25Z" style="fill:#f09959"/><path d="M1456.37,1471.15c31,16.55,58.06,79.24,58.06,79.24s-69.8,10.86-84.28,21.71,2.07-4.13,10.34-34.12S1456.37,1471.15,1456.37,1471.15Z" style="fill:#edc055"/><path d="M1240.41,1466.63c7.24,33.09,41.88,125.47,41.88,125.47s-32.09-36.54-66.18-38.61-46.75-2.58-46.53,5.69c0,1.63,5.69-36.71,32.05-60.49S1240.41,1466.63,1240.41,1466.63Z" style="fill:#edc055"/><path d="M1448.35,1675H1261a15.44,15.44,0,0,1-15.23-12.9l-22.59-134.79a15.46,15.46,0,0,1,15.24-18h232.48a15.46,15.46,0,0,1,15.24,18l-22.59,134.79A15.44,15.44,0,0,1,1448.35,1675Z" style="fill:#2a66c6"/><path d="M1448.35,1675H1261a15.29,15.29,0,0,1-15.23-12.43l-22.59-129.94c-1.58-9.08,5.69-17.35,15.24-17.35h232.48c9.55,0,16.82,8.27,15.24,17.35l-22.59,129.94A15.29,15.29,0,0,1,1448.35,1675Z" style="fill:#63acc2"/><path d="M1379.43,1728.05c-1.12-.19-121-30.19-147.73-8.09s89.57,22.48,110.5,17.64S1379.43,1728.05,1379.43,1728.05Z" style="fill:#1b243d"/><path d="M1406.18,1733.43s25.59-19.28,59.32-15.79,62.82,10.84,33.74,20-59.33,10.28-73.28,9.12S1406.18,1733.43,1406.18,1733.43Z" style="fill:#1b243d"/><path d="M1338,1234.31c-30.75,9.33-20,95.92,15.11,93.06s36.59-40.29,34.1-64.53S1369.75,1224.68,1338,1234.31Z" style="fill:#0f2d5c"/><path d="M1327,1298.49c-8.56-8.2-20.33,17.61-15.69,29s-1.85,17.94,4.42,30.15-11.55-7.75-14-22.37-3.92-39.94-7.49-51.35.19-31.19,16.07-35.3,19.59-11.41,25.65-11.76,34.94,2.49,49.21,10.34,22.1,19.61,21,37.44-5.7,63.46-10,71-6.49,5.71-5.21,1.43,5.92-30,2.36-39.22-1.79-32.09-11.06-33.88-7.13,14-18.18,15.22S1327,1298.49,1327,1298.49Z" style="fill:#0f2d5c"/></svg>