<svg xmlns="http://www.w3.org/2000/svg" viewBox="0 0 483.65 447.65"><defs><style>.cls-1{fill:#06adef;}</style></defs><title>Asset 1</title><g id="Layer_2" data-name="Layer 2"><g id="Layer_1-2" data-name="Layer 1"><path class="cls-1" d="M55.83,411.65C19.53,411.65,0,392.12,0,355.83v-300C0,19.53,19.53,0,55.83,0h372c36.29,0,55.82,19.53,55.82,55.83v180a5.88,5.88,0,0,1-3.73,5.44,6,6,0,0,1-2.09.38,5.82,5.82,0,0,1-4.32-1.91L364.14,118.86,201.22,326.08l57,73.92h80.64a5.83,5.83,0,0,1,0,11.65Zm0-400C26,11.65,11.65,26,11.65,55.83v300C11.65,385.7,26,400,55.83,400H243.48L125.83,247.38,86.43,298.6a5.83,5.83,0,0,1-9.24-7.11l44-57.22a5.83,5.83,0,0,1,9.23,0l63.44,82.29L359.25,106.23a5.83,5.83,0,0,1,4.38-2.23h.23a5.82,5.82,0,0,1,4.29,1.92L472,220.7V55.83c0-29.87-14.3-44.18-44.17-44.18Z"/><path class="cls-1" d="M125.83,163.65a45.83,45.83,0,1,1,45.82-45.82A45.87,45.87,0,0,1,125.83,163.65Zm0-80A34.18,34.18,0,1,0,160,117.83,34.21,34.21,0,0,0,125.83,83.65Z"/><path class="cls-1" d="M418.72,447.65a5.83,5.83,0,0,1-5.83-5.82V295.69l-50,49.28a5.83,5.83,0,0,1-8.19-8.29l52.54-52c6.76-6.78,8.31-7,11.45-7,2.61,0,6.19,1.73,13,8.55l12.6,12.6-.16-.16L482,337.77a5.83,5.83,0,0,1-8.37,8.11l-49.1-50.72V441.83A5.83,5.83,0,0,1,418.72,447.65Z"/></g></g></svg>