<svg xmlns="http://www.w3.org/2000/svg" viewBox="0 0 235.91 406.19"><path d="M18.33,372.92V327.75H35.27A18.06,18.06,0,0,1,44,329.69,13,13,0,0,1,49.38,335a17.16,17.16,0,0,1,0,15.4A13,13,0,0,1,44,355.73a18.38,18.38,0,0,1-8.8,1.93H23.94v-6.73H34.06a10.34,10.34,0,0,0,5-1.06A6.66,6.66,0,0,0,41.92,347a9.25,9.25,0,0,0,.94-4.26,9.09,9.09,0,0,0-.94-4.23A6.55,6.55,0,0,0,39,335.61a10.78,10.78,0,0,0-5-1h-7.5v38.33Z" style="fill:#fff"/><path d="M65.93,327.75v45.17H58V327.75Z" style="fill:#fff"/><path d="M83.89,373.6a14,14,0,0,1-5.79-1.15A9.34,9.34,0,0,1,74,369a10,10,0,0,1-1.49-5.61,9.5,9.5,0,0,1,1.06-4.74,8.15,8.15,0,0,1,2.89-3A14.84,14.84,0,0,1,80.63,354a34.8,34.8,0,0,1,4.78-.85c2-.2,3.59-.39,4.83-.56a7.08,7.08,0,0,0,2.7-.79,1.86,1.86,0,0,0,.85-1.69v-.13a5,5,0,0,0-1.48-3.86,6,6,0,0,0-4.25-1.37A7.62,7.62,0,0,0,83.41,346a6.26,6.26,0,0,0-2.3,3L73.65,348a12,12,0,0,1,2.91-5.17,12.89,12.89,0,0,1,5-3.13,19.07,19.07,0,0,1,6.48-1,21.32,21.32,0,0,1,4.88.57,14,14,0,0,1,4.43,1.89,9.68,9.68,0,0,1,3.23,3.56,11.64,11.64,0,0,1,1.23,5.63v22.67H94.1v-4.65h-.27a9.4,9.4,0,0,1-2,2.63,9.82,9.82,0,0,1-3.28,2A13.26,13.26,0,0,1,83.89,373.6ZM86,367.74a8.62,8.62,0,0,0,4.17-1,7,7,0,0,0,2.72-2.55,6.56,6.56,0,0,0,1-3.46v-4a3.92,3.92,0,0,1-1.27.57,17.31,17.31,0,0,1-2,.46c-.74.13-1.47.25-2.19.35l-1.87.27a14.27,14.27,0,0,0-3.2.79,5.4,5.4,0,0,0-2.23,1.54,4.28,4.28,0,0,0,.8,5.85A7,7,0,0,0,86,367.74Z" style="fill:#fff"/><path d="M117.81,353.07v19.85h-8V339h7.63v5.76h.39a9.63,9.63,0,0,1,3.74-4.52A11.43,11.43,0,0,1,128,338.6a12.12,12.12,0,0,1,6.12,1.5,10.25,10.25,0,0,1,4.06,4.35,15,15,0,0,1,1.42,6.9v21.57h-8V352.58a7.57,7.57,0,0,0-1.75-5.31,6.22,6.22,0,0,0-4.84-1.92,7.33,7.33,0,0,0-3.72.92,6.36,6.36,0,0,0-2.53,2.63A8.8,8.8,0,0,0,117.81,353.07Z" style="fill:#fff"/><path d="M151.71,334.23a4.58,4.58,0,0,1-3.26-1.28,4.1,4.1,0,0,1,0-6.12,4.83,4.83,0,0,1,6.54,0,4.1,4.1,0,0,1,1.35,3.07,4,4,0,0,1-1.35,3A4.63,4.63,0,0,1,151.71,334.23Zm-4,38.69V339h8v33.88Z" style="fill:#fff"/><path d="M181.05,339v6.18H161V339Zm-15,33.88V335.84a10.53,10.53,0,0,1,1.42-5.69,8.85,8.85,0,0,1,3.83-3.39,12.42,12.42,0,0,1,5.33-1.13,18.52,18.52,0,0,1,3.69.33,20.43,20.43,0,0,1,2.38.6l-1.59,6.17c-.34-.1-.76-.21-1.28-.32a8.25,8.25,0,0,0-1.72-.16,3.93,3.93,0,0,0-3.14,1.07,4.55,4.55,0,0,0-.92,3.05v36.55Z" style="fill:#fff"/><path d="M192.27,385.63a16.63,16.63,0,0,1-3-.26,11.61,11.61,0,0,1-2.19-.58l1.85-6.22a10.4,10.4,0,0,0,3.11.48,3.84,3.84,0,0,0,2.42-.85,6.22,6.22,0,0,0,1.77-2.74l.69-1.83L184.62,339h8.47l7.81,25.59h.35L209.08,339h8.49L204,377a15,15,0,0,1-2.52,4.62,10.33,10.33,0,0,1-3.82,3A13.07,13.07,0,0,1,192.27,385.63Z" style="fill:#fff"/><path d="M115.68,23.78C82.25,100,50.11,202.75,46.17,271.11c12.63-45.85,33.67-103.89,56.3-151,12.29-25.6,25-48,37.24-63.43,6.1-7.73,12-13.75,17.82-17.59,4.12-2.7,12.75-7.29,22.3-3.39,24.83,10.14,20.61,61.17.49,108.44-15.85,37.21-42.8,70.44-64.29,71.46-10.54.5-15.6-5.85-17.31-10.65a31.47,31.47,0,0,1-1.16-14.58c1.38-10.53,6.57-21.85,13.8-28.44a1.34,1.34,0,1,1,1.81,2c-6.55,6-11.64,16.91-13,26.81-.65,4.95-.36,9.63,1,13.28a11.58,11.58,0,0,0,7.47,7.47c4.62,1.49,9.9.28,15.7-3.39s12-9.77,18.17-17.65c12.35-15.77,24.61-38.65,34.1-63.45,8-20.78,12.35-42.2,12.08-58.9-.14-8.36-1.45-15.52-4-20.8s-6.11-8.65-11.1-9.84c-4.38-1-9.27.29-14.67,3.89s-11.21,9.42-17.2,17c-12,15.19-24.68,37.43-36.92,62.92-24.49,51-47.18,115-59.22,162.11l0,.05c-.72,2.87-5.4,3.25-5.91-.82C36.2,256.88,44.66,200.86,60.53,146,73,103,92.92,51.66,109.7,21.65a4.45,4.45,0,0,1,3.55-2.56C115.28,19,116.9,21,115.68,23.78Z" style="fill:#4b77bb"/></svg>