<svg xmlns="http://www.w3.org/2000/svg" viewBox="0 0 597.76 322.91"><path d="M188.83,149.92V276.73H168.41V149.92Z" style="fill:#1f2937"/><path d="M234.73,278.65a33.05,33.05,0,0,1-14.81-3.25,24.57,24.57,0,0,1-10.37-9.63q-3.81-6.39-3.81-15.73,0-8.06,2.71-13.31a22.12,22.12,0,0,1,7.39-8.42,35.77,35.77,0,0,1,10.57-4.8,80.41,80.41,0,0,1,12.21-2.39q7.6-.85,12.35-1.58a16.69,16.69,0,0,0,6.9-2.22,5.37,5.37,0,0,0,2.17-4.74v-.37q0-7-3.77-10.84t-10.89-3.84q-7.5,0-11.87,3.59a17.79,17.79,0,0,0-5.89,8.49l-19.06-3A34.8,34.8,0,0,1,216,192.11a32.49,32.49,0,0,1,12.68-8.79,45.08,45.08,0,0,1,16.58-2.94A49.54,49.54,0,0,1,257.73,182a33.77,33.77,0,0,1,11.34,5.3,26.43,26.43,0,0,1,8.26,10q3.12,6.32,3.13,15.78v63.66H260.83V263.66h-.67a27,27,0,0,1-5.22,7.4,24.69,24.69,0,0,1-8.4,5.51A31,31,0,0,1,234.73,278.65Zm5.3-16.47a20.34,20.34,0,0,0,10.65-2.7,18.75,18.75,0,0,0,7-7.15,19.88,19.88,0,0,0,2.45-9.72V231.4a9.11,9.11,0,0,1-3.24,1.61,43.42,43.42,0,0,1-5.1,1.3c-1.88.37-3.75.7-5.59,1l-4.79.75a32.57,32.57,0,0,0-8.18,2.23,13.73,13.73,0,0,0-5.69,4.3,11.44,11.44,0,0,0-2.09,7.09q0,6.2,4.12,9.35A16.76,16.76,0,0,0,240,262.18Z" style="fill:#1f2937"/><path d="M321.45,221v55.73H301V181.62h19.51v16.16h1a26.72,26.72,0,0,1,9.56-12.69q6.57-4.71,16.27-4.71A28.8,28.8,0,0,1,363,184.59a27.71,27.71,0,0,1,10.37,12.2q3.69,8,3.64,19.38v60.56H356.64V219.64q0-9.54-4.49-14.92t-12.37-5.39a17.62,17.62,0,0,0-9.51,2.57,17.34,17.34,0,0,0-6.48,7.4A26.65,26.65,0,0,0,321.45,221Z" style="fill:#1f2937"/><path d="M408.12,168.12a11.26,11.26,0,0,1-8.35-3.59,12.32,12.32,0,0,1,0-17.18,11.56,11.56,0,0,1,16.72,0,12.37,12.37,0,0,1,0,17.18A11.27,11.27,0,0,1,408.12,168.12ZM397.86,276.73V181.62h20.41v95.11Z" style="fill:#1f2937"/><path d="M483.12,181.62V199H431.91V181.62Zm-38.4,95.11V172.64q0-9.6,3.63-16a23.52,23.52,0,0,1,9.79-9.54A29.44,29.44,0,0,1,471.78,144a43.05,43.05,0,0,1,9.42.93,51.71,51.71,0,0,1,6.09,1.67l-4.06,17.34q-1.31-.43-3.27-.9a19.3,19.3,0,0,0-4.4-.46q-5.7,0-8,3t-2.34,8.58v102.6Z" style="fill:#1f2937"/><path d="M511.82,312.39a39.24,39.24,0,0,1-7.7-.71,27.92,27.92,0,0,1-5.61-1.64l4.73-17.46a25,25,0,0,0,7.95,1.36,9.47,9.47,0,0,0,6.18-2.38q2.67-2.32,4.54-7.71l1.75-5.14-31.41-97.09H513.9l20,71.83h.91l20-71.83h21.71L541.81,288.24a44.72,44.72,0,0,1-6.42,13,27.11,27.11,0,0,1-9.79,8.29A30.59,30.59,0,0,1,511.82,312.39Z" style="fill:#1f2937"/><path d="M98,15.22c-33.44,76.19-65.57,179-69.52,247.32,12.64-45.85,33.67-103.89,56.31-151,12.29-25.6,25-47.95,37.24-63.42,6.09-7.74,12-13.76,17.82-17.6,4.11-2.7,12.74-7.28,22.29-3.39,24.83,10.14,20.62,61.17.49,108.44C146.8,172.78,119.85,206,98.36,207c-10.54.5-15.6-5.84-17.32-10.65a31.6,31.6,0,0,1-1.16-14.58c1.39-10.53,6.57-21.84,13.8-28.44a1.35,1.35,0,0,1,1.82,2c-6.56,6-11.65,16.9-13,26.8-.65,4.95-.36,9.63,1,13.28A11.55,11.55,0,0,0,91,202.9c4.62,1.5,9.89.28,15.69-3.39s12-9.77,18.17-17.65c12.35-15.76,24.61-38.65,34.1-63.45,8-20.78,12.35-42.2,12.08-58.9-.13-8.36-1.44-15.52-3.95-20.79S161,30.07,156,28.87c-4.38-1-9.26.29-14.66,3.89s-11.21,9.42-17.2,17c-12,15.2-24.69,37.43-36.93,62.92-24.49,51-47.17,115-59.21,162.11,0,0,0,0,0,.05-.72,2.87-5.4,3.25-5.92-.82C18.52,248.31,27,192.29,42.86,137.4,55.27,94.46,75.25,43.1,92,13.08a4.43,4.43,0,0,1,3.55-2.56C97.6,10.44,99.23,12.38,98,15.22Z" style="fill:#4b77bb"/></svg>