<svg width="180" height="140" viewBox="0 0 180 140" fill="none" xmlns="http://www.w3.org/2000/svg">
<g clip-path="url(#clip0)">
<path opacity="0.7" d="M156.608 89.4959C147.28 121.883 93.6084 135.789 58.1291 120.125C53.954 118.277 28.9924 107.26 23.858 83.772C16.9646 52.192 48.9795 12.107 86.0577 10.0794C128.732 7.76476 166.095 56.5522 156.608 89.4959Z" fill="#EFF0F9"/>
<g filter="url(#filter0_d)">
<path d="M90.3747 17.5935C94.9322 17.5935 96.9784 21.1963 96.9784 24.7682C96.9784 28.5419 93.4596 31.9429 90.3747 31.9429C87.2899 31.9429 83.7711 28.5419 83.7711 24.7682C83.7711 21.1963 85.8018 17.5935 90.3747 17.5935ZM90.3747 14.2856C84.0346 14.2856 80.4692 19.2396 80.4692 24.7526C80.4692 30.2657 85.3522 35.2352 90.3747 35.2352C95.3973 35.2352 100.28 30.2812 100.28 24.7526C100.28 19.2241 96.7149 14.2856 90.3747 14.2856Z" fill="#4F32C3"/>
<path d="M90.3752 37.2385C81.0433 37.2385 73.4785 44.817 73.4785 54.1659V57.5048C73.4785 58.421 74.2226 59.1509 75.1217 59.1509C76.0363 59.1509 76.7649 58.4055 76.7649 57.5048V54.3678C76.7649 46.898 82.6865 40.6551 90.1582 40.5308C97.754 40.4066 103.97 46.5719 103.97 54.1503V57.4892C103.97 58.4055 104.714 59.1354 105.613 59.1354C106.528 59.1354 107.256 58.39 107.256 57.4892V54.1503C107.272 44.817 99.7072 37.2385 90.3752 37.2385Z" fill="#4F32C3"/>
</g>
<g filter="url(#filter1_d)">
<path d="M37.8334 66.7546C37.2869 67.809 36.9631 69.0256 36.9631 70.3031C36.9631 71.5805 37.2667 72.7971 37.8334 73.8515H25.953C23.9898 73.8515 22.4111 72.2699 22.4111 70.3031C22.4111 69.3298 22.8159 68.4376 23.4433 67.7888C24.091 67.1399 24.9815 66.7546 25.953 66.7546H37.8334Z" fill="#4F32C3"/>
<path d="M122.073 70.3031C122.073 71.2764 121.669 72.1685 121.041 72.8174C120.394 73.4662 119.503 73.8515 118.531 73.8515H51.4761C51.557 73.6893 51.638 73.5474 51.6987 73.3851C51.7392 73.304 51.7594 73.2229 51.7999 73.1621C51.8404 73.081 51.8606 72.9999 51.9011 72.9188C52.0226 72.5943 52.1238 72.2496 52.1845 71.9049C52.2452 71.6211 52.2857 71.3169 52.3262 71.0128C52.3262 70.9316 52.3464 70.8708 52.3464 70.7897C52.3464 70.7289 52.3464 70.6883 52.3464 70.6275C52.3464 70.5261 52.3464 70.4247 52.3464 70.3031C52.3464 70.2017 52.3464 70.1003 52.3464 69.9989C52.3464 69.9381 52.3464 69.8975 52.3464 69.8367C52.3464 69.7556 52.3262 69.6745 52.3262 69.5934C52.3262 69.5326 52.3059 69.492 52.3059 69.4515C52.3059 69.3703 52.2857 69.2892 52.2654 69.2081C52.2452 69.1067 52.225 69.0054 52.225 68.904C52.225 68.8837 52.225 68.8837 52.225 68.8634C52.2047 68.7215 52.1642 68.5593 52.1238 68.4173C52.1035 68.3565 52.0833 68.2957 52.063 68.2146C52.0226 68.0524 51.9618 67.8901 51.9011 67.7279C51.8809 67.6468 51.8404 67.586 51.8202 67.5049C51.7797 67.4238 51.7594 67.3224 51.719 67.2413C51.6785 67.1602 51.638 67.0791 51.5975 66.998C51.557 66.9169 51.5166 66.8357 51.4761 66.7546H118.531C120.495 66.7546 122.073 68.3362 122.073 70.3031Z" fill="#D8D9EC"/>
<path d="M119.523 70.3843C119.523 70.8101 119.362 71.1751 119.078 71.459C118.795 71.7428 118.43 71.905 118.005 71.905H52.1646C52.2253 71.6212 52.2658 71.317 52.3062 71.0129C52.3062 70.9318 52.3265 70.8709 52.3265 70.7898C52.3265 70.729 52.3265 70.6884 52.3265 70.6276C52.3265 70.5262 52.3265 70.4248 52.3265 70.3032C52.3265 70.2018 52.3265 70.1004 52.3265 69.999C52.3265 69.9382 52.3265 69.8976 52.3265 69.8368C52.3265 69.7557 52.3062 69.6746 52.3062 69.5935C52.3062 69.5327 52.286 69.4921 52.286 69.4516C52.286 69.3704 52.2657 69.2893 52.2455 69.2082C52.2253 69.1068 52.205 69.0055 52.205 68.9041C52.205 68.8838 52.205 68.8838 52.205 68.8635H118.005C118.835 68.8635 119.523 69.5529 119.523 70.3843Z" fill="white"/>
<path d="M55.0588 68.8635C54.9576 68.1336 54.7957 67.4239 54.5528 66.7547C53.0956 62.6994 49.2297 59.7795 44.6555 59.7795C40.0812 59.7795 36.2154 62.6791 34.7581 66.7547C34.3533 67.87 34.1509 69.0663 34.1509 70.3032C34.1509 71.5401 34.3735 72.7567 34.7581 73.8516C36.2154 77.9069 40.0812 80.8268 44.6555 80.8268C49.2095 80.8268 53.0956 77.9272 54.5528 73.8516C54.7755 73.223 54.9374 72.5742 55.0386 71.905C55.1196 71.3778 55.16 70.8506 55.16 70.3032C55.16 69.8165 55.1196 69.3299 55.0588 68.8635ZM51.8812 72.9189C51.8609 73 51.8204 73.0811 51.78 73.1622C51.7597 73.2433 51.7192 73.3244 51.6788 73.3852C51.618 73.5475 51.5371 73.7097 51.4561 73.8516C50.181 76.3254 47.6105 77.9881 44.6352 77.9881C41.6599 77.9881 39.0894 76.3051 37.8143 73.8516C37.2678 72.7972 36.944 71.5806 36.944 70.3032C36.944 69.0257 37.2476 67.8091 37.8143 66.7547C39.0894 64.3013 41.6599 62.6183 44.6352 62.6183C47.6105 62.6183 50.181 64.3013 51.4561 66.7547C51.4966 66.8358 51.5371 66.917 51.5776 66.9981C51.618 67.0792 51.6585 67.1603 51.699 67.2414C51.7395 67.3225 51.78 67.4036 51.8002 67.505C51.8407 67.5861 51.8609 67.6469 51.8812 67.728C51.9419 67.8902 51.9824 68.0525 52.0431 68.2147C52.0633 68.2755 52.0836 68.3363 52.1038 68.4174C52.1443 68.5594 52.1645 68.7013 52.205 68.8635C52.205 68.8838 52.205 68.8838 52.205 68.9041C52.2252 69.0055 52.2455 69.1068 52.2455 69.2082C52.2657 69.2893 52.2657 69.3704 52.286 69.4515C52.286 69.4921 52.3062 69.5529 52.3062 69.5935C52.3062 69.6746 52.3264 69.7557 52.3264 69.8368C52.3264 69.8976 52.3264 69.9382 52.3264 69.999C52.3264 70.1004 52.3264 70.2018 52.3264 70.3032C52.3264 70.4046 52.3264 70.5262 52.3264 70.6276C52.3264 70.6884 52.3264 70.729 52.3264 70.7898C52.3264 70.8709 52.3062 70.9317 52.3062 71.0129C52.286 71.317 52.2252 71.6212 52.1645 71.905C52.1038 72.2497 52.0026 72.5944 51.8812 72.9189Z" fill="#4F32C3"/>
<path d="M48.3794 65.68H40.9314C40.81 65.68 40.729 65.5786 40.729 65.4773V65.3556C40.729 65.2339 40.8302 65.1528 40.9314 65.1528H48.3794C48.5009 65.1528 48.5818 65.2542 48.5818 65.3556V65.4773C48.5818 65.5786 48.5009 65.68 48.3794 65.68Z" fill="#4F32C3"/>
<path d="M50.0385 67.9559H39.2712C39.1498 67.9559 39.0688 67.8545 39.0688 67.7531V67.6315C39.0688 67.5098 39.17 67.4287 39.2712 67.4287H50.0385C50.1599 67.4287 50.2409 67.5301 50.2409 67.6315V67.7531C50.2611 67.8545 50.1599 67.9559 50.0385 67.9559Z" fill="#4F32C3"/>
<path d="M51.2731 70.5465H38.0569C37.9354 70.5465 37.8545 70.4451 37.8545 70.3437V70.2221C37.8545 70.1004 37.9557 70.0193 38.0569 70.0193H51.2731C51.3945 70.0193 51.4755 70.1207 51.4755 70.2221V70.3437C51.4755 70.4451 51.3743 70.5465 51.2731 70.5465Z" fill="#4F32C3"/>
<path d="M50.0385 72.9798H39.2712C39.1498 72.9798 39.0688 72.8784 39.0688 72.7771V72.6554C39.0688 72.5337 39.17 72.4526 39.2712 72.4526H50.0385C50.1599 72.4526 50.2409 72.554 50.2409 72.6554V72.7771C50.2611 72.8784 50.1599 72.9798 50.0385 72.9798Z" fill="#4F32C3"/>
<path d="M48.3794 75.4129H40.9314C40.81 75.4129 40.729 75.3116 40.729 75.2102V75.0885C40.729 74.9669 40.8302 74.8857 40.9314 74.8857H48.3794C48.5009 74.8857 48.5818 74.9871 48.5818 75.0885V75.2102C48.5818 75.3116 48.5009 75.4129 48.3794 75.4129Z" fill="#4F32C3"/>
</g>
<g filter="url(#filter2_d)">
<path d="M96.7731 89.0833C96.2064 90.1376 95.9028 91.3542 95.9028 92.6317C95.9028 93.9091 96.2064 95.1257 96.7731 96.1801H25.9531C23.9899 96.1801 22.4111 94.5985 22.4111 92.6317C22.4111 91.6584 22.8159 90.7662 23.4434 90.1174C24.0911 89.4685 24.9816 89.0833 25.9531 89.0833H96.7731Z" fill="#4F32C3"/>
<path d="M122.073 92.6517C122.073 93.6249 121.669 94.5171 121.041 95.166C120.393 95.8148 119.503 96.2001 118.531 96.2001H110.416C110.962 95.1457 111.286 93.9291 111.286 92.6517C111.286 91.3742 110.982 90.1576 110.416 89.1032H118.531C120.495 89.0829 122.073 90.6848 122.073 92.6517Z" fill="#D8D9EC"/>
<path d="M119.523 92.6519C119.523 93.0777 119.361 93.4629 119.078 93.7265C118.794 94.0104 118.43 94.1726 118.005 94.1726H111.124C111.225 93.686 111.285 93.1791 111.285 92.6519C111.285 92.1247 111.225 91.6177 111.124 91.1311H118.005C118.835 91.1311 119.523 91.8002 119.523 92.6519Z" fill="white"/>
<path d="M113.978 91.131C113.877 90.4213 113.715 89.7522 113.472 89.1034C112.015 85.048 108.128 82.1282 103.574 82.1282C99.0204 82.1282 95.1343 85.0277 93.677 89.1034C93.2722 90.2186 93.0698 91.4149 93.0698 92.6518C93.0698 93.8887 93.2925 95.1053 93.677 96.2002C95.1343 100.256 99.0002 103.175 103.574 103.175C108.128 103.175 112.015 100.276 113.472 96.2002C113.715 95.5514 113.877 94.8619 113.978 94.1725C114.059 93.6656 114.079 93.1587 114.079 92.6518C114.099 92.1246 114.059 91.6177 113.978 91.131ZM110.395 96.2002C109.12 98.6537 106.55 100.337 103.574 100.337C100.619 100.337 98.0286 98.6537 96.7535 96.2002C96.207 95.1458 95.8832 93.9292 95.8832 92.6518C95.8832 91.3744 96.1868 90.1578 96.7535 89.1034C98.0286 86.6296 100.599 84.9669 103.574 84.9669C106.55 84.9669 109.12 86.6499 110.395 89.1034C110.719 89.7319 110.962 90.4213 111.104 91.131C111.205 91.6177 111.266 92.1246 111.266 92.6518C111.266 93.179 111.205 93.6859 111.104 94.1725C110.982 94.8822 110.739 95.5716 110.395 96.2002Z" fill="#4F32C3"/>
<path d="M107.318 88.0489H99.8704C99.7489 88.0489 99.668 87.9475 99.668 87.8462V87.7245C99.668 87.6028 99.7692 87.5217 99.8704 87.5217H107.318C107.44 87.5217 107.521 87.6231 107.521 87.7245V87.8462C107.521 87.9475 107.42 88.0489 107.318 88.0489Z" fill="#4F32C3"/>
<path d="M108.978 90.4821H98.2107C98.0893 90.4821 98.0083 90.3807 98.0083 90.2793V90.1576C98.0083 90.0359 98.1095 89.9548 98.2107 89.9548H108.978C109.099 89.9548 109.18 90.0562 109.18 90.1576V90.2793C109.18 90.3807 109.099 90.4821 108.978 90.4821Z" fill="#4F32C3"/>
<path d="M110.192 92.9154H96.9758C96.8544 92.9154 96.7734 92.814 96.7734 92.7126V92.5909C96.7734 92.4693 96.8746 92.3882 96.9758 92.3882H110.192C110.313 92.3882 110.394 92.4896 110.394 92.5909V92.7126C110.415 92.814 110.313 92.9154 110.192 92.9154Z" fill="#4F32C3"/>
<path d="M108.978 95.3487H98.2107C98.0893 95.3487 98.0083 95.2473 98.0083 95.146V95.0243C98.0083 94.9026 98.1095 94.8215 98.2107 94.8215H108.978C109.099 94.8215 109.18 94.9229 109.18 95.0243V95.146C109.18 95.2473 109.099 95.3487 108.978 95.3487Z" fill="#4F32C3"/>
<path d="M107.318 97.7818H99.8704C99.7489 97.7818 99.668 97.6804 99.668 97.5791V97.4574C99.668 97.3357 99.7692 97.2546 99.8704 97.2546H107.318C107.44 97.2546 107.521 97.356 107.521 97.4574V97.5791C107.521 97.6804 107.42 97.7818 107.318 97.7818Z" fill="#4F32C3"/>
</g>
<g filter="url(#filter3_d)">
<path d="M65.4213 112.831C64.8748 113.885 64.5509 115.102 64.5509 116.379C64.5509 117.657 64.8545 118.873 65.4213 119.928H25.9531C23.9899 119.928 22.4111 118.346 22.4111 116.379C22.4111 115.406 22.8159 114.514 23.4434 113.865C24.0911 113.216 24.9816 112.831 25.9531 112.831H65.4213Z" fill="#4F32C3"/>
<path d="M122.074 116.379C122.074 117.353 121.669 118.245 121.041 118.894C120.394 119.542 119.503 119.928 118.532 119.928H79.0635C79.3873 119.299 79.6302 118.61 79.7719 117.9C79.8731 117.413 79.9136 116.906 79.9136 116.379C79.9136 115.852 79.8528 115.345 79.7719 114.858C79.6302 114.149 79.3873 113.459 79.0635 112.831H118.532C120.495 112.831 122.074 114.433 122.074 116.379Z" fill="#D8D9EC"/>
<path d="M119.523 116.379C119.523 116.805 119.362 117.17 119.078 117.454C118.795 117.738 118.431 117.9 118.005 117.9H79.772C79.8732 117.414 79.9137 116.907 79.9137 116.379C79.9137 115.852 79.8529 115.345 79.772 114.859H118.005C118.835 114.859 119.523 115.548 119.523 116.379Z" fill="white"/>
<path d="M82.1398 112.831C80.6825 108.776 76.7964 105.856 72.2424 105.856C67.6884 105.856 63.8023 108.755 62.345 112.831C61.9402 113.946 61.7378 115.142 61.7378 116.379C61.7378 117.637 61.9604 118.833 62.345 119.928C63.8023 123.983 67.6884 126.903 72.2424 126.903C76.7964 126.903 80.6825 124.003 82.1398 119.928C82.5446 118.813 82.747 117.616 82.747 116.379C82.747 115.142 82.5243 113.946 82.1398 112.831ZM72.2424 124.085C69.2671 124.085 66.6966 122.402 65.4215 119.948C64.875 118.894 64.5512 117.677 64.5512 116.4C64.5512 115.122 64.8548 113.906 65.4215 112.851C66.6966 110.377 69.2671 108.715 72.2424 108.715C75.1974 108.715 77.7882 110.398 79.0633 112.851C79.63 113.906 79.9336 115.122 79.9336 116.4C79.9336 117.677 79.63 118.894 79.0633 119.948C77.7882 122.402 75.1974 124.085 72.2424 124.085Z" fill="#4F32C3"/>
<path d="M75.9664 111.776H68.5183C68.3969 111.776 68.3159 111.675 68.3159 111.574V111.452C68.3159 111.33 68.4171 111.249 68.5183 111.249H75.9664C76.0878 111.249 76.1687 111.351 76.1687 111.452V111.574C76.189 111.695 76.0878 111.776 75.9664 111.776Z" fill="#4F32C3"/>
<path d="M77.6259 114.21H66.8586C66.7372 114.21 66.6562 114.108 66.6562 114.007V113.885C66.6562 113.764 66.7574 113.683 66.8586 113.683H77.6259C77.7473 113.683 77.8283 113.784 77.8283 113.885V114.007C77.8485 114.129 77.7473 114.21 77.6259 114.21Z" fill="#4F32C3"/>
<path d="M78.8605 116.643H65.6443C65.5229 116.643 65.4419 116.542 65.4419 116.44V116.318C65.4419 116.197 65.5431 116.116 65.6443 116.116H78.8605C78.9819 116.116 79.0629 116.217 79.0629 116.318V116.44C79.0629 116.562 78.9617 116.643 78.8605 116.643Z" fill="#4F32C3"/>
<path d="M77.6259 119.076H66.8586C66.7372 119.076 66.6562 118.975 66.6562 118.874V118.752C66.6562 118.63 66.7574 118.549 66.8586 118.549H77.6259C77.7473 118.549 77.8283 118.65 77.8283 118.752V118.874C77.8485 118.995 77.7473 119.076 77.6259 119.076Z" fill="#4F32C3"/>
<path d="M75.9664 121.53H68.5183C68.3969 121.53 68.3159 121.428 68.3159 121.327V121.205C68.3159 121.084 68.4171 121.002 68.5183 121.002H75.9664C76.0878 121.002 76.1687 121.104 76.1687 121.205V121.327C76.189 121.428 76.0878 121.53 75.9664 121.53Z" fill="#4F32C3"/>
</g>
<g filter="url(#filter4_d)">
<path d="M149.483 67.9551C149.483 68.9606 149.305 69.9175 148.997 70.7932C147.832 74.0368 144.74 76.3721 141.081 76.3721C137.439 76.3721 134.33 74.053 133.165 70.7932C132.841 69.9012 132.679 68.9444 132.679 67.9551C132.679 66.9658 132.857 66.009 133.165 65.117C134.33 61.8734 137.422 59.5381 141.081 59.5381C144.723 59.5381 147.832 61.8572 148.997 65.117C149.321 66.009 149.483 66.9658 149.483 67.9551Z" fill="#FF7352"/>
<path d="M141.081 73.8422C140.612 73.8422 140.142 73.6801 139.754 73.3557L134.751 69.0742C133.893 68.3444 133.78 67.047 134.525 66.1712C135.253 65.3117 136.548 65.1982 137.422 65.9442L140.887 68.912L149.612 58.9543C150.357 58.0948 151.652 58.0137 152.51 58.7597C153.368 59.5057 153.449 60.8031 152.704 61.6627L142.651 73.1449C142.23 73.6152 141.648 73.8422 141.081 73.8422Z" fill="white"/>
</g>
<g filter="url(#filter5_d)">
<path d="M149.483 91.2361C149.483 92.2254 149.305 93.1985 148.997 94.0742C147.832 97.3178 144.74 99.6531 141.081 99.6531C137.439 99.6531 134.33 97.334 133.165 94.0742C132.841 93.1822 132.679 92.2254 132.679 91.2361C132.679 90.2468 132.857 89.2738 133.165 88.398C134.33 85.1544 137.422 82.8191 141.081 82.8191C144.723 82.8191 147.832 85.1382 148.997 88.398C149.321 89.2738 149.483 90.2306 149.483 91.2361Z" fill="#FF7352"/>
<path d="M141.081 97.1069C140.612 97.1069 140.142 96.9447 139.754 96.6204L134.751 92.3389C133.893 91.6091 133.78 90.3116 134.525 89.4359C135.253 88.5763 136.548 88.4628 137.422 89.2088L140.887 92.1767L149.612 82.219C150.357 81.3594 151.652 81.2783 152.51 82.0243C153.368 82.7704 153.449 84.0678 152.704 84.9273L142.651 96.4095C142.23 96.8798 141.648 97.1069 141.081 97.1069Z" fill="white"/>
</g>
<g filter="url(#filter6_d)">
<path d="M149.483 114.647C149.483 115.636 149.305 116.609 148.997 117.485C147.832 120.728 144.74 123.064 141.081 123.064C137.439 123.064 134.33 120.744 133.165 117.485C132.841 116.593 132.679 115.636 132.679 114.647C132.679 113.657 132.857 112.684 133.165 111.808C134.33 108.565 137.422 106.229 141.081 106.229C144.723 106.229 147.832 108.549 148.997 111.808C149.321 112.7 149.483 113.657 149.483 114.647Z" fill="#FF7352"/>
<path d="M141.081 120.388C140.612 120.388 140.142 120.225 139.754 119.901L134.751 115.62C133.893 114.89 133.78 113.592 134.525 112.717C135.253 111.857 136.548 111.744 137.422 112.49L140.887 115.457L149.612 105.5C150.357 104.64 151.652 104.559 152.51 105.305C153.368 106.051 153.449 107.349 152.704 108.208L142.651 119.69C142.23 120.161 141.648 120.388 141.081 120.388Z" fill="white"/>
</g>
</g>
<defs>
<filter id="filter0_d" x="67.4785" y="11.2856" width="43.778" height="54.8653" filterUnits="userSpaceOnUse" color-interpolation-filters="sRGB">
<feFlood flood-opacity="0" result="BackgroundImageFix"/>
<feColorMatrix in="SourceAlpha" type="matrix" values="0 0 0 0 0 0 0 0 0 0 0 0 0 0 0 0 0 0 127 0"/>
<feOffset dx="-1" dy="2"/>
<feGaussianBlur stdDeviation="2.5"/>
<feColorMatrix type="matrix" values="0 0 0 0 0.0470588 0 0 0 0 0 0 0 0 0 0.519661 0 0 0 0.1 0"/>
<feBlend mode="normal" in2="BackgroundImageFix" result="effect1_dropShadow"/>
<feBlend mode="normal" in="SourceGraphic" in2="effect1_dropShadow" result="shape"/>
</filter>
<filter id="filter1_d" x="16.4111" y="56.7795" width="109.662" height="31.0473" filterUnits="userSpaceOnUse" color-interpolation-filters="sRGB">
<feFlood flood-opacity="0" result="BackgroundImageFix"/>
<feColorMatrix in="SourceAlpha" type="matrix" values="0 0 0 0 0 0 0 0 0 0 0 0 0 0 0 0 0 0 127 0"/>
<feOffset dx="-1" dy="2"/>
<feGaussianBlur stdDeviation="2.5"/>
<feColorMatrix type="matrix" values="0 0 0 0 0.0470588 0 0 0 0 0 0 0 0 0 0.519661 0 0 0 0.1 0"/>
<feBlend mode="normal" in2="BackgroundImageFix" result="effect1_dropShadow"/>
<feBlend mode="normal" in="SourceGraphic" in2="effect1_dropShadow" result="shape"/>
</filter>
<filter id="filter2_d" x="16.4111" y="79.1282" width="109.662" height="31.0472" filterUnits="userSpaceOnUse" color-interpolation-filters="sRGB">
<feFlood flood-opacity="0" result="BackgroundImageFix"/>
<feColorMatrix in="SourceAlpha" type="matrix" values="0 0 0 0 0 0 0 0 0 0 0 0 0 0 0 0 0 0 127 0"/>
<feOffset dx="-1" dy="2"/>
<feGaussianBlur stdDeviation="2.5"/>
<feColorMatrix type="matrix" values="0 0 0 0 0.0470588 0 0 0 0 0 0 0 0 0 0.519661 0 0 0 0.1 0"/>
<feBlend mode="normal" in2="BackgroundImageFix" result="effect1_dropShadow"/>
<feBlend mode="normal" in="SourceGraphic" in2="effect1_dropShadow" result="shape"/>
</filter>
<filter id="filter3_d" x="16.4111" y="102.856" width="109.663" height="31.0473" filterUnits="userSpaceOnUse" color-interpolation-filters="sRGB">
<feFlood flood-opacity="0" result="BackgroundImageFix"/>
<feColorMatrix in="SourceAlpha" type="matrix" values="0 0 0 0 0 0 0 0 0 0 0 0 0 0 0 0 0 0 127 0"/>
<feOffset dx="-1" dy="2"/>
<feGaussianBlur stdDeviation="2.5"/>
<feColorMatrix type="matrix" values="0 0 0 0 0.0470588 0 0 0 0 0 0 0 0 0 0.519661 0 0 0 0.1 0"/>
<feBlend mode="normal" in2="BackgroundImageFix" result="effect1_dropShadow"/>
<feBlend mode="normal" in="SourceGraphic" in2="effect1_dropShadow" result="shape"/>
</filter>
<filter id="filter4_d" x="126.679" y="55.2505" width="30.5334" height="28.1217" filterUnits="userSpaceOnUse" color-interpolation-filters="sRGB">
<feFlood flood-opacity="0" result="BackgroundImageFix"/>
<feColorMatrix in="SourceAlpha" type="matrix" values="0 0 0 0 0 0 0 0 0 0 0 0 0 0 0 0 0 0 127 0"/>
<feOffset dx="-1" dy="2"/>
<feGaussianBlur stdDeviation="2.5"/>
<feColorMatrix type="matrix" values="0 0 0 0 0.0470588 0 0 0 0 0 0 0 0 0 0.519661 0 0 0 0.1 0"/>
<feBlend mode="normal" in2="BackgroundImageFix" result="effect1_dropShadow"/>
<feBlend mode="normal" in="SourceGraphic" in2="effect1_dropShadow" result="shape"/>
</filter>
<filter id="filter5_d" x="126.679" y="78.5151" width="30.5334" height="28.138" filterUnits="userSpaceOnUse" color-interpolation-filters="sRGB">
<feFlood flood-opacity="0" result="BackgroundImageFix"/>
<feColorMatrix in="SourceAlpha" type="matrix" values="0 0 0 0 0 0 0 0 0 0 0 0 0 0 0 0 0 0 127 0"/>
<feOffset dx="-1" dy="2"/>
<feGaussianBlur stdDeviation="2.5"/>
<feColorMatrix type="matrix" values="0 0 0 0 0.0470588 0 0 0 0 0 0 0 0 0 0.519661 0 0 0 0.1 0"/>
<feBlend mode="normal" in2="BackgroundImageFix" result="effect1_dropShadow"/>
<feBlend mode="normal" in="SourceGraphic" in2="effect1_dropShadow" result="shape"/>
</filter>
<filter id="filter6_d" x="126.679" y="101.796" width="30.5334" height="28.2677" filterUnits="userSpaceOnUse" color-interpolation-filters="sRGB">
<feFlood flood-opacity="0" result="BackgroundImageFix"/>
<feColorMatrix in="SourceAlpha" type="matrix" values="0 0 0 0 0 0 0 0 0 0 0 0 0 0 0 0 0 0 127 0"/>
<feOffset dx="-1" dy="2"/>
<feGaussianBlur stdDeviation="2.5"/>
<feColorMatrix type="matrix" values="0 0 0 0 0.0470588 0 0 0 0 0 0 0 0 0 0.519661 0 0 0 0.1 0"/>
<feBlend mode="normal" in2="BackgroundImageFix" result="effect1_dropShadow"/>
<feBlend mode="normal" in="SourceGraphic" in2="effect1_dropShadow" result="shape"/>
</filter>
<clipPath id="clip0">
<rect width="154" height="120" fill="white" transform="translate(13 10)"/>
</clipPath>
</defs>
</svg>
