<svg width="180" height="140" viewBox="0 0 180 140" fill="none" xmlns="http://www.w3.org/2000/svg">
<g clip-path="url(#clip0)">
<path opacity="0.7" d="M32.4645 90.6906C22.5381 58.9451 59.3999 17.945 97.3038 11.2208C101.772 10.4245 128.443 5.71755 145.487 22.1742C168.413 44.3111 163.75 94.8844 134.166 117.004C100.094 142.449 42.5675 123.002 32.4645 90.6906Z" fill="#EFF0F9"/>
<g filter="url(#filter0_d)">
<path d="M89.9992 10.8572L139.622 51.3069L89.8091 94L40.3779 51.3069L89.9992 10.8572Z" fill="#4F32C3"/>
</g>
<g filter="url(#filter1_d)">
<path d="M121.457 22.8572H58.4559C56.9769 22.8572 55.7778 25.368 55.7778 28.4652V102.17C55.7778 105.267 56.9769 107.778 58.4559 107.778H121.457C122.936 107.778 124.135 105.267 124.135 102.17V28.4652C124.135 25.368 122.936 22.8572 121.457 22.8572Z" fill="white"/>
</g>
<path d="M117.246 51.6206H62.6676C61.8828 51.6206 61.2466 51.8376 61.2466 52.1054V53.8752C61.2466 54.1429 61.8828 54.36 62.6676 54.36H117.246C118.031 54.36 118.667 54.1429 118.667 53.8752V52.1054C118.667 51.8376 118.031 51.6206 117.246 51.6206Z" fill="#D8D9EC"/>
<path d="M117.246 55.7295H62.6676C61.8828 55.7295 61.2466 55.9465 61.2466 56.2143V57.9841C61.2466 58.2518 61.8828 58.4689 62.6676 58.4689H117.246C118.031 58.4689 118.667 58.2518 118.667 57.9841V56.2143C118.667 55.9465 118.031 55.7295 117.246 55.7295Z" fill="#D8D9EC"/>
<path d="M117.246 59.8386H62.6676C61.8828 59.8386 61.2466 60.0557 61.2466 60.3234V62.0932C61.2466 62.361 61.8828 62.578 62.6676 62.578H117.246C118.031 62.578 118.667 62.361 118.667 62.0932V60.3234C118.667 60.0557 118.031 59.8386 117.246 59.8386Z" fill="#D8D9EC"/>
<path d="M117.246 63.9478H62.6676C61.8828 63.9478 61.2466 64.1648 61.2466 64.4325V66.2024C61.2466 66.4701 61.8828 66.6871 62.6676 66.6871H117.246C118.031 66.6871 118.667 66.4701 118.667 66.2024V64.4325C118.667 64.1648 118.031 63.9478 117.246 63.9478Z" fill="#D8D9EC"/>
<path d="M117.246 68.0569H62.6676C61.8828 68.0569 61.2466 68.2739 61.2466 68.5417V70.3115C61.2466 70.5792 61.8828 70.7963 62.6676 70.7963H117.246C118.031 70.7963 118.667 70.5792 118.667 70.3115V68.5417C118.667 68.2739 118.031 68.0569 117.246 68.0569Z" fill="#D8D9EC"/>
<path d="M117.246 72.1658H62.6676C61.8828 72.1658 61.2466 72.3828 61.2466 72.6505V74.4204C61.2466 74.6881 61.8828 74.9051 62.6676 74.9051H117.246C118.031 74.9051 118.667 74.6881 118.667 74.4204V72.6505C118.667 72.3828 118.031 72.1658 117.246 72.1658Z" fill="#D8D9EC"/>
<path d="M117.246 76.2749H62.6676C61.8828 76.2749 61.2466 76.4919 61.2466 76.7597V78.5295C61.2466 78.7972 61.8828 79.0143 62.6676 79.0143H117.246C118.031 79.0143 118.667 78.7972 118.667 78.5295V76.7597C118.667 76.4919 118.031 76.2749 117.246 76.2749Z" fill="#D8D9EC"/>
<path d="M117.246 80.384H62.6676C61.8828 80.384 61.2466 80.6011 61.2466 80.8688V82.6386C61.2466 82.9064 61.8828 83.1234 62.6676 83.1234H117.246C118.031 83.1234 118.667 82.9064 118.667 82.6386V80.8688C118.667 80.6011 118.031 80.384 117.246 80.384Z" fill="#D8D9EC"/>
<path d="M117.246 84.4929H62.6676C61.8828 84.4929 61.2466 84.71 61.2466 84.9777V86.7475C61.2466 87.0153 61.8828 87.2323 62.6676 87.2323H117.246C118.031 87.2323 118.667 87.0153 118.667 86.7475V84.9777C118.667 84.71 118.031 84.4929 117.246 84.4929Z" fill="#D8D9EC"/>
<path d="M73.584 43.2034C73.5287 43.9683 73.2455 44.5706 72.7344 45.01C72.2266 45.4495 71.556 45.6692 70.7227 45.6692C69.8113 45.6692 69.0935 45.3632 68.5694 44.7512C68.0486 44.136 67.7881 43.2929 67.7881 42.2219V41.7874C67.7881 41.1038 67.9086 40.5015 68.1495 39.9807C68.3904 39.4599 68.7338 39.0611 69.1797 38.7844C69.629 38.5045 70.1498 38.3645 70.7422 38.3645C71.5626 38.3645 72.2234 38.5842 72.7247 39.0237C73.226 39.4631 73.5157 40.08 73.5938 40.8743H72.129C72.0932 40.4153 71.9646 40.0833 71.7432 39.8782C71.5251 39.6698 71.1915 39.5657 70.7422 39.5657C70.254 39.5657 69.8877 39.7415 69.6436 40.093C69.4027 40.4413 69.279 40.9833 69.2725 41.719V42.2561C69.2725 43.0243 69.3881 43.5859 69.6192 43.9407C69.8536 44.2955 70.2214 44.4729 70.7227 44.4729C71.1752 44.4729 71.5121 44.3704 71.7335 44.1653C71.9581 43.9569 72.0866 43.6363 72.1192 43.2034H73.584ZM74.2335 42.8811C74.2335 42.357 74.3344 41.8899 74.5362 41.4797C74.738 41.0696 75.0277 40.7522 75.4053 40.5276C75.7862 40.303 76.2273 40.1907 76.7286 40.1907C77.4415 40.1907 78.0225 40.4088 78.4717 40.845C78.9242 41.2812 79.1765 41.8736 79.2286 42.6223L79.2383 42.9836C79.2383 43.7942 79.0121 44.4452 78.5596 44.9368C78.1071 45.425 77.5001 45.6692 76.7383 45.6692C75.9766 45.6692 75.3679 45.425 74.9122 44.9368C74.4597 44.4485 74.2335 43.7844 74.2335 42.9446V42.8811ZM75.6446 42.9836C75.6446 43.4849 75.739 43.8691 75.9278 44.136C76.1166 44.3997 76.3868 44.5315 76.7383 44.5315C77.0801 44.5315 77.3471 44.4013 77.5391 44.1409C77.7312 43.8772 77.8272 43.4573 77.8272 42.8811C77.8272 42.3896 77.7312 42.0087 77.5391 41.7385C77.3471 41.4683 77.0769 41.3333 76.7286 41.3333C76.3835 41.3333 76.1166 41.4683 75.9278 41.7385C75.739 42.0055 75.6446 42.4205 75.6446 42.9836ZM81.4063 40.2883L81.4502 40.8987C81.8279 40.4267 82.334 40.1907 82.9688 40.1907C83.5287 40.1907 83.9454 40.3551 84.2188 40.6838C84.4922 41.0126 84.6322 41.5042 84.6387 42.1584V45.5715H83.2276V42.1926C83.2276 41.8931 83.1625 41.6767 83.0323 41.5432C82.9021 41.4065 82.6856 41.3381 82.3829 41.3381C81.9857 41.3381 81.6879 41.5074 81.4893 41.8459V45.5715H80.0782V40.2883H81.4063ZM86.0547 45.5715V41.3235H85.2686V40.2883H86.0547V40.0442C86.0613 39.3801 86.2647 38.8691 86.6651 38.511C87.0687 38.1497 87.6368 37.969 88.3692 37.969C88.8086 37.969 89.3425 38.065 89.9708 38.2571L89.7657 39.4241C89.4467 39.3297 89.1993 39.2694 89.0235 39.2434C88.8477 39.2141 88.6589 39.1995 88.4571 39.1995C87.7995 39.1995 87.4708 39.4908 87.4708 40.0735V40.2883H88.5108V41.3235H87.4708V45.5715H86.0547ZM90.6299 45.5715H89.2139V40.2883H90.6299V45.5715ZM94.7657 41.6116C94.5736 41.5855 94.4044 41.5725 94.2579 41.5725C93.724 41.5725 93.3741 41.7532 93.2081 42.1145V45.5715H91.7969V40.2883H93.1299L93.169 40.9182C93.4522 40.4332 93.8445 40.1907 94.3458 40.1907C94.502 40.1907 94.6485 40.2118 94.7852 40.2542L94.7657 41.6116ZM96.7725 40.2883L96.8165 40.8792C97.1908 40.4202 97.697 40.1907 98.335 40.1907C99.0154 40.1907 99.4825 40.4592 99.7364 40.9963C100.107 40.4592 100.636 40.1907 101.323 40.1907C101.896 40.1907 102.323 40.3583 102.603 40.6936C102.883 41.0256 103.023 41.5269 103.023 42.1975V45.5715H101.606V42.2024C101.606 41.9029 101.548 41.6848 101.431 41.5481C101.314 41.4081 101.107 41.3381 100.811 41.3381C100.387 41.3381 100.094 41.54 99.9317 41.9436L99.9366 45.5715H98.5254V42.2073C98.5254 41.9013 98.4652 41.6799 98.3448 41.5432C98.2243 41.4065 98.0193 41.3381 97.7295 41.3381C97.3292 41.3381 97.0394 41.5042 96.8604 41.8362V45.5715H95.4493V40.2883H96.7725ZM106.543 45.6692C105.768 45.6692 105.137 45.4316 104.648 44.9563C104.163 44.481 103.921 43.8479 103.921 43.0569V42.9202C103.921 42.3896 104.023 41.9159 104.229 41.4993C104.434 41.0793 104.723 40.7571 105.098 40.5325C105.475 40.3046 105.905 40.1907 106.387 40.1907C107.109 40.1907 107.677 40.4185 108.091 40.8743C108.508 41.33 108.716 41.9762 108.716 42.8127V43.3889H105.352C105.397 43.734 105.534 44.0107 105.762 44.219C105.993 44.4273 106.284 44.5315 106.636 44.5315C107.179 44.5315 107.604 44.3346 107.91 43.9407L108.604 44.717C108.392 45.0165 108.106 45.2509 107.744 45.4202C107.383 45.5862 106.982 45.6692 106.543 45.6692ZM106.382 41.3333C106.102 41.3333 105.874 41.4277 105.698 41.6165C105.526 41.8053 105.415 42.0754 105.366 42.427H107.329V42.3147C107.323 42.0022 107.238 41.7613 107.075 41.592C106.912 41.4195 106.681 41.3333 106.382 41.3333ZM112.49 41.6116C112.298 41.5855 112.129 41.5725 111.982 41.5725C111.449 41.5725 111.099 41.7532 110.933 42.1145V45.5715H109.522V40.2883H110.855L110.894 40.9182C111.177 40.4332 111.569 40.1907 112.07 40.1907C112.227 40.1907 112.373 40.2118 112.51 40.2542L112.49 41.6116Z" fill="#8D8DA9"/>
<path d="M55.7935 24.8572C55.7935 23.7526 56.6889 22.8572 57.7935 22.8572H122.222C123.326 22.8572 124.222 23.7526 124.222 24.8572V30.0095H55.7935V24.8572Z" fill="#FF7352"/>
<g filter="url(#filter2_d)">
<path d="M139.622 51.1428V112.596C139.618 114.028 139.046 115.401 138.031 116.413C137.016 117.425 135.641 117.996 134.206 118H45.5991C42.1803 118 139.622 51.1428 139.622 51.1428Z" fill="#FBFBFD"/>
</g>
<g filter="url(#filter3_d)">
<path d="M40.3779 51.1428V112.596C40.3825 114.028 40.9547 115.401 41.9696 116.413C42.9845 117.425 44.3597 117.996 45.7948 118H134.401C137.82 118 40.3779 51.1428 40.3779 51.1428Z" fill="#D8D9EC"/>
</g>
<path d="M147.322 108.143C147.322 110.447 146.914 112.639 146.21 114.646C143.539 122.078 136.455 127.429 128.072 127.429C119.727 127.429 112.606 122.115 109.935 114.646C109.193 112.602 108.822 110.41 108.822 108.143C108.822 105.876 109.23 103.684 109.935 101.64C112.606 94.2081 119.69 88.8572 128.072 88.8572C136.418 88.8572 143.539 94.171 146.21 101.64C146.951 103.684 147.322 105.876 147.322 108.143Z" fill="#78CF9B"/>
<path d="M129.368 117.768C128.541 117.768 127.713 117.481 127.029 116.909L118.214 109.35C116.702 108.062 116.502 105.771 117.815 104.225C119.098 102.708 121.38 102.507 122.921 103.824L129.026 109.064L144.401 91.4842C145.714 89.9668 147.996 89.8236 149.508 91.1407C151.019 92.4577 151.162 94.7482 149.85 96.2657L132.135 116.537C131.393 117.367 130.366 117.768 129.368 117.768Z" fill="white"/>
</g>
<defs>
<filter id="filter0_d" x="34.3779" y="7.85718" width="109.244" height="93.1429" filterUnits="userSpaceOnUse" color-interpolation-filters="sRGB">
<feFlood flood-opacity="0" result="BackgroundImageFix"/>
<feColorMatrix in="SourceAlpha" type="matrix" values="0 0 0 0 0 0 0 0 0 0 0 0 0 0 0 0 0 0 127 0"/>
<feOffset dx="-1" dy="2"/>
<feGaussianBlur stdDeviation="2.5"/>
<feColorMatrix type="matrix" values="0 0 0 0 0.0470588 0 0 0 0 0 0 0 0 0 0.519661 0 0 0 0.1 0"/>
<feBlend mode="normal" in2="BackgroundImageFix" result="effect1_dropShadow"/>
<feBlend mode="normal" in="SourceGraphic" in2="effect1_dropShadow" result="shape"/>
</filter>
<filter id="filter1_d" x="49.7778" y="19.8572" width="78.3575" height="94.9205" filterUnits="userSpaceOnUse" color-interpolation-filters="sRGB">
<feFlood flood-opacity="0" result="BackgroundImageFix"/>
<feColorMatrix in="SourceAlpha" type="matrix" values="0 0 0 0 0 0 0 0 0 0 0 0 0 0 0 0 0 0 127 0"/>
<feOffset dx="-1" dy="2"/>
<feGaussianBlur stdDeviation="2.5"/>
<feColorMatrix type="matrix" values="0 0 0 0 0.0470588 0 0 0 0 0 0 0 0 0 0.519661 0 0 0 0.1 0"/>
<feBlend mode="normal" in2="BackgroundImageFix" result="effect1_dropShadow"/>
<feBlend mode="normal" in="SourceGraphic" in2="effect1_dropShadow" result="shape"/>
</filter>
<filter id="filter2_d" x="39.5112" y="48.1428" width="104.111" height="76.8571" filterUnits="userSpaceOnUse" color-interpolation-filters="sRGB">
<feFlood flood-opacity="0" result="BackgroundImageFix"/>
<feColorMatrix in="SourceAlpha" type="matrix" values="0 0 0 0 0 0 0 0 0 0 0 0 0 0 0 0 0 0 127 0"/>
<feOffset dx="-1" dy="2"/>
<feGaussianBlur stdDeviation="2.5"/>
<feColorMatrix type="matrix" values="0 0 0 0 0.0470588 0 0 0 0 0 0 0 0 0 0.519661 0 0 0 0.1 0"/>
<feBlend mode="normal" in2="BackgroundImageFix" result="effect1_dropShadow"/>
<feBlend mode="normal" in="SourceGraphic" in2="effect1_dropShadow" result="shape"/>
</filter>
<filter id="filter3_d" x="34.3779" y="48.1428" width="104.111" height="76.8571" filterUnits="userSpaceOnUse" color-interpolation-filters="sRGB">
<feFlood flood-opacity="0" result="BackgroundImageFix"/>
<feColorMatrix in="SourceAlpha" type="matrix" values="0 0 0 0 0 0 0 0 0 0 0 0 0 0 0 0 0 0 127 0"/>
<feOffset dx="-1" dy="2"/>
<feGaussianBlur stdDeviation="2.5"/>
<feColorMatrix type="matrix" values="0 0 0 0 0.0470588 0 0 0 0 0 0 0 0 0 0.519661 0 0 0 0.1 0"/>
<feBlend mode="normal" in2="BackgroundImageFix" result="effect1_dropShadow"/>
<feBlend mode="normal" in="SourceGraphic" in2="effect1_dropShadow" result="shape"/>
</filter>
<clipPath id="clip0">
<rect width="154" height="120" fill="white" transform="translate(13 10)"/>
</clipPath>
</defs>
</svg>
