<svg width="180" height="140" viewBox="0 0 180 140" fill="none" xmlns="http://www.w3.org/2000/svg">
<g clip-path="url(#clip0)">
<path opacity="0.7" d="M32.464 90.6908C22.5376 58.9454 59.3994 17.9453 97.3033 11.221C101.772 10.4248 128.442 5.71779 145.487 22.1745C168.413 44.3113 163.75 94.8846 134.165 117.004C100.094 142.45 42.567 123.002 32.464 90.6908Z" fill="#EFF0F9"/>
<g filter="url(#filter0_d)">
<path d="M79.1109 46.5587L75.2428 50.6994L67.5066 58.9631L57.7392 69.421C56.6794 67.9877 55.4077 66.7313 53.9771 65.6696L63.6915 55.2825L71.4277 47.001L75.4018 42.7542C75.7727 44.6652 77.2387 46.1517 79.1109 46.5587Z" fill="#D8D9EC"/>
<path d="M105.799 64.307L109.72 68.3415C107.883 68.837 106.47 70.4118 106.205 72.3406L102.107 68.1292L85.0631 50.5931L81.0537 46.4701C82.9436 46.0985 84.4273 44.6297 84.8512 42.7717L88.8606 46.8947L105.799 64.307Z" fill="#D8D9EC"/>
<path d="M137.415 49.3722L130.491 56.7865L119.876 68.1469L115.796 72.5C115.584 70.5535 114.206 68.9432 112.387 68.3947L116.202 64.3247L126.429 53.389L133.671 45.6384C134.642 47.1248 135.931 48.3989 137.415 49.3722Z" fill="#D8D9EC"/>
<path d="M69.3612 64.024L62.1549 65.7758C60.7949 63.9886 59.2052 62.4314 57.439 61.1219L59.0816 53.8845C59.3112 52.8759 58.7637 51.8319 57.8099 51.4426L57.4566 51.301L53.147 49.5492C52.935 49.4607 52.7231 49.4076 52.5111 49.4076C51.734 49.3545 50.9745 49.7261 50.5506 50.4162L46.6825 56.7512C44.51 56.4503 42.2845 56.468 40.059 56.8042L36.1026 50.5224C35.555 49.6376 34.4423 49.3014 33.4885 49.7084L28.8433 51.6726C27.8895 52.0796 27.3596 53.1236 27.6069 54.1322L29.3555 61.352C27.5716 62.7145 26.0173 64.3071 24.7102 66.0766L17.4862 64.4309C16.4795 64.2009 15.4374 64.7495 15.0488 65.705L13.1589 70.3589C12.7703 71.3144 13.1412 72.4292 14.0244 72.9778L20.3476 76.8531C20.0473 79.0296 20.065 81.2592 20.4006 83.4888L14.1303 87.4349C13.2472 87.9835 12.9116 89.0983 13.3179 90.0538L15.2784 94.69C15.6846 95.6455 16.7267 96.1764 17.7335 95.9287L24.9398 94.1768C26.2999 95.9641 27.8895 97.5213 29.6557 98.8307L27.9955 106.086C27.7658 107.094 28.2957 108.138 29.2672 108.528L33.9301 110.421C34.8839 110.81 35.9966 110.439 36.5441 109.554L40.4123 103.219C42.5847 103.52 44.8102 103.502 47.0357 103.166L50.9921 109.448C51.5397 110.333 52.6524 110.669 53.6062 110.28L58.2515 108.315C59.2052 107.908 59.7351 106.864 59.4878 105.856L57.7392 98.6361C59.5232 97.2735 61.0775 95.6809 62.3845 93.9114L69.6085 95.5571C70.6153 95.7871 71.6573 95.2386 72.0459 94.283L73.9358 89.6114C74.3244 88.6382 73.9535 87.5411 73.0704 86.9925L66.7472 83.1172C67.0474 80.9407 67.0298 78.7111 66.6942 76.4815L72.9644 72.5177C73.8475 71.9692 74.1831 70.8544 73.7769 69.8988L71.8163 65.2626C71.4101 64.3071 70.3856 63.7762 69.3612 64.024ZM40.4299 70.1642C41.9489 69.6688 43.5209 69.5626 45.0398 69.7926C45.6934 69.8811 46.3292 70.0404 46.9474 70.2704L45.3224 74.2342C44.298 73.9157 43.2029 73.8626 42.1079 74.1457C41.8076 74.2165 41.5073 74.3227 41.2071 74.4465C40.9068 74.5704 40.6242 74.7119 40.3593 74.8889C39.4055 75.4728 38.6813 76.3045 38.1868 77.2601L34.2127 75.6498C35.1311 73.6856 36.6501 71.9869 38.6813 70.9074C38.9639 70.7659 39.2465 70.6243 39.5291 70.5005C39.8294 70.3589 40.1297 70.2527 40.4299 70.1642ZM48.6254 76.8C48.0425 75.8444 47.2123 75.1189 46.2586 74.6235L46.5765 73.8449L47.8659 70.642C48.59 70.9782 49.2612 71.3852 49.8971 71.8807C50.9921 72.7301 51.9106 73.8272 52.5994 75.1189C52.7407 75.4021 52.882 75.6852 53.0057 75.9683C53.1293 76.2691 53.2353 76.5523 53.3413 76.8531C54.0478 79.0473 53.9594 81.3123 53.2529 83.365L49.2789 81.7547C49.5968 80.7284 49.6498 79.6313 49.3672 78.5341C49.2965 78.2333 49.1906 77.9325 49.0669 77.6317C48.9433 77.3486 48.802 77.0654 48.6254 76.8ZM46.7708 78.6049C46.8944 78.9057 46.9827 79.2243 47.0181 79.5251C47.177 80.7461 46.6825 81.967 45.7287 82.7279C45.4814 82.9226 45.2165 83.0818 44.8985 83.2234C44.5983 83.3473 44.298 83.4358 43.9801 83.4711C42.7614 83.6304 41.5427 83.1349 40.7832 82.1794C40.5889 81.9316 40.4299 81.6662 40.2886 81.3477C40.165 81.0469 40.0767 80.7284 40.0413 80.4275C39.8824 79.2066 40.3769 77.9856 41.3307 77.2247C41.578 77.03 41.8429 76.8708 42.1432 76.7292C42.4434 76.6053 42.7614 76.5169 43.0616 76.4815C44.2804 76.3222 45.4991 76.8177 46.2586 77.7732C46.4882 78.0387 46.6471 78.3041 46.7708 78.6049ZM38.4517 83.1703C39.0346 84.1259 39.8647 84.8514 40.8185 85.3469L39.2112 89.3283C37.2507 88.4081 35.555 86.8863 34.4776 84.8514C34.3363 84.5683 34.195 84.2851 34.0714 84.002C33.9478 83.7012 33.8418 83.4181 33.7535 83.1172C33.047 80.923 33.1353 78.6403 33.8418 76.6053L37.8159 78.2156C37.4979 79.242 37.4449 80.3568 37.7275 81.4362C37.7982 81.737 37.9042 82.0378 38.0278 82.3386C38.1338 82.6218 38.2927 82.9049 38.4517 83.1703ZM25.8583 80.2152C25.8583 80.1444 25.8583 80.0736 25.8583 80.0029C25.8583 75.3844 27.6599 70.9251 30.8745 67.6161C30.9274 67.563 30.9628 67.5099 31.0158 67.4745C32.3758 66.112 33.9831 64.9441 35.7847 64.0593L38.1514 69.6865C38.1161 69.7749 38.0455 69.8457 37.9572 69.8811C37.7275 70.005 37.4449 69.9342 37.3036 69.7042C37.2153 69.7572 37.127 69.8103 37.0387 69.8634C37.18 70.0758 37.127 70.3766 36.9151 70.5181C36.7031 70.6774 36.4028 70.6243 36.2615 70.412C36.1732 70.4651 36.1026 70.5358 36.0319 70.6066C36.1909 70.8013 36.1732 71.1021 35.9789 71.279C35.7847 71.456 35.4844 71.4383 35.3078 71.2437C35.2371 71.3144 35.1665 71.3852 35.0958 71.456C35.2901 71.633 35.2901 71.9338 35.1135 72.1284C34.9369 72.3231 34.6366 72.3231 34.4423 72.1638C34.3717 72.2346 34.3187 72.3231 34.248 72.3939C34.46 72.5531 34.4953 72.8539 34.3363 73.0663C34.1774 73.2786 33.8771 73.314 33.6828 73.1724C33.6298 73.2609 33.5768 73.3494 33.5062 73.4202C33.7181 73.5617 33.7888 73.8449 33.6651 74.0749C33.5238 74.305 33.2412 74.3757 33.0116 74.2519C32.9586 74.3403 32.9233 74.4288 32.8703 74.5173C33.0999 74.6235 33.2059 74.9066 33.0999 75.1543C32.994 75.3844 32.7114 75.4905 32.4818 75.3844C32.4464 75.4728 32.4111 75.579 32.3758 75.6675C32.6231 75.756 32.7467 76.0214 32.6584 76.2691C32.5701 76.5169 32.3051 76.6407 32.0579 76.57C32.0225 76.6584 32.0049 76.7646 31.9695 76.8531C32.2168 76.9239 32.3758 77.1716 32.3228 77.4193C32.2698 77.6671 32.0225 77.8263 31.7576 77.7732C31.7399 77.8794 31.7223 77.9679 31.7046 78.0741C31.9519 78.1095 32.1462 78.3395 32.1108 78.6049C32.0755 78.8704 31.8459 79.0473 31.581 79.0296C31.581 79.1358 31.5633 79.2243 31.5633 79.3304C31.8282 79.3481 32.0225 79.5605 32.0225 79.8082C32.0225 80.0736 31.8106 80.286 31.5456 80.286C31.5456 80.3922 31.5456 80.4806 31.5456 80.5868C31.8106 80.5691 32.0402 80.7638 32.0579 81.0292C32.0755 81.2946 31.8989 81.5247 31.634 81.5424C31.6516 81.6485 31.6516 81.737 31.6693 81.8432C31.9166 81.7901 32.1638 81.967 32.2168 82.2148C32.2698 82.4802 32.0932 82.7279 31.8459 82.781C31.8636 82.8872 31.8989 82.9757 31.9166 83.0818C32.1638 83.0111 32.4288 83.1526 32.4994 83.4004C32.5347 83.4888 32.5171 83.595 32.4994 83.6835L26.8827 86.0547C26.2292 84.0905 25.8936 82.144 25.8583 80.2152ZM49.5438 96.6365C47.6362 97.3266 45.6934 97.6628 43.7681 97.6982C43.6975 97.6982 43.6268 97.6982 43.5562 97.6982C38.9463 97.6982 34.4953 95.8933 31.1924 92.6727C31.1394 92.6196 31.0864 92.5843 31.0511 92.5312C29.6911 91.1686 28.5253 89.5583 27.6422 87.7534L33.2589 85.3822C33.3472 85.4176 33.4179 85.4884 33.4532 85.5769C33.5768 85.8069 33.5062 86.0901 33.2766 86.2139C33.3296 86.3024 33.3825 86.3909 33.4355 86.4794C33.6475 86.3378 33.9478 86.3909 34.0891 86.6032C34.2304 86.8156 34.195 87.1164 33.9831 87.2579C34.0361 87.3464 34.1067 87.4172 34.1774 87.488C34.3717 87.3287 34.6719 87.3464 34.8485 87.5411C35.0252 87.7357 35.0075 88.0365 34.8132 88.2135C34.8839 88.2843 34.9545 88.3551 35.0252 88.4258C35.2018 88.2312 35.5021 88.2312 35.6963 88.4081C35.8906 88.5851 35.8906 88.8859 35.7317 89.0806C35.8023 89.1514 35.8906 89.2044 35.9613 89.2752C36.1202 89.0629 36.4205 89.0275 36.6325 89.1867C36.8444 89.346 36.8797 89.6468 36.7384 89.8415C36.8267 89.8946 36.8974 89.9476 36.9857 90.0007C37.127 89.7884 37.4096 89.7176 37.6392 89.8415C37.8688 89.983 37.9395 90.2662 37.8159 90.4962C37.9042 90.5493 37.9925 90.5847 38.0808 90.6378C38.1868 90.4077 38.4694 90.3016 38.7166 90.4254C38.9463 90.5316 39.0522 90.8147 38.9463 91.0448C39.0346 91.0801 39.1405 91.1155 39.2289 91.1509C39.3172 90.9032 39.5821 90.7793 39.8294 90.8678C40.0767 90.9563 40.2003 91.2217 40.1297 91.4694C40.218 91.5048 40.3239 91.5225 40.4123 91.5579C40.4829 91.3102 40.7302 91.1509 40.9775 91.204C41.2247 91.2571 41.3837 91.5225 41.3307 91.7703C41.4367 91.788 41.525 91.8057 41.631 91.8233C41.6663 91.5579 41.8959 91.381 42.1608 91.4164C42.4258 91.4518 42.6024 91.6818 42.5847 91.9472C42.6907 91.9649 42.779 91.9649 42.885 91.9649C42.9027 91.6995 43.1146 91.5048 43.3796 91.5048C43.6445 91.5048 43.8565 91.7172 43.8388 91.9826C43.9448 91.9826 44.0331 91.9826 44.1391 91.9649C44.1214 91.6995 44.3157 91.4694 44.5806 91.4517C44.8456 91.4341 45.0752 91.6287 45.0928 91.8764C45.1988 91.8587 45.2871 91.841 45.3931 91.841C45.3578 91.5933 45.5167 91.3456 45.7817 91.2925C46.029 91.2394 46.2939 91.4164 46.3292 91.6641C46.4352 91.6464 46.5235 91.611 46.6295 91.5933C46.5588 91.3456 46.7001 91.0801 46.9474 91.0094C47.0357 90.974 47.1417 90.9917 47.23 91.0094L49.5438 96.6365ZM46.6648 89.8061C44.4746 90.5139 42.1962 90.4254 40.165 89.7176L41.7723 85.7361C42.7967 86.0547 43.8918 86.1078 44.9869 85.8246C45.2871 85.7538 45.5874 85.6477 45.8876 85.5238C46.1879 85.3999 46.4705 85.2407 46.7355 85.0814C47.6892 84.4975 48.4134 83.6658 48.908 82.7102L52.882 84.3205C51.9636 86.2847 50.4446 87.9835 48.4134 89.0629C48.1308 89.2044 47.8482 89.346 47.5656 89.4699C47.2653 89.5937 46.9651 89.6999 46.6648 89.8061ZM61.2188 79.7374C61.2188 79.8082 61.2188 79.879 61.2188 79.9498C61.2188 84.5683 59.4172 89.0275 56.2026 92.3365C56.1496 92.3896 56.1143 92.4427 56.0613 92.4781C54.7013 93.8406 53.1116 95.0085 51.2924 95.8933L48.9256 90.2662C48.9609 90.1777 49.0316 90.1069 49.1199 90.0715C49.3495 89.9476 49.6321 90.0184 49.7558 90.2485C49.8441 90.1954 49.9324 90.1423 50.0207 90.0892C49.8794 89.8769 49.9324 89.576 50.1443 89.4345C50.3563 89.2929 50.6565 89.3283 50.7978 89.5406C50.8862 89.4876 50.9568 89.4168 51.0275 89.3637C50.8685 89.169 50.8862 88.8682 51.0804 88.6913C51.2747 88.5143 51.575 88.532 51.7516 88.7267C51.8223 88.6559 51.8929 88.5851 51.9636 88.5143C51.7693 88.3374 51.7693 88.0365 51.9459 87.8419C52.1225 87.6472 52.4228 87.6473 52.6171 87.8065C52.6877 87.7357 52.7584 87.6472 52.8114 87.5765C52.5994 87.4172 52.5641 87.1164 52.7231 86.904C52.882 86.6917 53.1646 86.6563 53.3766 86.7979C53.4296 86.7094 53.4826 86.6209 53.5532 86.5501C53.3413 86.4086 53.2706 86.1254 53.3942 85.8954C53.5355 85.6654 53.8181 85.5946 54.0301 85.7361C54.0831 85.6477 54.1361 85.5592 54.1714 85.4707C53.9418 85.3469 53.8358 85.0814 53.9594 84.8337C54.0654 84.6036 54.348 84.4975 54.5776 84.6036C54.613 84.5152 54.6483 84.409 54.6836 84.3205C54.4363 84.232 54.3127 83.9666 54.401 83.7189C54.4893 83.4711 54.7543 83.3473 55.0015 83.4181C55.0369 83.3296 55.0545 83.2234 55.0899 83.1349C54.8426 83.0642 54.6836 82.8164 54.7366 82.5687C54.7896 82.3209 55.0369 82.1617 55.3018 82.2148C55.3195 82.1086 55.3371 82.0201 55.3548 81.914C55.0899 81.8786 54.9132 81.6485 54.9486 81.3831C54.9839 81.1177 55.2135 80.9407 55.4784 80.9584C55.4961 80.8522 55.4961 80.7638 55.4961 80.6576C55.2312 80.6399 55.0369 80.4275 55.0369 80.1621C55.0369 79.8967 55.2488 79.6843 55.5138 79.702C55.5138 79.5959 55.5138 79.5074 55.4961 79.4012C55.2312 79.4189 55.0015 79.2243 54.9839 78.9588C54.9662 78.6934 55.1605 78.4634 55.4078 78.4457C55.3901 78.3395 55.3725 78.251 55.3725 78.1448C55.1252 78.1802 54.8779 78.021 54.8249 77.7555C54.7719 77.5078 54.9486 77.2601 55.1958 77.207C55.1782 77.1008 55.1428 77.0123 55.1252 76.9062C54.8779 76.977 54.613 76.8354 54.5423 76.5877C54.507 76.4992 54.507 76.393 54.5423 76.3045L60.159 73.9333C60.8479 75.8621 61.2011 77.8263 61.2188 79.7374ZM53.8181 74.6058C53.7298 74.5704 53.6592 74.4996 53.6239 74.4111C53.5002 74.1811 53.5709 73.898 53.8005 73.7741C53.7475 73.6856 53.6945 73.5971 53.6415 73.5087C53.4296 73.6502 53.1293 73.5971 52.988 73.3848C52.8467 73.1725 52.882 72.8716 53.094 72.7301C53.041 72.6416 52.9703 72.5708 52.9174 72.5C52.7231 72.6593 52.4228 72.6416 52.2462 72.4469C52.0696 72.2523 52.1049 71.9515 52.2815 71.7745C52.2109 71.7037 52.1402 71.633 52.0696 71.5622C51.8929 71.7568 51.5927 71.7568 51.3984 71.5799C51.2041 71.4029 51.2041 71.1021 51.363 70.9074C51.2924 70.8367 51.2041 70.7836 51.1334 70.7128C50.9745 70.9251 50.6742 70.9605 50.4623 70.8013C50.4093 70.7659 50.3739 70.7128 50.3386 70.6597C50.2503 70.5005 50.2503 70.2881 50.3739 70.1288C50.2856 70.0758 50.1973 70.0227 50.1267 69.9696C49.9854 70.1819 49.7028 70.2527 49.4732 70.1288C49.2435 69.9873 49.1729 69.7042 49.3142 69.4918C49.2259 69.4387 49.1376 69.4033 49.0493 69.3503C48.9433 69.5803 48.6607 69.6865 48.4134 69.5626C48.1838 69.4564 48.0778 69.1733 48.1838 68.9433C48.0955 68.9079 47.9895 68.8725 47.9012 68.8371C47.8129 69.0848 47.5479 69.2087 47.3007 69.1202C47.0534 69.0317 46.9297 68.7663 47.0004 68.5186C46.9121 68.4832 46.8061 68.4655 46.7178 68.4301C46.6471 68.6778 46.3999 68.8371 46.1526 68.784C45.9053 68.7309 45.7463 68.4832 45.7993 68.2178C45.7463 68.2001 45.6934 68.2001 45.6404 68.1824C45.5874 68.1647 45.5521 68.1647 45.4991 68.1647C45.4637 68.4301 45.2341 68.607 44.9692 68.5717C44.7043 68.5363 44.5276 68.3062 44.5453 68.0408C44.4393 68.0408 44.351 68.0231 44.245 68.0231C44.2274 68.2885 44.0154 68.4832 43.7681 68.4832C43.5032 68.4832 43.2913 68.2708 43.2913 68.0054C43.1853 68.0054 43.097 68.0054 42.991 68.0054C43.0087 68.2708 42.8144 68.5009 42.5494 68.5186C42.2845 68.5363 42.0549 68.3416 42.0372 68.0939C41.9312 68.1116 41.8429 68.1116 41.7369 68.1293C41.7899 68.3947 41.6133 68.6247 41.366 68.6778C41.1011 68.7309 40.8538 68.554 40.8008 68.3062C40.6949 68.3239 40.6065 68.3593 40.5006 68.377C40.5712 68.6247 40.4299 68.8902 40.1826 68.961C40.0943 68.9963 39.9884 68.9787 39.9 68.961L37.5333 63.3338C39.4231 62.6437 41.3837 62.3075 43.3089 62.2721C43.3796 62.2721 43.4502 62.2721 43.5209 62.2721C44.9162 62.2721 46.2762 62.4314 47.6186 62.7499C49.3495 63.1569 51.0098 63.8293 52.5288 64.7318C53.7298 65.4396 54.8602 66.3067 55.8847 67.2976C55.9377 67.3507 55.9906 67.3861 56.026 67.4392C57.386 68.8017 58.5517 70.3943 59.4348 72.2169L53.8181 74.6058Z" fill="#4F32C3"/>
<path d="M156.226 57.512L154.954 52.2034C156.279 51.2125 157.427 50.0269 158.38 48.7351L163.697 49.9561C164.439 50.1331 165.198 49.7261 165.498 49.0183L166.894 45.5854C167.176 44.8776 166.911 44.0636 166.258 43.6566L161.595 40.7899C161.807 39.1973 161.807 37.5517 161.56 35.906L166.17 33.004C166.823 32.597 167.07 31.783 166.77 31.0752L165.34 27.66C165.039 26.9522 164.28 26.5629 163.538 26.7398L158.239 28.0139C157.232 26.6867 156.067 25.5365 154.777 24.581L155.996 19.2547C156.173 18.5115 155.766 17.7506 155.06 17.4675L151.633 16.0695C150.927 15.7864 150.114 16.0518 149.708 16.7066L146.864 21.3604C145.257 21.1304 143.632 21.1481 141.99 21.3958L139.093 16.7773C138.687 16.1226 137.874 15.8749 137.168 16.1757L133.759 17.609C133.052 17.9098 132.664 18.6707 132.84 19.414L134.112 24.7226C132.787 25.7312 131.639 26.8991 130.686 28.2085L125.369 26.9876C124.769 26.846 124.15 27.0937 123.779 27.5715C123.691 27.6777 123.621 27.8015 123.568 27.9254L122.172 31.3583C121.996 31.783 122.031 32.2608 122.225 32.6501C122.349 32.8978 122.543 33.1278 122.808 33.2871L127.471 36.1361C127.241 37.7286 127.259 39.3743 127.506 41.02L122.861 43.9043C122.208 44.3113 121.96 45.1253 122.26 45.8331L123.691 49.2483C123.991 49.9561 124.751 50.3454 125.493 50.1685L130.792 48.8944C131.798 50.2215 132.964 51.3717 134.253 52.3273L133.035 57.6536C132.858 58.3968 133.264 59.1577 133.971 59.4585L137.397 60.8564C138.104 61.1396 138.916 60.8741 139.323 60.2194L142.166 55.5478C143.756 55.7779 145.398 55.7602 147.041 55.5125L149.938 60.1309C150.344 60.7857 151.156 61.0334 151.863 60.7326L155.272 59.2993C156.014 59.0161 156.402 58.2552 156.226 57.512ZM151.739 36.1537C152.252 37.764 152.199 39.4451 151.669 40.9492L148.737 39.7459C148.966 39.0027 149.002 38.171 148.807 37.3747C148.754 37.1447 148.684 36.9323 148.595 36.7023C148.507 36.49 148.401 36.2776 148.277 36.083C147.854 35.3752 147.235 34.8443 146.529 34.4727L147.73 31.5353C149.178 32.2077 150.415 33.3402 151.209 34.8266C151.315 35.0389 151.421 35.2336 151.51 35.4636C151.58 35.7114 151.669 35.9414 151.739 36.1537ZM146.847 42.2056C147.553 41.7809 148.083 41.1615 148.454 40.4537L151.386 41.657C150.715 43.108 149.584 44.3467 148.101 45.143C147.889 45.2492 147.695 45.3553 147.465 45.4438C147.235 45.5323 147.023 45.6208 146.811 45.6915C145.204 46.2047 143.526 46.1516 142.025 45.6208L143.226 42.6833C143.968 42.9134 144.798 42.9488 145.593 42.7541C145.822 42.701 146.034 42.6302 146.264 42.5418C146.458 42.4356 146.653 42.3294 146.847 42.2056ZM145.522 40.843C145.292 40.9315 145.063 41.0023 144.851 41.02C143.95 41.1261 143.067 40.7722 142.502 40.0644C142.361 39.8875 142.237 39.6751 142.149 39.4628C142.06 39.2327 141.99 39.0204 141.972 38.7904C141.866 37.8879 142.219 37.0031 142.926 36.4369C143.102 36.2953 143.314 36.1714 143.526 36.083C143.756 35.9945 143.985 35.9237 144.197 35.906C145.098 35.7821 145.981 36.1537 146.547 36.8616C146.688 37.0385 146.811 37.2509 146.9 37.4632C146.988 37.6932 147.059 37.9233 147.076 38.1533C147.182 39.0558 146.829 39.9405 146.123 40.5068C145.946 40.613 145.752 40.7368 145.522 40.843ZM142.184 34.685C141.477 35.1274 140.947 35.7291 140.594 36.4369L137.662 35.2336C138.333 33.7826 139.464 32.5439 140.947 31.7476C141.159 31.6414 141.354 31.5353 141.583 31.4468C141.813 31.3583 142.025 31.2698 142.237 31.1991C143.844 30.6859 145.522 30.739 147.023 31.2698L145.84 34.2073C145.081 33.9772 144.268 33.9418 143.473 34.1365C143.244 34.1896 143.032 34.2603 142.802 34.3488C142.59 34.455 142.378 34.5612 142.184 34.685ZM144.356 25.4127C144.409 25.4127 144.462 25.4127 144.515 25.4127C147.907 25.4127 151.192 26.7575 153.612 29.1287C153.647 29.1641 153.682 29.1995 153.718 29.2349C154.724 30.2435 155.572 31.4114 156.226 32.7562L152.093 34.5081C152.04 34.4727 151.987 34.4373 151.951 34.3665C151.863 34.2073 151.916 33.9949 152.075 33.8887C152.04 33.818 152.004 33.7649 151.951 33.6941C151.792 33.8003 151.58 33.7649 151.474 33.6056C151.368 33.4464 151.404 33.234 151.563 33.1278C151.51 33.0748 151.474 33.004 151.421 32.9509C151.28 33.0748 151.05 33.0571 150.927 32.9155C150.803 32.7739 150.821 32.5439 150.962 32.42C150.909 32.3669 150.856 32.3139 150.803 32.2608C150.662 32.4023 150.45 32.4023 150.309 32.2785C150.167 32.1546 150.167 31.9246 150.291 31.783C150.238 31.7299 150.185 31.6945 150.114 31.6414C149.991 31.8007 149.779 31.8184 149.62 31.7122C149.461 31.5883 149.443 31.376 149.549 31.2167C149.496 31.1814 149.426 31.1283 149.373 31.0929C149.267 31.2521 149.055 31.3052 148.896 31.1991C148.737 31.0929 148.684 30.8805 148.772 30.7213C148.701 30.6859 148.648 30.6505 148.578 30.6151C148.489 30.7921 148.295 30.8628 148.118 30.7744C147.942 30.6859 147.871 30.4912 147.942 30.3143C147.871 30.2789 147.801 30.2612 147.73 30.2258C147.659 30.4028 147.465 30.4912 147.288 30.4382C147.112 30.3674 147.006 30.1727 147.076 29.9958C147.006 29.9781 146.935 29.9604 146.864 29.9427C146.811 30.1196 146.635 30.2435 146.441 30.1904C146.246 30.1373 146.14 29.9604 146.176 29.7834C146.105 29.7657 146.034 29.748 145.964 29.748C145.928 29.9427 145.769 30.0665 145.575 30.0489C145.381 30.0312 145.257 29.8542 145.275 29.6596C145.204 29.6596 145.134 29.6419 145.045 29.6419C145.045 29.8365 144.886 29.9781 144.692 29.9781C144.498 29.9781 144.339 29.8188 144.339 29.6242C144.268 29.6242 144.197 29.6242 144.109 29.6242C144.127 29.8188 143.985 29.9781 143.791 29.9958C143.597 30.0135 143.438 29.8719 143.42 29.6772C143.35 29.6949 143.279 29.6949 143.208 29.7126C143.244 29.9073 143.12 30.0842 142.926 30.1196C142.731 30.155 142.555 30.0312 142.519 29.8542C142.449 29.8719 142.378 29.8896 142.308 29.9073C142.36 30.0842 142.255 30.2789 142.078 30.332C142.007 30.3497 141.937 30.3497 141.866 30.332L140.117 26.1913C141.513 25.6781 142.943 25.4304 144.356 25.4127ZM132.275 42.8603C131.763 41.4624 131.516 40.029 131.498 38.5957C131.498 38.5426 131.498 38.4895 131.498 38.4364C131.498 37.6579 131.569 36.8793 131.71 36.1184C132.028 34.3665 132.699 32.6855 133.688 31.1991C134.13 30.5266 134.642 29.9073 135.207 29.3233C135.242 29.288 135.278 29.2526 135.313 29.2172C136.32 28.2085 137.486 27.3592 138.828 26.7044L140.577 30.8451C140.541 30.8982 140.506 30.9513 140.435 30.9867C140.276 31.0752 140.064 31.0221 139.958 30.8451C139.888 30.8805 139.835 30.9159 139.764 30.969C139.87 31.1283 139.835 31.3406 139.676 31.4468C139.517 31.553 139.305 31.5176 139.199 31.3583C139.146 31.3937 139.075 31.4468 139.022 31.4999C139.146 31.6414 139.128 31.8715 138.987 31.9953C138.846 32.1192 138.616 32.1015 138.492 31.9599C138.439 32.013 138.386 32.0661 138.333 32.1192C138.475 32.2608 138.475 32.4731 138.351 32.6147C138.227 32.7562 137.998 32.7562 137.857 32.6324C137.804 32.6855 137.751 32.7385 137.715 32.8093C137.874 32.9332 137.892 33.1455 137.786 33.3048C137.662 33.4641 137.45 33.4818 137.291 33.3756C137.256 33.4287 137.203 33.4994 137.168 33.5525C137.327 33.6587 137.38 33.871 137.274 34.0303C137.168 34.1896 136.956 34.2426 136.797 34.1542C136.779 34.1896 136.761 34.225 136.744 34.2603C136.726 34.2957 136.708 34.3134 136.691 34.3488H136.708C136.867 34.4373 136.938 34.6319 136.85 34.8089C136.779 34.9682 136.62 35.0389 136.461 35.0035C136.444 35.0035 136.408 34.9859 136.391 34.9859C136.355 35.0566 136.338 35.1274 136.302 35.1982C136.32 35.2159 136.355 35.2159 136.373 35.2336C136.497 35.3221 136.567 35.4813 136.514 35.6406C136.461 35.7998 136.302 35.8883 136.143 35.8706C136.126 35.8706 136.108 35.8706 136.073 35.8529C136.055 35.9237 136.037 35.9945 136.02 36.0653C136.037 36.0653 136.055 36.083 136.073 36.083C136.232 36.1537 136.32 36.313 136.285 36.49C136.249 36.6846 136.055 36.7908 135.878 36.7554C135.861 36.8262 135.843 36.8969 135.843 36.9677C136.037 37.0031 136.161 37.1624 136.143 37.357C136.126 37.5517 135.949 37.6755 135.755 37.6579C135.755 37.7286 135.737 37.7994 135.737 37.8879C135.931 37.8879 136.073 38.0471 136.073 38.2418C136.073 38.4364 135.914 38.578 135.719 38.578C135.719 38.6488 135.719 38.7196 135.719 38.8081C135.914 38.7904 136.073 38.9319 136.09 39.1266C136.108 39.3212 135.967 39.4805 135.772 39.5159C135.79 39.5866 135.79 39.6574 135.808 39.7282C136.002 39.6928 136.179 39.8167 136.214 40.0113C136.249 40.206 136.126 40.3829 135.949 40.4183C135.967 40.4891 135.984 40.5599 136.002 40.6307C136.179 40.5776 136.373 40.6838 136.426 40.8607C136.444 40.9315 136.444 41.0023 136.426 41.0731L132.275 42.8603ZM137.309 40.7368C136.797 39.1266 136.85 37.4455 137.38 35.9414L140.312 37.1447C140.082 37.8879 140.047 38.7196 140.241 39.5159C140.294 39.7459 140.365 39.9582 140.453 40.1706C140.541 40.3829 140.647 40.5953 140.771 40.7899C141.212 41.4977 141.813 42.0286 142.519 42.3825L141.318 45.3199C139.87 44.6475 138.634 43.515 137.839 42.0286C137.733 41.8163 137.627 41.6216 137.539 41.3916C137.45 41.1792 137.362 40.9669 137.309 40.7368ZM144.674 51.4779C144.621 51.4779 144.568 51.4779 144.515 51.4779C141.124 51.4779 137.839 50.1331 135.419 47.7619C135.384 47.7265 135.348 47.6911 135.313 47.6557C134.306 46.6471 133.459 45.4792 132.805 44.1343L136.938 42.3825C136.991 42.4179 137.044 42.4533 137.079 42.5241C137.168 42.6833 137.115 42.8957 136.956 43.0018C136.991 43.0726 137.026 43.1257 137.079 43.1965C137.238 43.0903 137.45 43.1257 137.556 43.285C137.662 43.4442 137.627 43.6566 137.468 43.7627C137.521 43.8158 137.556 43.8866 137.609 43.9397C137.751 43.8158 137.98 43.8335 138.104 43.9751C138.227 44.1167 138.21 44.3467 138.068 44.4706C138.121 44.5236 138.174 44.5767 138.227 44.6298C138.369 44.4883 138.581 44.4883 138.722 44.6121C138.863 44.736 138.863 44.966 138.74 45.1076C138.793 45.1607 138.846 45.1961 138.916 45.2492C139.04 45.0899 139.252 45.0722 139.411 45.1784C139.57 45.3022 139.587 45.5146 139.481 45.6738C139.534 45.7092 139.605 45.7623 139.658 45.7977C139.764 45.6385 139.976 45.5854 140.135 45.6915C140.294 45.7977 140.347 46.0101 140.259 46.1693C140.329 46.2047 140.382 46.2401 140.453 46.2755C140.541 46.0985 140.736 46.0278 140.912 46.1162C141.089 46.2047 141.159 46.3994 141.089 46.5763C141.159 46.6117 141.23 46.6294 141.301 46.6648C141.371 46.4878 141.566 46.3994 141.742 46.4524C141.919 46.5232 142.025 46.7179 141.954 46.8948C142.025 46.9125 142.096 46.9302 142.166 46.9479C142.219 46.771 142.396 46.6471 142.59 46.7002C142.784 46.7533 142.89 46.9302 142.855 47.1072C142.926 47.1249 142.996 47.1426 143.067 47.1426C143.102 46.9479 143.261 46.824 143.456 46.8417C143.65 46.8594 143.774 47.0364 143.756 47.231C143.826 47.231 143.897 47.231 143.985 47.2487C143.985 47.0541 144.144 46.9125 144.339 46.9125C144.533 46.9125 144.674 47.0718 144.674 47.2664C144.745 47.2664 144.816 47.2664 144.904 47.2664C144.886 47.0718 145.028 46.9125 145.222 46.8948C145.416 46.8771 145.575 47.0187 145.593 47.2133C145.663 47.1956 145.734 47.1956 145.805 47.1779C145.769 46.9833 145.893 46.8063 146.087 46.771C146.282 46.7356 146.458 46.8594 146.494 47.0364C146.564 47.0187 146.635 47.001 146.705 46.9833C146.653 46.8063 146.758 46.6117 146.935 46.5586C147.006 46.5409 147.076 46.5409 147.147 46.5586L148.896 50.6993C147.518 51.2125 146.087 51.4779 144.674 51.4779ZM148.472 46.0278C148.507 45.9747 148.542 45.9216 148.613 45.8862C148.772 45.7977 148.984 45.8508 149.09 46.0278C149.161 45.9924 149.214 45.957 149.284 45.9039C149.178 45.7446 149.214 45.5323 149.373 45.4261C149.531 45.3199 149.743 45.3553 149.849 45.5146C149.902 45.4792 149.973 45.4261 150.026 45.373C149.902 45.2315 149.92 45.0014 150.061 44.8776C150.203 44.7537 150.432 44.7714 150.556 44.9129C150.609 44.8599 150.662 44.8068 150.715 44.7537C150.574 44.6121 150.574 44.3998 150.697 44.2582C150.821 44.1167 151.05 44.1167 151.192 44.2405C151.245 44.1874 151.298 44.1343 151.333 44.0636C151.174 43.9397 151.156 43.7274 151.262 43.5681C151.386 43.4088 151.598 43.3911 151.757 43.4973C151.792 43.4442 151.845 43.3734 151.881 43.3027C151.722 43.1965 151.669 42.9841 151.775 42.8249C151.881 42.6656 152.093 42.6125 152.252 42.701C152.287 42.6302 152.322 42.5772 152.358 42.5064C152.181 42.4179 152.11 42.2233 152.199 42.0463C152.287 41.8693 152.481 41.7986 152.658 41.8693C152.693 41.7986 152.711 41.7278 152.746 41.657C152.569 41.5862 152.481 41.3916 152.534 41.2146C152.605 41.0377 152.799 40.9315 152.976 41.0023C152.993 40.9315 153.011 40.8607 153.029 40.7899C152.852 40.7368 152.728 40.5599 152.781 40.3652C152.817 40.1706 153.011 40.0644 153.188 40.0998C153.205 40.029 153.223 39.9582 153.223 39.8875C153.029 39.8521 152.905 39.6928 152.923 39.4982C152.94 39.3035 153.117 39.1797 153.311 39.1973C153.311 39.1266 153.329 39.0558 153.329 38.9673C153.135 38.9673 152.993 38.808 152.993 38.6134C152.993 38.4188 153.152 38.2772 153.347 38.2772C153.347 38.2064 153.347 38.1356 153.347 38.0471C153.152 38.0648 152.993 37.9233 152.976 37.7286C152.958 37.534 153.099 37.3747 153.294 37.357C153.276 37.2862 153.276 37.2155 153.258 37.1447C153.064 37.1801 152.887 37.0562 152.852 36.8616C152.817 36.6669 152.94 36.49 153.135 36.4546C153.117 36.3838 153.099 36.313 153.082 36.2422C152.905 36.2953 152.711 36.1891 152.658 36.0122C152.64 35.9414 152.64 35.8706 152.658 35.7998L156.791 34.048C157.303 35.4459 157.55 36.8793 157.568 38.2949C157.568 38.348 157.568 38.4011 157.568 38.4541C157.568 41.8516 156.226 45.143 153.859 47.5672C153.824 47.6026 153.788 47.638 153.753 47.6734C152.746 48.682 151.58 49.5314 150.238 50.1862L148.472 46.0278Z" fill="#4F32C3"/>
<path d="M80.153 31.5884C74.5716 31.5884 70.0146 36.1361 70.0146 41.7455C70.0146 43.6389 70.5269 45.4084 71.4453 46.9302C72.3638 48.4697 73.6708 49.7615 75.2428 50.6286C76.6911 51.4426 78.369 51.9026 80.153 51.9026C81.9369 51.9026 83.6148 51.4426 85.0808 50.6286C86.6528 49.7615 87.9598 48.4697 88.8783 46.9302C89.779 45.4084 90.2913 43.6566 90.2913 41.7632C90.2736 36.1361 85.7343 31.5884 80.153 31.5884ZM81.0714 46.4879C80.7711 46.5409 80.4709 46.5763 80.153 46.5763C79.7997 46.5763 79.4465 46.5409 79.1285 46.4702C77.2563 46.0632 75.7903 44.5591 75.4194 42.6657C75.3664 42.3648 75.3311 42.0463 75.3311 41.7278C75.3311 39.0558 77.5036 36.8793 80.1706 36.8793C82.8377 36.8793 85.0102 39.0558 85.0102 41.7278C85.0102 42.0817 84.9748 42.4356 84.8865 42.7718C84.445 44.6652 82.9613 46.1163 81.0714 46.4879Z" fill="#FF7352"/>
<path d="M119.876 68.1469C119.011 66.572 117.739 65.2448 116.203 64.3247C114.684 63.4045 112.9 62.8914 111.01 62.8914C109.12 62.8914 107.336 63.4222 105.817 64.3247C104.28 65.2448 103.009 66.572 102.143 68.1469C101.348 69.5979 100.889 71.2613 100.889 73.0308C100.889 78.6225 105.428 83.1879 111.027 83.1879C116.609 83.1879 121.166 78.6402 121.166 73.0308C121.13 71.2613 120.671 69.5979 119.876 68.1469ZM110.992 77.8793C108.325 77.8793 106.153 75.7028 106.153 73.0308C106.153 72.8008 106.17 72.5707 106.206 72.3407C106.471 70.4119 107.884 68.8547 109.72 68.3415C110.127 68.2354 110.551 68.1646 110.992 68.1646C111.469 68.1646 111.946 68.2353 112.387 68.3592C114.224 68.9078 115.584 70.5181 115.796 72.4645C115.814 72.6415 115.832 72.8184 115.832 72.9954C115.832 75.7028 113.659 77.8793 110.992 77.8793Z" fill="#FF7352"/>
</g>
<g filter="url(#filter1_d)">
<path d="M124.981 93.6105C123.85 95.6278 124.151 98.229 125.864 99.9278L129.467 103.538C131.763 105.838 136.921 106.794 139.464 104.953L144.427 107.201C146.882 105.838 149.108 104.157 151.068 102.193C152.958 100.299 154.583 98.1582 155.926 95.8047L152.676 90.2484C151.934 83.9665 148.825 80.8876 148.825 80.8876L148.225 80.2859L142.219 74.2695C141.001 73.0485 139.023 73.0485 137.786 74.2695C136.567 75.4905 136.567 77.49 137.786 78.711L136.815 77.7378C135.543 76.4637 133.476 76.4637 132.205 77.7378C130.933 79.0118 130.933 81.0822 132.205 82.3563L131.233 81.383C129.962 80.109 127.895 80.109 126.623 81.383C125.352 82.6571 125.352 84.7274 126.623 86.0015L115.266 74.6411C113.995 73.367 111.928 73.367 110.656 74.6411C109.385 75.9152 109.385 77.9855 110.656 79.2596L129.962 98.6006" fill="white"/>
</g>
</g>
<defs>
<filter id="filter0_d" x="7.00537" y="12.957" width="164.001" height="104.618" filterUnits="userSpaceOnUse" color-interpolation-filters="sRGB">
<feFlood flood-opacity="0" result="BackgroundImageFix"/>
<feColorMatrix in="SourceAlpha" type="matrix" values="0 0 0 0 0 0 0 0 0 0 0 0 0 0 0 0 0 0 127 0"/>
<feOffset dx="-1" dy="2"/>
<feGaussianBlur stdDeviation="2.5"/>
<feColorMatrix type="matrix" values="0 0 0 0 0.0470588 0 0 0 0 0 0 0 0 0 0.519661 0 0 0 0.1 0"/>
<feBlend mode="normal" in2="BackgroundImageFix" result="effect1_dropShadow"/>
<feBlend mode="normal" in="SourceGraphic" in2="effect1_dropShadow" result="shape"/>
</filter>
<filter id="filter1_d" x="103.703" y="70.3538" width="56.223" height="43.8468" filterUnits="userSpaceOnUse" color-interpolation-filters="sRGB">
<feFlood flood-opacity="0" result="BackgroundImageFix"/>
<feColorMatrix in="SourceAlpha" type="matrix" values="0 0 0 0 0 0 0 0 0 0 0 0 0 0 0 0 0 0 127 0"/>
<feOffset dx="-1" dy="2"/>
<feGaussianBlur stdDeviation="2.5"/>
<feColorMatrix type="matrix" values="0 0 0 0 0.0470588 0 0 0 0 0 0 0 0 0 0.519661 0 0 0 0.1 0"/>
<feBlend mode="normal" in2="BackgroundImageFix" result="effect1_dropShadow"/>
<feBlend mode="normal" in="SourceGraphic" in2="effect1_dropShadow" result="shape"/>
</filter>
<clipPath id="clip0">
<rect width="154" height="120" fill="white" transform="translate(13 10)"/>
</clipPath>
</defs>
</svg>
