<svg width="100" height="80" viewBox="0 0 100 80" fill="none" xmlns="http://www.w3.org/2000/svg">
<rect opacity="0.4" width="100" height="80" rx="20" fill="#DDDDDD"/>
<path d="M21.0947 19.4958H78.1152C78.8831 19.4958 79.6196 19.7976 80.1626 20.3347C80.7056 20.8717 81.0107 21.6002 81.0107 22.3597V57.664H18.1992V22.3597C18.1992 21.6002 18.5043 20.8717 19.0473 20.3347C19.5903 19.7976 20.3268 19.4958 21.0947 19.4958Z" fill="#C2C2C2"/>
<path d="M89.3263 70.5414H9.88528C9.45928 70.5417 9.04294 70.4159 8.68994 70.18C8.33694 69.9441 8.06348 69.6091 7.90483 69.2181C7.74617 68.827 7.70961 68.3979 7.79983 67.9861C7.89006 67.5744 8.10295 67.1988 8.41104 66.9078L18.1991 57.6675H81.0106L90.7987 66.9078C91.1067 67.1986 91.3195 67.5741 91.4098 67.9857C91.5001 68.3973 91.4637 68.8263 91.3053 69.2172C91.1468 69.6082 90.8737 69.9432 90.5209 70.1792C90.1682 70.4153 89.7521 70.5414 89.3263 70.5414Z" fill="#C2C2C2"/>
<path d="M78.738 21.9009H20.4717V54.5997H78.738V21.9009Z" fill="#4F32C3"/>
<path d="M54.6953 67.2695H44.5144C44.3116 67.2693 44.1127 67.2139 43.9395 67.1095C43.7662 67.005 43.6254 66.8555 43.5322 66.6772C43.4391 66.4989 43.3973 66.2988 43.4114 66.0986C43.4254 65.8984 43.4948 65.706 43.612 65.5421L44.3153 64.5628C44.4178 64.4205 44.5531 64.3044 44.7101 64.2242C44.8671 64.1441 45.0411 64.1022 45.2178 64.1021H53.9865C54.1633 64.1012 54.3378 64.1426 54.4949 64.2228C54.6521 64.3031 54.7872 64.4197 54.8889 64.5628L55.5923 65.5421C55.7092 65.7056 55.7785 65.8976 55.7928 66.0973C55.8071 66.297 55.7658 66.4967 55.6733 66.6748C55.5808 66.8529 55.4407 67.0025 55.2683 67.1074C55.0959 67.2122 54.8977 67.2683 54.6953 67.2695Z" fill="#4F32C3"/>
<path d="M27.0363 20.386L18.9893 33.3877H80.9907L70.9301 20.386H27.0363Z" fill="#FF7352"/>
<path d="M33.6316 20.386L27.8955 33.3877H72.0844L64.9155 20.386H33.6316Z" fill="white"/>
<path d="M40.1654 20.386L36.7214 33.3877H63.2584L58.9528 20.386H40.1654Z" fill="#FF7352"/>
<path d="M46.8082 20.386L45.6917 33.3877H54.2887L52.8936 20.386H46.8082Z" fill="white"/>
<path d="M19.0553 33.3877C19.0553 33.4538 19.0435 33.5175 19.0435 33.586C19.0435 34.7598 19.5098 35.8856 20.3398 36.7156C21.1698 37.5456 22.2956 38.012 23.4694 38.012C24.6433 38.012 25.769 37.5456 26.5991 36.7156C27.4291 35.8856 27.8954 34.7598 27.8954 33.586C27.8954 33.5175 27.8954 33.4538 27.8954 33.3877H19.0553Z" fill="#CE4B47"/>
<path d="M27.905 33.3877C27.905 33.4538 27.905 33.5175 27.905 33.586C27.905 34.7598 28.3713 35.8856 29.2014 36.7156C30.0314 37.5456 31.1572 38.012 32.331 38.012C33.5048 38.012 34.6306 37.5456 35.4606 36.7156C36.2907 35.8856 36.757 34.7598 36.757 33.586C36.757 33.5175 36.757 33.4538 36.757 33.3877H27.905Z" fill="#E5E5E5"/>
<path d="M36.757 33.3877C36.757 33.4538 36.757 33.5175 36.757 33.586C36.7434 34.1756 36.8478 34.7621 37.064 35.3109C37.2803 35.8596 37.604 36.3596 38.0163 36.7815C38.4285 37.2033 38.9209 37.5385 39.4645 37.7674C40.0081 37.9963 40.592 38.1142 41.1818 38.1142C41.7717 38.1142 42.3555 37.9963 42.8992 37.7674C43.4428 37.5385 43.9352 37.2033 44.3474 36.7815C44.7596 36.3596 45.0834 35.8596 45.2996 35.3109C45.5159 34.7621 45.6202 34.1756 45.6066 33.586C45.6066 33.5175 45.6066 33.4538 45.6066 33.3877H36.757Z" fill="#CE4B47"/>
<path d="M45.6064 33.3877C45.6064 33.4538 45.6064 33.5175 45.6064 33.586C45.6064 34.7598 46.0728 35.8856 46.9028 36.7156C47.7328 37.5456 48.8586 38.012 50.0324 38.012C51.2063 38.012 52.332 37.5456 53.1621 36.7156C53.9921 35.8856 54.4584 34.7598 54.4584 33.586C54.4584 33.5175 54.4584 33.4538 54.4466 33.3877H45.6064Z" fill="#E5E5E5"/>
<path d="M54.4585 33.3877C54.4585 33.4538 54.4585 33.5175 54.4585 33.586C54.4448 34.1756 54.5492 34.7621 54.7655 35.3109C54.9817 35.8596 55.3055 36.3596 55.7177 36.7815C56.1299 37.2033 56.6223 37.5385 57.1659 37.7674C57.7095 37.9963 58.2934 38.1142 58.8833 38.1142C59.4731 38.1142 60.057 37.9963 60.6006 37.7674C61.1442 37.5385 61.6366 37.2033 62.0488 36.7815C62.461 36.3596 62.7848 35.8596 63.001 35.3109C63.2173 34.7621 63.3217 34.1756 63.308 33.586C63.308 33.5175 63.308 33.4538 63.308 33.3877H54.4585Z" fill="#CE4B47"/>
<path d="M63.3079 33.3877C63.3079 33.4538 63.3079 33.5175 63.3079 33.586C63.3079 34.7598 63.7742 35.8856 64.6042 36.7156C65.4342 37.5456 66.56 38.012 67.7338 38.012C68.9077 38.012 70.0334 37.5456 70.8635 36.7156C71.6935 35.8856 72.1598 34.7598 72.1598 33.586C72.1598 33.5175 72.1598 33.4538 72.148 33.3877H63.3079Z" fill="#E5E5E5"/>
<path d="M72.1601 33.3877C72.1601 33.4538 72.1601 33.5175 72.1601 33.586C72.1465 34.1756 72.2509 34.7621 72.4671 35.3109C72.6834 35.8596 73.0071 36.3596 73.4193 36.7815C73.8316 37.2033 74.324 37.5385 74.8676 37.7674C75.4112 37.9963 75.9951 38.1142 76.5849 38.1142C77.1747 38.1142 77.7586 37.9963 78.3022 37.7674C78.8459 37.5385 79.3382 37.2033 79.7505 36.7815C80.1627 36.3596 80.4865 35.8596 80.7027 35.3109C80.9189 34.7621 81.0233 34.1756 81.0097 33.586C81.0097 33.5175 81.0097 33.4538 81.0097 33.3877H72.1601Z" fill="#CE4B47"/>
<path d="M0 0V-1H-1V0H0ZM100 0H101V-1H100V0ZM100 80V81H101V80H100ZM0 80H-1V81H0V80ZM0 1H100V-1H0V1ZM99 0V80H101V0H99ZM100 79H0V81H100V79ZM1 80V0H-1V80H1Z" fill="white"/>
</svg>
